G04 #@! TF.FileFunction,Copper,L1,Top,Signal*
%FSLAX46Y46*%
G04 Gerber Fmt 4.6, Leading zero omitted, Abs format (unit mm)*
G04 Created by KiCad (PCBNEW 4.0.7-e2-6376~58~ubuntu16.04.1) date Wed Dec 27 17:52:43 2017*
%MOMM*%
%LPD*%
G01*
G04 APERTURE LIST*
%ADD10C,0.100000*%
%ADD11R,1.700000X1.700000*%
%ADD12O,1.700000X1.700000*%
%ADD13C,5.600000*%
%ADD14C,1.600000*%
%ADD15O,1.600000X1.600000*%
%ADD16R,1.600000X1.600000*%
%ADD17R,2.032000X1.727200*%
%ADD18O,2.032000X1.727200*%
%ADD19R,1.300000X1.500000*%
%ADD20C,1.016000*%
%ADD21C,0.228600*%
%ADD22C,0.508000*%
%ADD23C,0.254000*%
G04 APERTURE END LIST*
D10*
D11*
X151130000Y-119380000D03*
D12*
X151130000Y-121920000D03*
X151130000Y-124460000D03*
X151130000Y-127000000D03*
X151130000Y-129540000D03*
X151130000Y-132080000D03*
X151130000Y-134620000D03*
X151130000Y-137160000D03*
D13*
X102870000Y-107950000D03*
D11*
X111760000Y-107950000D03*
D12*
X109220000Y-107950000D03*
D11*
X121920000Y-116205000D03*
D12*
X121920000Y-139065000D03*
X119380000Y-139065000D03*
X119380000Y-116205000D03*
X116840000Y-139065000D03*
X116840000Y-116205000D03*
X114300000Y-139065000D03*
X114300000Y-116205000D03*
X111760000Y-139065000D03*
X111760000Y-116205000D03*
X109220000Y-139065000D03*
X109220000Y-116205000D03*
X106680000Y-139065000D03*
X106680000Y-116205000D03*
X104140000Y-139065000D03*
X104140000Y-116205000D03*
D11*
X170180000Y-134620000D03*
D12*
X172720000Y-134620000D03*
X170180000Y-137160000D03*
X172720000Y-137160000D03*
X170180000Y-139700000D03*
X172720000Y-139700000D03*
X170180000Y-142240000D03*
X172720000Y-142240000D03*
D13*
X172000000Y-147000000D03*
X103000000Y-147000000D03*
X172000000Y-108000000D03*
D14*
X161290000Y-140970000D03*
D15*
X151130000Y-140970000D03*
D16*
X170180000Y-128270000D03*
D14*
X172680000Y-128270000D03*
D17*
X172720000Y-114300000D03*
D18*
X172720000Y-116840000D03*
X172720000Y-119380000D03*
X172720000Y-121920000D03*
D11*
X129540000Y-109220000D03*
D12*
X129540000Y-111760000D03*
X129540000Y-114300000D03*
X129540000Y-116840000D03*
X129540000Y-119380000D03*
X129540000Y-121920000D03*
X129540000Y-124460000D03*
X129540000Y-127000000D03*
X129540000Y-129540000D03*
X129540000Y-132080000D03*
X129540000Y-134620000D03*
X129540000Y-137160000D03*
X129540000Y-139700000D03*
X129540000Y-142240000D03*
X129540000Y-144780000D03*
D11*
X144780000Y-109220000D03*
D12*
X144780000Y-111760000D03*
X144780000Y-114300000D03*
X144780000Y-116840000D03*
X144780000Y-119380000D03*
X144780000Y-121920000D03*
X144780000Y-124460000D03*
X144780000Y-127000000D03*
X144780000Y-129540000D03*
X144780000Y-132080000D03*
X144780000Y-134620000D03*
X144780000Y-137160000D03*
X144780000Y-139700000D03*
X144780000Y-142240000D03*
X144780000Y-144780000D03*
D11*
X121920000Y-113665000D03*
D12*
X119380000Y-113665000D03*
X116840000Y-113665000D03*
X114300000Y-113665000D03*
X111760000Y-113665000D03*
X109220000Y-113665000D03*
X106680000Y-113665000D03*
X104140000Y-113665000D03*
D11*
X116840000Y-107950000D03*
D12*
X119380000Y-107950000D03*
X121920000Y-107950000D03*
D11*
X121920000Y-141605000D03*
D12*
X119380000Y-141605000D03*
X116840000Y-141605000D03*
X114300000Y-141605000D03*
X111760000Y-141605000D03*
X109220000Y-141605000D03*
X106680000Y-141605000D03*
X104140000Y-141605000D03*
D11*
X127000000Y-109220000D03*
D12*
X127000000Y-111760000D03*
X127000000Y-114300000D03*
X127000000Y-116840000D03*
X127000000Y-119380000D03*
X127000000Y-121920000D03*
X127000000Y-124460000D03*
X127000000Y-127000000D03*
X127000000Y-129540000D03*
X127000000Y-132080000D03*
X127000000Y-134620000D03*
X127000000Y-137160000D03*
X127000000Y-139700000D03*
X127000000Y-142240000D03*
X127000000Y-144780000D03*
D11*
X147320000Y-109220000D03*
D12*
X147320000Y-111760000D03*
X147320000Y-114300000D03*
X147320000Y-116840000D03*
X147320000Y-119380000D03*
X147320000Y-121920000D03*
X147320000Y-124460000D03*
X147320000Y-127000000D03*
X147320000Y-129540000D03*
X147320000Y-132080000D03*
X147320000Y-134620000D03*
X147320000Y-137160000D03*
X147320000Y-139700000D03*
X147320000Y-142240000D03*
X147320000Y-144780000D03*
D19*
X124650000Y-137550000D03*
X124650000Y-140250000D03*
D20*
X147320000Y-109220000D02*
X149186000Y-109220000D01*
X149186000Y-109220000D02*
X149186000Y-109266000D01*
X149186000Y-109266000D02*
X149232000Y-109220000D01*
X149232000Y-109220000D02*
X163957000Y-109220000D01*
X163957000Y-109220000D02*
X167950000Y-113213000D01*
X167950000Y-113213000D02*
X167950000Y-113272081D01*
X167950000Y-113272081D02*
X171517919Y-116840000D01*
X171517919Y-116840000D02*
X172720000Y-116840000D01*
X147320000Y-109220000D02*
X144780000Y-109220000D01*
X172720000Y-119380000D02*
X172720000Y-121920000D01*
X172720000Y-116840000D02*
X172720000Y-119380000D01*
D21*
X172720000Y-129540000D02*
X172720000Y-129750000D01*
X172720000Y-129750000D02*
X172720000Y-130742081D01*
X172680000Y-128270000D02*
X172680000Y-129401370D01*
X172680000Y-129401370D02*
X172720000Y-129441370D01*
X172720000Y-129441370D02*
X172720000Y-129750000D01*
X172720000Y-114300000D02*
X172720000Y-108720000D01*
X172720000Y-108720000D02*
X172000000Y-108000000D01*
X172720000Y-137160000D02*
X172720000Y-146280000D01*
X172720000Y-146280000D02*
X172000000Y-147000000D01*
X172720000Y-134620000D02*
X172720000Y-135822081D01*
X172720000Y-135822081D02*
X172720000Y-137160000D01*
X172720000Y-132080000D02*
X172720000Y-133282081D01*
X172720000Y-133282081D02*
X172720000Y-134620000D01*
X172720000Y-130742081D02*
X172720000Y-132080000D01*
X106680000Y-139065000D02*
X106680000Y-141605000D01*
X106680000Y-113665000D02*
X106680000Y-116205000D01*
X127000000Y-116840000D02*
X129540000Y-116840000D01*
X144780000Y-111760000D02*
X145982081Y-111760000D01*
X145982081Y-111760000D02*
X147320000Y-111760000D01*
X106680000Y-138362081D02*
X106680000Y-139700000D01*
X127000000Y-109220000D02*
X128078600Y-109220000D01*
X128078600Y-109220000D02*
X129540000Y-109220000D01*
X127000000Y-111760000D02*
X128202081Y-111760000D01*
X128202081Y-111760000D02*
X129540000Y-111760000D01*
X127000000Y-114300000D02*
X128202081Y-114300000D01*
X128202081Y-114300000D02*
X129540000Y-114300000D01*
X151130000Y-140970000D02*
X151130000Y-145270000D01*
X151130000Y-145270000D02*
X149100000Y-147300000D01*
X139600000Y-147300000D02*
X132300000Y-140000000D01*
X149100000Y-147300000D02*
X139600000Y-147300000D01*
X132300000Y-140000000D02*
X132300000Y-122140000D01*
X132300000Y-122140000D02*
X130389999Y-120229999D01*
X130389999Y-120229999D02*
X129540000Y-119380000D01*
X127000000Y-119380000D02*
X128202081Y-119380000D01*
X128202081Y-119380000D02*
X129540000Y-119380000D01*
X127000000Y-121920000D02*
X128202081Y-121920000D01*
X128202081Y-121920000D02*
X129540000Y-121920000D01*
X127000000Y-124460000D02*
X129540000Y-124460000D01*
X127000000Y-127000000D02*
X128202081Y-127000000D01*
X128202081Y-127000000D02*
X129540000Y-127000000D01*
X127000000Y-129540000D02*
X129540000Y-129540000D01*
X127000000Y-132080000D02*
X128202081Y-132080000D01*
X128202081Y-132080000D02*
X129540000Y-132080000D01*
X127000000Y-134620000D02*
X129540000Y-134620000D01*
X127000000Y-137160000D02*
X128202081Y-137160000D01*
X128202081Y-137160000D02*
X129540000Y-137160000D01*
X127000000Y-139700000D02*
X126150001Y-138850001D01*
X126150001Y-138850001D02*
X123800001Y-138850001D01*
X123800001Y-138850001D02*
X116840000Y-131890000D01*
X116840000Y-131890000D02*
X116840000Y-117407081D01*
X116840000Y-117407081D02*
X116840000Y-116205000D01*
X116840000Y-113665000D02*
X116840000Y-116205000D01*
X127000000Y-139700000D02*
X129540000Y-139700000D01*
X124650000Y-140250000D02*
X124650000Y-140350000D01*
X124650000Y-140350000D02*
X126540000Y-142240000D01*
X126540000Y-142240000D02*
X127000000Y-142240000D01*
X126826000Y-142066000D02*
X127000000Y-142240000D01*
X127000000Y-142240000D02*
X128202081Y-142240000D01*
X128202081Y-142240000D02*
X129540000Y-142240000D01*
X129540000Y-144780000D02*
X127000000Y-144780000D01*
D22*
X170180000Y-123317000D02*
X170180000Y-128270000D01*
X170180000Y-134620000D02*
X170180000Y-128270000D01*
X144780000Y-116840000D02*
X143577919Y-116840000D01*
X143577919Y-116840000D02*
X134345918Y-107607999D01*
X134345918Y-107607999D02*
X125540399Y-107607999D01*
X121920000Y-111228398D02*
X121920000Y-112307000D01*
X125540399Y-107607999D02*
X121920000Y-111228398D01*
X121920000Y-112307000D02*
X121920000Y-113665000D01*
X165900000Y-125900000D02*
X168270000Y-128270000D01*
X168270000Y-128270000D02*
X170180000Y-128270000D01*
X165900000Y-122682000D02*
X165900000Y-125900000D01*
X151130000Y-119380000D02*
X162598000Y-119380000D01*
X162598000Y-119380000D02*
X165900000Y-122682000D01*
X147320000Y-116840000D02*
X163703000Y-116840000D01*
X163703000Y-116840000D02*
X170180000Y-123317000D01*
X170180000Y-139700000D02*
X170180000Y-142240000D01*
X170180000Y-137160000D02*
X170180000Y-139700000D01*
X147320000Y-116840000D02*
X144780000Y-116840000D01*
X122555000Y-114300000D02*
X121920000Y-113665000D01*
X170180000Y-134620000D02*
X170180000Y-137160000D01*
X121920000Y-113665000D02*
X121920000Y-116205000D01*
D21*
X144780000Y-119380000D02*
X147320000Y-119380000D01*
X144780000Y-121920000D02*
X145982081Y-121920000D01*
X145982081Y-121920000D02*
X147320000Y-121920000D01*
X151130000Y-124460000D02*
X147320000Y-124460000D01*
X144780000Y-124460000D02*
X147320000Y-124460000D01*
X151130000Y-127000000D02*
X149927919Y-127000000D01*
X149927919Y-127000000D02*
X147320000Y-127000000D01*
X144780000Y-127000000D02*
X147320000Y-127000000D01*
X144780000Y-129540000D02*
X147320000Y-129540000D01*
X144780000Y-132080000D02*
X147320000Y-132080000D01*
X144780000Y-134620000D02*
X145982081Y-134620000D01*
X145982081Y-134620000D02*
X147320000Y-134620000D01*
X144780000Y-137160000D02*
X147320000Y-137160000D01*
X144780000Y-139700000D02*
X147320000Y-139700000D01*
D22*
X144780000Y-142240000D02*
X147320000Y-142240000D01*
D21*
X144780000Y-144780000D02*
X145982081Y-144780000D01*
X145982081Y-144780000D02*
X147320000Y-144780000D01*
X121920000Y-139065000D02*
X121920000Y-141605000D01*
X121920000Y-138238600D02*
X121920000Y-139700000D01*
X151130000Y-137160000D02*
X157480000Y-137160000D01*
X157480000Y-137160000D02*
X161290000Y-140970000D01*
X119380000Y-116205000D02*
X119380000Y-133158600D01*
X119380000Y-133158600D02*
X123771400Y-137550000D01*
X123771400Y-137550000D02*
X124650000Y-137550000D01*
X119380000Y-113665000D02*
X119380000Y-116205000D01*
X119380000Y-115637919D02*
X119380000Y-116840000D01*
X111760000Y-107950000D02*
X111760000Y-111125000D01*
X111760000Y-111125000D02*
X109220000Y-113665000D01*
X109220000Y-113665000D02*
X109220000Y-116205000D01*
X109220000Y-107950000D02*
X104140000Y-113030000D01*
X104140000Y-113030000D02*
X104140000Y-113665000D01*
X104150000Y-116800000D02*
X104140000Y-116810000D01*
X104140000Y-116810000D02*
X104140000Y-116840000D01*
X104140000Y-113665000D02*
X104140000Y-116205000D01*
X119380000Y-139065000D02*
X119380000Y-141605000D01*
X116840000Y-139065000D02*
X116840000Y-141605000D01*
X116840000Y-138362081D02*
X116840000Y-139700000D01*
X114300000Y-139065000D02*
X114300000Y-140267081D01*
X114300000Y-140267081D02*
X114300000Y-141605000D01*
X111760000Y-139065000D02*
X111760000Y-140970000D01*
X111760000Y-140970000D02*
X111760000Y-141605000D01*
X109220000Y-139065000D02*
X109220000Y-141605000D01*
X109220000Y-138362081D02*
X109220000Y-139700000D01*
X104140000Y-139065000D02*
X104140000Y-141605000D01*
X144780000Y-114300000D02*
X147320000Y-114300000D01*
X121920000Y-107950000D02*
X118370000Y-111500000D01*
X118370000Y-111500000D02*
X116465000Y-111500000D01*
X116465000Y-111500000D02*
X115149999Y-112815001D01*
X115149999Y-112815001D02*
X114300000Y-113665000D01*
X114300000Y-113665000D02*
X114300000Y-116205000D01*
X119380000Y-107950000D02*
X119380000Y-109120000D01*
X119380000Y-109120000D02*
X117700000Y-110800000D01*
X117700000Y-110800000D02*
X114625000Y-110800000D01*
X114625000Y-110800000D02*
X112609999Y-112815001D01*
X112609999Y-112815001D02*
X111760000Y-113665000D01*
X111800000Y-116165000D02*
X111760000Y-116205000D01*
X111760000Y-113665000D02*
X111760000Y-116205000D01*
X111760000Y-116840000D02*
X111390000Y-116840000D01*
D23*
G36*
X169547658Y-105727266D02*
X169093797Y-106045501D01*
X168567064Y-107306434D01*
X168562965Y-108672956D01*
X169082122Y-109937027D01*
X169093797Y-109954499D01*
X169547660Y-110272735D01*
X171820395Y-108000000D01*
X171806253Y-107985858D01*
X171985858Y-107806253D01*
X172000000Y-107820395D01*
X172014143Y-107806253D01*
X172193748Y-107985858D01*
X172179605Y-108000000D01*
X172193748Y-108014143D01*
X172014143Y-108193748D01*
X172000000Y-108179605D01*
X169727265Y-110452340D01*
X170045501Y-110906203D01*
X171306434Y-111432936D01*
X172672956Y-111437035D01*
X173937027Y-110917878D01*
X173954499Y-110906203D01*
X174272734Y-110452342D01*
X174290000Y-110469608D01*
X174290000Y-113114540D01*
X174274327Y-113076702D01*
X174095699Y-112898073D01*
X173862310Y-112801400D01*
X173005750Y-112801400D01*
X172847000Y-112960150D01*
X172847000Y-114173000D01*
X172867000Y-114173000D01*
X172867000Y-114427000D01*
X172847000Y-114427000D01*
X172847000Y-114447000D01*
X172593000Y-114447000D01*
X172593000Y-114427000D01*
X171227750Y-114427000D01*
X171069000Y-114585750D01*
X171069000Y-114774635D01*
X169604456Y-113310091D01*
X171069000Y-113310091D01*
X171069000Y-114014250D01*
X171227750Y-114173000D01*
X172593000Y-114173000D01*
X172593000Y-112960150D01*
X172434250Y-112801400D01*
X171577690Y-112801400D01*
X171344301Y-112898073D01*
X171165673Y-113076702D01*
X171069000Y-113310091D01*
X169604456Y-113310091D01*
X168877192Y-112582827D01*
X168758223Y-112404777D01*
X164765223Y-108411777D01*
X164394407Y-108164006D01*
X163957000Y-108077000D01*
X149232000Y-108077000D01*
X149209000Y-108081575D01*
X149186000Y-108077000D01*
X148736044Y-108077000D01*
X148634090Y-107918559D01*
X148421890Y-107773569D01*
X148170000Y-107722560D01*
X146470000Y-107722560D01*
X146234683Y-107766838D01*
X146047923Y-107887015D01*
X145881890Y-107773569D01*
X145630000Y-107722560D01*
X143930000Y-107722560D01*
X143694683Y-107766838D01*
X143478559Y-107905910D01*
X143333569Y-108118110D01*
X143282560Y-108370000D01*
X143282560Y-110070000D01*
X143326838Y-110305317D01*
X143465910Y-110521441D01*
X143678110Y-110666431D01*
X143786107Y-110688301D01*
X143508355Y-110993076D01*
X143338524Y-111403110D01*
X143459845Y-111633000D01*
X144653000Y-111633000D01*
X144653000Y-111613000D01*
X144907000Y-111613000D01*
X144907000Y-111633000D01*
X147193000Y-111633000D01*
X147193000Y-111613000D01*
X147447000Y-111613000D01*
X147447000Y-111633000D01*
X148640155Y-111633000D01*
X148761476Y-111403110D01*
X148591645Y-110993076D01*
X148315499Y-110690063D01*
X148405317Y-110673162D01*
X148621441Y-110534090D01*
X148738342Y-110363000D01*
X148954743Y-110363000D01*
X149186000Y-110409000D01*
X149417257Y-110363000D01*
X163483554Y-110363000D01*
X167022808Y-113902254D01*
X167141777Y-114080304D01*
X170709696Y-117648223D01*
X171080512Y-117895994D01*
X171517919Y-117983000D01*
X171577000Y-117983000D01*
X171577000Y-118252567D01*
X171475585Y-118320330D01*
X171150729Y-118806511D01*
X171036655Y-119380000D01*
X171150729Y-119953489D01*
X171475585Y-120439670D01*
X171577000Y-120507433D01*
X171577000Y-120792567D01*
X171475585Y-120860330D01*
X171150729Y-121346511D01*
X171036655Y-121920000D01*
X171150729Y-122493489D01*
X171475585Y-122979670D01*
X171961766Y-123304526D01*
X172535255Y-123418600D01*
X172904745Y-123418600D01*
X173478234Y-123304526D01*
X173964415Y-122979670D01*
X174289271Y-122493489D01*
X174290000Y-122489824D01*
X174290000Y-144530392D01*
X174272734Y-144547658D01*
X173954499Y-144093797D01*
X172847002Y-143631159D01*
X172847002Y-143560820D01*
X173076892Y-143681486D01*
X173601358Y-143435183D01*
X173991645Y-143006924D01*
X174161476Y-142596890D01*
X174040155Y-142367000D01*
X172847000Y-142367000D01*
X172847000Y-142387000D01*
X172593000Y-142387000D01*
X172593000Y-142367000D01*
X172573000Y-142367000D01*
X172573000Y-142113000D01*
X172593000Y-142113000D01*
X172593000Y-139827000D01*
X172847000Y-139827000D01*
X172847000Y-142113000D01*
X174040155Y-142113000D01*
X174161476Y-141883110D01*
X173991645Y-141473076D01*
X173601358Y-141044817D01*
X173442046Y-140970000D01*
X173601358Y-140895183D01*
X173991645Y-140466924D01*
X174161476Y-140056890D01*
X174040155Y-139827000D01*
X172847000Y-139827000D01*
X172593000Y-139827000D01*
X172573000Y-139827000D01*
X172573000Y-139573000D01*
X172593000Y-139573000D01*
X172593000Y-137287000D01*
X172847000Y-137287000D01*
X172847000Y-139573000D01*
X174040155Y-139573000D01*
X174161476Y-139343110D01*
X173991645Y-138933076D01*
X173601358Y-138504817D01*
X173442046Y-138430000D01*
X173601358Y-138355183D01*
X173991645Y-137926924D01*
X174161476Y-137516890D01*
X174040155Y-137287000D01*
X172847000Y-137287000D01*
X172593000Y-137287000D01*
X172573000Y-137287000D01*
X172573000Y-137033000D01*
X172593000Y-137033000D01*
X172593000Y-134747000D01*
X172847000Y-134747000D01*
X172847000Y-137033000D01*
X174040155Y-137033000D01*
X174161476Y-136803110D01*
X173991645Y-136393076D01*
X173601358Y-135964817D01*
X173442046Y-135890000D01*
X173601358Y-135815183D01*
X173991645Y-135386924D01*
X174161476Y-134976890D01*
X174040155Y-134747000D01*
X172847000Y-134747000D01*
X172593000Y-134747000D01*
X172573000Y-134747000D01*
X172573000Y-134493000D01*
X172593000Y-134493000D01*
X172593000Y-133299181D01*
X172847000Y-133299181D01*
X172847000Y-134493000D01*
X174040155Y-134493000D01*
X174161476Y-134263110D01*
X173991645Y-133853076D01*
X173601358Y-133424817D01*
X173076892Y-133178514D01*
X172847000Y-133299181D01*
X172593000Y-133299181D01*
X172363108Y-133178514D01*
X171838642Y-133424817D01*
X171651192Y-133630504D01*
X171633162Y-133534683D01*
X171494090Y-133318559D01*
X171281890Y-133173569D01*
X171069000Y-133130458D01*
X171069000Y-129700693D01*
X171215317Y-129673162D01*
X171431441Y-129534090D01*
X171576431Y-129321890D01*
X171585370Y-129277745D01*
X171851861Y-129277745D01*
X171925995Y-129523864D01*
X172463223Y-129716965D01*
X173033454Y-129689778D01*
X173434005Y-129523864D01*
X173508139Y-129277745D01*
X172680000Y-128449605D01*
X171851861Y-129277745D01*
X171585370Y-129277745D01*
X171624646Y-129083799D01*
X171672255Y-129098139D01*
X172500395Y-128270000D01*
X172859605Y-128270000D01*
X173687745Y-129098139D01*
X173933864Y-129024005D01*
X174126965Y-128486777D01*
X174099778Y-127916546D01*
X173933864Y-127515995D01*
X173687745Y-127441861D01*
X172859605Y-128270000D01*
X172500395Y-128270000D01*
X171672255Y-127441861D01*
X171624833Y-127456145D01*
X171588351Y-127262255D01*
X171851861Y-127262255D01*
X172680000Y-128090395D01*
X173508139Y-127262255D01*
X173434005Y-127016136D01*
X172896777Y-126823035D01*
X172326546Y-126850222D01*
X171925995Y-127016136D01*
X171851861Y-127262255D01*
X171588351Y-127262255D01*
X171583162Y-127234683D01*
X171444090Y-127018559D01*
X171231890Y-126873569D01*
X171069000Y-126840583D01*
X171069000Y-123317000D01*
X171001329Y-122976794D01*
X170808618Y-122688382D01*
X164331618Y-116211382D01*
X164278526Y-116175907D01*
X164043206Y-116018671D01*
X163703000Y-115951000D01*
X148506760Y-115951000D01*
X148399147Y-115789946D01*
X148069974Y-115570000D01*
X148399147Y-115350054D01*
X148721054Y-114868285D01*
X148834093Y-114300000D01*
X148721054Y-113731715D01*
X148399147Y-113249946D01*
X148058447Y-113022298D01*
X148201358Y-112955183D01*
X148591645Y-112526924D01*
X148761476Y-112116890D01*
X148640155Y-111887000D01*
X147447000Y-111887000D01*
X147447000Y-111907000D01*
X147193000Y-111907000D01*
X147193000Y-111887000D01*
X144907000Y-111887000D01*
X144907000Y-111907000D01*
X144653000Y-111907000D01*
X144653000Y-111887000D01*
X143459845Y-111887000D01*
X143338524Y-112116890D01*
X143508355Y-112526924D01*
X143898642Y-112955183D01*
X144041553Y-113022298D01*
X143700853Y-113249946D01*
X143378946Y-113731715D01*
X143265907Y-114300000D01*
X143378946Y-114868285D01*
X143700853Y-115350054D01*
X144030026Y-115570000D01*
X143751356Y-115756201D01*
X134974536Y-106979381D01*
X134912223Y-106937745D01*
X134686124Y-106786670D01*
X134345918Y-106718999D01*
X125540399Y-106718999D01*
X125200193Y-106786670D01*
X124911781Y-106979381D01*
X123187607Y-108703555D01*
X123291961Y-108547378D01*
X123405000Y-107979093D01*
X123405000Y-107920907D01*
X123291961Y-107352622D01*
X122970054Y-106870853D01*
X122488285Y-106548946D01*
X121920000Y-106435907D01*
X121351715Y-106548946D01*
X120869946Y-106870853D01*
X120650000Y-107200026D01*
X120430054Y-106870853D01*
X119948285Y-106548946D01*
X119380000Y-106435907D01*
X118811715Y-106548946D01*
X118329946Y-106870853D01*
X118300597Y-106914777D01*
X118228327Y-106740302D01*
X118049699Y-106561673D01*
X117816310Y-106465000D01*
X117125750Y-106465000D01*
X116967000Y-106623750D01*
X116967000Y-107823000D01*
X116987000Y-107823000D01*
X116987000Y-108077000D01*
X116967000Y-108077000D01*
X116967000Y-109276250D01*
X117125750Y-109435000D01*
X117816310Y-109435000D01*
X118049699Y-109338327D01*
X118228327Y-109159698D01*
X118300597Y-108985223D01*
X118329946Y-109029147D01*
X118378644Y-109061686D01*
X117389630Y-110050700D01*
X114625000Y-110050700D01*
X114338255Y-110107737D01*
X114166149Y-110222735D01*
X114095165Y-110270165D01*
X112139029Y-112226301D01*
X111788161Y-112156509D01*
X112289835Y-111654835D01*
X112452263Y-111411745D01*
X112509300Y-111125000D01*
X112509300Y-109447440D01*
X112610000Y-109447440D01*
X112845317Y-109403162D01*
X113061441Y-109264090D01*
X113206431Y-109051890D01*
X113257440Y-108800000D01*
X113257440Y-108235750D01*
X115355000Y-108235750D01*
X115355000Y-108926309D01*
X115451673Y-109159698D01*
X115630301Y-109338327D01*
X115863690Y-109435000D01*
X116554250Y-109435000D01*
X116713000Y-109276250D01*
X116713000Y-108077000D01*
X115513750Y-108077000D01*
X115355000Y-108235750D01*
X113257440Y-108235750D01*
X113257440Y-107100000D01*
X113233674Y-106973691D01*
X115355000Y-106973691D01*
X115355000Y-107664250D01*
X115513750Y-107823000D01*
X116713000Y-107823000D01*
X116713000Y-106623750D01*
X116554250Y-106465000D01*
X115863690Y-106465000D01*
X115630301Y-106561673D01*
X115451673Y-106740302D01*
X115355000Y-106973691D01*
X113233674Y-106973691D01*
X113213162Y-106864683D01*
X113074090Y-106648559D01*
X112861890Y-106503569D01*
X112610000Y-106452560D01*
X110910000Y-106452560D01*
X110674683Y-106496838D01*
X110458559Y-106635910D01*
X110313569Y-106848110D01*
X110299914Y-106915541D01*
X110270054Y-106870853D01*
X109788285Y-106548946D01*
X109220000Y-106435907D01*
X108651715Y-106548946D01*
X108169946Y-106870853D01*
X107848039Y-107352622D01*
X107735000Y-107920907D01*
X107735000Y-107979093D01*
X107800740Y-108309590D01*
X103914585Y-112195745D01*
X103571715Y-112263946D01*
X103089946Y-112585853D01*
X102768039Y-113067622D01*
X102655000Y-113635907D01*
X102655000Y-113694093D01*
X102768039Y-114262378D01*
X103089946Y-114744147D01*
X103375578Y-114935000D01*
X103089946Y-115125853D01*
X102768039Y-115607622D01*
X102655000Y-116175907D01*
X102655000Y-116234093D01*
X102768039Y-116802378D01*
X103089946Y-117284147D01*
X103571715Y-117606054D01*
X104140000Y-117719093D01*
X104708285Y-117606054D01*
X105190054Y-117284147D01*
X105417702Y-116943447D01*
X105484817Y-117086358D01*
X105913076Y-117476645D01*
X106323110Y-117646476D01*
X106553000Y-117525155D01*
X106553000Y-116332000D01*
X106533000Y-116332000D01*
X106533000Y-116078000D01*
X106553000Y-116078000D01*
X106553000Y-113792000D01*
X106533000Y-113792000D01*
X106533000Y-113538000D01*
X106553000Y-113538000D01*
X106553000Y-112344845D01*
X106323110Y-112223524D01*
X105913076Y-112393355D01*
X105484817Y-112783642D01*
X105417702Y-112926553D01*
X105371806Y-112857864D01*
X108840971Y-109388699D01*
X109220000Y-109464093D01*
X109788285Y-109351054D01*
X110270054Y-109029147D01*
X110297850Y-108987548D01*
X110306838Y-109035317D01*
X110445910Y-109251441D01*
X110658110Y-109396431D01*
X110910000Y-109447440D01*
X111010700Y-109447440D01*
X111010700Y-110814630D01*
X109599029Y-112226301D01*
X109220000Y-112150907D01*
X108651715Y-112263946D01*
X108169946Y-112585853D01*
X107942298Y-112926553D01*
X107875183Y-112783642D01*
X107446924Y-112393355D01*
X107036890Y-112223524D01*
X106807000Y-112344845D01*
X106807000Y-113538000D01*
X106827000Y-113538000D01*
X106827000Y-113792000D01*
X106807000Y-113792000D01*
X106807000Y-116078000D01*
X106827000Y-116078000D01*
X106827000Y-116332000D01*
X106807000Y-116332000D01*
X106807000Y-117525155D01*
X107036890Y-117646476D01*
X107446924Y-117476645D01*
X107875183Y-117086358D01*
X107942298Y-116943447D01*
X108169946Y-117284147D01*
X108651715Y-117606054D01*
X109220000Y-117719093D01*
X109788285Y-117606054D01*
X110270054Y-117284147D01*
X110490000Y-116954974D01*
X110709946Y-117284147D01*
X111191715Y-117606054D01*
X111760000Y-117719093D01*
X112328285Y-117606054D01*
X112810054Y-117284147D01*
X113030000Y-116954974D01*
X113249946Y-117284147D01*
X113731715Y-117606054D01*
X114300000Y-117719093D01*
X114868285Y-117606054D01*
X115350054Y-117284147D01*
X115570000Y-116954974D01*
X115789946Y-117284147D01*
X116090700Y-117485104D01*
X116090700Y-131890000D01*
X116147737Y-132176745D01*
X116310165Y-132419835D01*
X121515409Y-137625079D01*
X121501971Y-137634058D01*
X121351715Y-137663946D01*
X120869946Y-137985853D01*
X120650000Y-138315026D01*
X120430054Y-137985853D01*
X119948285Y-137663946D01*
X119380000Y-137550907D01*
X118811715Y-137663946D01*
X118329946Y-137985853D01*
X118110000Y-138315026D01*
X117890054Y-137985853D01*
X117408285Y-137663946D01*
X116840000Y-137550907D01*
X116271715Y-137663946D01*
X115789946Y-137985853D01*
X115570000Y-138315026D01*
X115350054Y-137985853D01*
X114868285Y-137663946D01*
X114300000Y-137550907D01*
X113731715Y-137663946D01*
X113249946Y-137985853D01*
X113030000Y-138315026D01*
X112810054Y-137985853D01*
X112328285Y-137663946D01*
X111760000Y-137550907D01*
X111191715Y-137663946D01*
X110709946Y-137985853D01*
X110490000Y-138315026D01*
X110270054Y-137985853D01*
X109788285Y-137663946D01*
X109220000Y-137550907D01*
X108651715Y-137663946D01*
X108169946Y-137985853D01*
X107942298Y-138326553D01*
X107875183Y-138183642D01*
X107446924Y-137793355D01*
X107036890Y-137623524D01*
X106807000Y-137744845D01*
X106807000Y-138938000D01*
X106827000Y-138938000D01*
X106827000Y-139192000D01*
X106807000Y-139192000D01*
X106807000Y-141478000D01*
X106827000Y-141478000D01*
X106827000Y-141732000D01*
X106807000Y-141732000D01*
X106807000Y-142925155D01*
X107036890Y-143046476D01*
X107446924Y-142876645D01*
X107875183Y-142486358D01*
X107942298Y-142343447D01*
X108169946Y-142684147D01*
X108651715Y-143006054D01*
X109220000Y-143119093D01*
X109788285Y-143006054D01*
X110270054Y-142684147D01*
X110490000Y-142354974D01*
X110709946Y-142684147D01*
X111191715Y-143006054D01*
X111760000Y-143119093D01*
X112328285Y-143006054D01*
X112810054Y-142684147D01*
X113030000Y-142354974D01*
X113249946Y-142684147D01*
X113731715Y-143006054D01*
X114300000Y-143119093D01*
X114868285Y-143006054D01*
X115350054Y-142684147D01*
X115570000Y-142354974D01*
X115789946Y-142684147D01*
X116271715Y-143006054D01*
X116840000Y-143119093D01*
X117408285Y-143006054D01*
X117890054Y-142684147D01*
X118110000Y-142354974D01*
X118329946Y-142684147D01*
X118811715Y-143006054D01*
X119380000Y-143119093D01*
X119948285Y-143006054D01*
X120430054Y-142684147D01*
X120457850Y-142642548D01*
X120466838Y-142690317D01*
X120605910Y-142906441D01*
X120818110Y-143051431D01*
X121070000Y-143102440D01*
X122770000Y-143102440D01*
X123005317Y-143058162D01*
X123221441Y-142919090D01*
X123366431Y-142706890D01*
X123417440Y-142455000D01*
X123417440Y-141267333D01*
X123535910Y-141451441D01*
X123748110Y-141596431D01*
X124000000Y-141647440D01*
X124887770Y-141647440D01*
X125487292Y-142246962D01*
X125598946Y-142808285D01*
X125920853Y-143290054D01*
X126250026Y-143510000D01*
X125920853Y-143729946D01*
X125598946Y-144211715D01*
X125485907Y-144780000D01*
X125598946Y-145348285D01*
X125920853Y-145830054D01*
X126402622Y-146151961D01*
X126970907Y-146265000D01*
X127029093Y-146265000D01*
X127597378Y-146151961D01*
X128079147Y-145830054D01*
X128270000Y-145544422D01*
X128460853Y-145830054D01*
X128942622Y-146151961D01*
X129510907Y-146265000D01*
X129569093Y-146265000D01*
X130137378Y-146151961D01*
X130619147Y-145830054D01*
X130941054Y-145348285D01*
X131054093Y-144780000D01*
X130941054Y-144211715D01*
X130619147Y-143729946D01*
X130289974Y-143510000D01*
X130619147Y-143290054D01*
X130941054Y-142808285D01*
X131054093Y-142240000D01*
X130941054Y-141671715D01*
X130619147Y-141189946D01*
X130289974Y-140970000D01*
X130619147Y-140750054D01*
X130941054Y-140268285D01*
X131054093Y-139700000D01*
X130941054Y-139131715D01*
X130619147Y-138649946D01*
X130289974Y-138430000D01*
X130619147Y-138210054D01*
X130941054Y-137728285D01*
X131054093Y-137160000D01*
X130941054Y-136591715D01*
X130619147Y-136109946D01*
X130289974Y-135890000D01*
X130619147Y-135670054D01*
X130941054Y-135188285D01*
X131054093Y-134620000D01*
X130941054Y-134051715D01*
X130619147Y-133569946D01*
X130289974Y-133350000D01*
X130619147Y-133130054D01*
X130941054Y-132648285D01*
X131054093Y-132080000D01*
X130941054Y-131511715D01*
X130619147Y-131029946D01*
X130289974Y-130810000D01*
X130619147Y-130590054D01*
X130941054Y-130108285D01*
X131054093Y-129540000D01*
X130941054Y-128971715D01*
X130619147Y-128489946D01*
X130289974Y-128270000D01*
X130619147Y-128050054D01*
X130941054Y-127568285D01*
X131054093Y-127000000D01*
X130941054Y-126431715D01*
X130619147Y-125949946D01*
X130289974Y-125730000D01*
X130619147Y-125510054D01*
X130941054Y-125028285D01*
X131054093Y-124460000D01*
X130941054Y-123891715D01*
X130619147Y-123409946D01*
X130289974Y-123190000D01*
X130619147Y-122970054D01*
X130941054Y-122488285D01*
X131048491Y-121948161D01*
X131550700Y-122450370D01*
X131550700Y-140000000D01*
X131607737Y-140286745D01*
X131770165Y-140529835D01*
X139070165Y-147829835D01*
X139313255Y-147992263D01*
X139600000Y-148049300D01*
X149100000Y-148049300D01*
X149386745Y-147992263D01*
X149629835Y-147829835D01*
X151659835Y-145799835D01*
X151822264Y-145556744D01*
X151879300Y-145270000D01*
X151879300Y-142180816D01*
X152172811Y-141984698D01*
X152483880Y-141519151D01*
X152593113Y-140970000D01*
X152483880Y-140420849D01*
X152172811Y-139955302D01*
X151707264Y-139644233D01*
X151158113Y-139535000D01*
X151101887Y-139535000D01*
X150552736Y-139644233D01*
X150087189Y-139955302D01*
X149776120Y-140420849D01*
X149666887Y-140970000D01*
X149776120Y-141519151D01*
X150087189Y-141984698D01*
X150380700Y-142180816D01*
X150380700Y-144959630D01*
X148789630Y-146550700D01*
X139910370Y-146550700D01*
X133049300Y-139689630D01*
X133049300Y-122140000D01*
X132992263Y-121853255D01*
X132829835Y-121610165D01*
X130978699Y-119759029D01*
X131054093Y-119380000D01*
X130941054Y-118811715D01*
X130619147Y-118329946D01*
X130278447Y-118102298D01*
X130421358Y-118035183D01*
X130811645Y-117606924D01*
X130981476Y-117196890D01*
X130860155Y-116967000D01*
X129667000Y-116967000D01*
X129667000Y-116987000D01*
X129413000Y-116987000D01*
X129413000Y-116967000D01*
X127127000Y-116967000D01*
X127127000Y-116987000D01*
X126873000Y-116987000D01*
X126873000Y-116967000D01*
X125679845Y-116967000D01*
X125558524Y-117196890D01*
X125728355Y-117606924D01*
X126118642Y-118035183D01*
X126261553Y-118102298D01*
X125920853Y-118329946D01*
X125598946Y-118811715D01*
X125485907Y-119380000D01*
X125598946Y-119948285D01*
X125920853Y-120430054D01*
X126250026Y-120650000D01*
X125920853Y-120869946D01*
X125598946Y-121351715D01*
X125485907Y-121920000D01*
X125598946Y-122488285D01*
X125920853Y-122970054D01*
X126250026Y-123190000D01*
X125920853Y-123409946D01*
X125598946Y-123891715D01*
X125485907Y-124460000D01*
X125598946Y-125028285D01*
X125920853Y-125510054D01*
X126250026Y-125730000D01*
X125920853Y-125949946D01*
X125598946Y-126431715D01*
X125485907Y-127000000D01*
X125598946Y-127568285D01*
X125920853Y-128050054D01*
X126250026Y-128270000D01*
X125920853Y-128489946D01*
X125598946Y-128971715D01*
X125485907Y-129540000D01*
X125598946Y-130108285D01*
X125920853Y-130590054D01*
X126250026Y-130810000D01*
X125920853Y-131029946D01*
X125598946Y-131511715D01*
X125485907Y-132080000D01*
X125598946Y-132648285D01*
X125920853Y-133130054D01*
X126250026Y-133350000D01*
X125920853Y-133569946D01*
X125598946Y-134051715D01*
X125485907Y-134620000D01*
X125598946Y-135188285D01*
X125920853Y-135670054D01*
X126250026Y-135890000D01*
X125920853Y-136109946D01*
X125762255Y-136347305D01*
X125551890Y-136203569D01*
X125300000Y-136152560D01*
X124000000Y-136152560D01*
X123764683Y-136196838D01*
X123590191Y-136309121D01*
X120129300Y-132848230D01*
X120129300Y-117485104D01*
X120430054Y-117284147D01*
X120457850Y-117242548D01*
X120466838Y-117290317D01*
X120605910Y-117506441D01*
X120818110Y-117651431D01*
X121070000Y-117702440D01*
X122770000Y-117702440D01*
X123005317Y-117658162D01*
X123221441Y-117519090D01*
X123366431Y-117306890D01*
X123417440Y-117055000D01*
X123417440Y-115355000D01*
X123373162Y-115119683D01*
X123252985Y-114932923D01*
X123366431Y-114766890D01*
X123417440Y-114515000D01*
X123417440Y-114433528D01*
X123444000Y-114300000D01*
X123417440Y-114166472D01*
X123417440Y-112815000D01*
X123373162Y-112579683D01*
X123234090Y-112363559D01*
X123021890Y-112218569D01*
X122809000Y-112175458D01*
X122809000Y-111596634D01*
X125502560Y-108903074D01*
X125502560Y-110070000D01*
X125546838Y-110305317D01*
X125685910Y-110521441D01*
X125898110Y-110666431D01*
X125965541Y-110680086D01*
X125920853Y-110709946D01*
X125598946Y-111191715D01*
X125485907Y-111760000D01*
X125598946Y-112328285D01*
X125920853Y-112810054D01*
X126250026Y-113030000D01*
X125920853Y-113249946D01*
X125598946Y-113731715D01*
X125485907Y-114300000D01*
X125598946Y-114868285D01*
X125920853Y-115350054D01*
X126261553Y-115577702D01*
X126118642Y-115644817D01*
X125728355Y-116073076D01*
X125558524Y-116483110D01*
X125679845Y-116713000D01*
X126873000Y-116713000D01*
X126873000Y-116693000D01*
X127127000Y-116693000D01*
X127127000Y-116713000D01*
X129413000Y-116713000D01*
X129413000Y-116693000D01*
X129667000Y-116693000D01*
X129667000Y-116713000D01*
X130860155Y-116713000D01*
X130981476Y-116483110D01*
X130811645Y-116073076D01*
X130421358Y-115644817D01*
X130278447Y-115577702D01*
X130619147Y-115350054D01*
X130941054Y-114868285D01*
X131054093Y-114300000D01*
X130941054Y-113731715D01*
X130619147Y-113249946D01*
X130289974Y-113030000D01*
X130619147Y-112810054D01*
X130941054Y-112328285D01*
X131054093Y-111760000D01*
X130941054Y-111191715D01*
X130619147Y-110709946D01*
X130577548Y-110682150D01*
X130625317Y-110673162D01*
X130841441Y-110534090D01*
X130986431Y-110321890D01*
X131037440Y-110070000D01*
X131037440Y-108496999D01*
X133977682Y-108496999D01*
X142949301Y-117468618D01*
X143237713Y-117661329D01*
X143577919Y-117729000D01*
X143593240Y-117729000D01*
X143700853Y-117890054D01*
X144030026Y-118110000D01*
X143700853Y-118329946D01*
X143378946Y-118811715D01*
X143265907Y-119380000D01*
X143378946Y-119948285D01*
X143700853Y-120430054D01*
X144030026Y-120650000D01*
X143700853Y-120869946D01*
X143378946Y-121351715D01*
X143265907Y-121920000D01*
X143378946Y-122488285D01*
X143700853Y-122970054D01*
X144030026Y-123190000D01*
X143700853Y-123409946D01*
X143378946Y-123891715D01*
X143265907Y-124460000D01*
X143378946Y-125028285D01*
X143700853Y-125510054D01*
X144030026Y-125730000D01*
X143700853Y-125949946D01*
X143378946Y-126431715D01*
X143265907Y-127000000D01*
X143378946Y-127568285D01*
X143700853Y-128050054D01*
X144030026Y-128270000D01*
X143700853Y-128489946D01*
X143378946Y-128971715D01*
X143265907Y-129540000D01*
X143378946Y-130108285D01*
X143700853Y-130590054D01*
X144030026Y-130810000D01*
X143700853Y-131029946D01*
X143378946Y-131511715D01*
X143265907Y-132080000D01*
X143378946Y-132648285D01*
X143700853Y-133130054D01*
X144030026Y-133350000D01*
X143700853Y-133569946D01*
X143378946Y-134051715D01*
X143265907Y-134620000D01*
X143378946Y-135188285D01*
X143700853Y-135670054D01*
X144030026Y-135890000D01*
X143700853Y-136109946D01*
X143378946Y-136591715D01*
X143265907Y-137160000D01*
X143378946Y-137728285D01*
X143700853Y-138210054D01*
X144030026Y-138430000D01*
X143700853Y-138649946D01*
X143378946Y-139131715D01*
X143265907Y-139700000D01*
X143378946Y-140268285D01*
X143700853Y-140750054D01*
X144030026Y-140970000D01*
X143700853Y-141189946D01*
X143378946Y-141671715D01*
X143265907Y-142240000D01*
X143378946Y-142808285D01*
X143700853Y-143290054D01*
X144030026Y-143510000D01*
X143700853Y-143729946D01*
X143378946Y-144211715D01*
X143265907Y-144780000D01*
X143378946Y-145348285D01*
X143700853Y-145830054D01*
X144182622Y-146151961D01*
X144750907Y-146265000D01*
X144809093Y-146265000D01*
X145377378Y-146151961D01*
X145859147Y-145830054D01*
X146050000Y-145544422D01*
X146240853Y-145830054D01*
X146722622Y-146151961D01*
X147290907Y-146265000D01*
X147349093Y-146265000D01*
X147917378Y-146151961D01*
X148399147Y-145830054D01*
X148721054Y-145348285D01*
X148834093Y-144780000D01*
X148721054Y-144211715D01*
X148399147Y-143729946D01*
X148069974Y-143510000D01*
X148399147Y-143290054D01*
X148721054Y-142808285D01*
X148834093Y-142240000D01*
X148721054Y-141671715D01*
X148399147Y-141189946D01*
X148069974Y-140970000D01*
X148399147Y-140750054D01*
X148721054Y-140268285D01*
X148834093Y-139700000D01*
X148721054Y-139131715D01*
X148399147Y-138649946D01*
X148069974Y-138430000D01*
X148399147Y-138210054D01*
X148721054Y-137728285D01*
X148834093Y-137160000D01*
X148721054Y-136591715D01*
X148399147Y-136109946D01*
X148069974Y-135890000D01*
X148399147Y-135670054D01*
X148721054Y-135188285D01*
X148834093Y-134620000D01*
X148721054Y-134051715D01*
X148399147Y-133569946D01*
X148069974Y-133350000D01*
X148399147Y-133130054D01*
X148721054Y-132648285D01*
X148834093Y-132080000D01*
X148721054Y-131511715D01*
X148399147Y-131029946D01*
X148069974Y-130810000D01*
X148399147Y-130590054D01*
X148721054Y-130108285D01*
X148834093Y-129540000D01*
X148721054Y-128971715D01*
X148399147Y-128489946D01*
X148069974Y-128270000D01*
X148399147Y-128050054D01*
X148600104Y-127749300D01*
X149849896Y-127749300D01*
X150050853Y-128050054D01*
X150380026Y-128270000D01*
X150050853Y-128489946D01*
X149728946Y-128971715D01*
X149615907Y-129540000D01*
X149728946Y-130108285D01*
X150050853Y-130590054D01*
X150380026Y-130810000D01*
X150050853Y-131029946D01*
X149728946Y-131511715D01*
X149615907Y-132080000D01*
X149728946Y-132648285D01*
X150050853Y-133130054D01*
X150380026Y-133350000D01*
X150050853Y-133569946D01*
X149728946Y-134051715D01*
X149615907Y-134620000D01*
X149728946Y-135188285D01*
X150050853Y-135670054D01*
X150380026Y-135890000D01*
X150050853Y-136109946D01*
X149728946Y-136591715D01*
X149615907Y-137160000D01*
X149728946Y-137728285D01*
X150050853Y-138210054D01*
X150532622Y-138531961D01*
X151100907Y-138645000D01*
X151159093Y-138645000D01*
X151727378Y-138531961D01*
X152209147Y-138210054D01*
X152410104Y-137909300D01*
X157169630Y-137909300D01*
X159881184Y-140620854D01*
X159855250Y-140683309D01*
X159854752Y-141254187D01*
X160072757Y-141781800D01*
X160476077Y-142185824D01*
X161003309Y-142404750D01*
X161574187Y-142405248D01*
X162101800Y-142187243D01*
X162505824Y-141783923D01*
X162724750Y-141256691D01*
X162725248Y-140685813D01*
X162507243Y-140158200D01*
X162103923Y-139754176D01*
X161576691Y-139535250D01*
X161005813Y-139534752D01*
X160941143Y-139561473D01*
X158009835Y-136630165D01*
X157766745Y-136467737D01*
X157480000Y-136410700D01*
X152410104Y-136410700D01*
X152209147Y-136109946D01*
X151879974Y-135890000D01*
X152209147Y-135670054D01*
X152531054Y-135188285D01*
X152644093Y-134620000D01*
X152531054Y-134051715D01*
X152209147Y-133569946D01*
X151879974Y-133350000D01*
X152209147Y-133130054D01*
X152531054Y-132648285D01*
X152644093Y-132080000D01*
X152531054Y-131511715D01*
X152209147Y-131029946D01*
X151879974Y-130810000D01*
X152209147Y-130590054D01*
X152531054Y-130108285D01*
X152644093Y-129540000D01*
X152531054Y-128971715D01*
X152209147Y-128489946D01*
X151879974Y-128270000D01*
X152209147Y-128050054D01*
X152531054Y-127568285D01*
X152644093Y-127000000D01*
X152531054Y-126431715D01*
X152209147Y-125949946D01*
X151879974Y-125730000D01*
X152209147Y-125510054D01*
X152531054Y-125028285D01*
X152644093Y-124460000D01*
X152531054Y-123891715D01*
X152209147Y-123409946D01*
X151868447Y-123182298D01*
X152011358Y-123115183D01*
X152401645Y-122686924D01*
X152571476Y-122276890D01*
X152450155Y-122047000D01*
X151257000Y-122047000D01*
X151257000Y-122067000D01*
X151003000Y-122067000D01*
X151003000Y-122047000D01*
X149809845Y-122047000D01*
X149688524Y-122276890D01*
X149858355Y-122686924D01*
X150248642Y-123115183D01*
X150391553Y-123182298D01*
X150050853Y-123409946D01*
X149849896Y-123710700D01*
X148600104Y-123710700D01*
X148399147Y-123409946D01*
X148069974Y-123190000D01*
X148399147Y-122970054D01*
X148721054Y-122488285D01*
X148834093Y-121920000D01*
X148721054Y-121351715D01*
X148399147Y-120869946D01*
X148069974Y-120650000D01*
X148399147Y-120430054D01*
X148721054Y-119948285D01*
X148834093Y-119380000D01*
X148721054Y-118811715D01*
X148399147Y-118329946D01*
X148069974Y-118110000D01*
X148399147Y-117890054D01*
X148506760Y-117729000D01*
X163334764Y-117729000D01*
X169291000Y-123685236D01*
X169291000Y-126839307D01*
X169144683Y-126866838D01*
X168928559Y-127005910D01*
X168783569Y-127218110D01*
X168750583Y-127381000D01*
X168638236Y-127381000D01*
X166789000Y-125531764D01*
X166789000Y-122682000D01*
X166721329Y-122341794D01*
X166528618Y-122053382D01*
X163226618Y-118751382D01*
X162938206Y-118558671D01*
X162598000Y-118491000D01*
X152620102Y-118491000D01*
X152583162Y-118294683D01*
X152444090Y-118078559D01*
X152231890Y-117933569D01*
X151980000Y-117882560D01*
X150280000Y-117882560D01*
X150044683Y-117926838D01*
X149828559Y-118065910D01*
X149683569Y-118278110D01*
X149632560Y-118530000D01*
X149632560Y-120230000D01*
X149676838Y-120465317D01*
X149815910Y-120681441D01*
X150028110Y-120826431D01*
X150136107Y-120848301D01*
X149858355Y-121153076D01*
X149688524Y-121563110D01*
X149809845Y-121793000D01*
X151003000Y-121793000D01*
X151003000Y-121773000D01*
X151257000Y-121773000D01*
X151257000Y-121793000D01*
X152450155Y-121793000D01*
X152571476Y-121563110D01*
X152401645Y-121153076D01*
X152125499Y-120850063D01*
X152215317Y-120833162D01*
X152431441Y-120694090D01*
X152576431Y-120481890D01*
X152619542Y-120269000D01*
X162229764Y-120269000D01*
X165011000Y-123050236D01*
X165011000Y-125900000D01*
X165078671Y-126240206D01*
X165232325Y-126470165D01*
X165271382Y-126528618D01*
X167641382Y-128898618D01*
X167929794Y-129091329D01*
X168270000Y-129159000D01*
X168749307Y-129159000D01*
X168776838Y-129305317D01*
X168915910Y-129521441D01*
X169128110Y-129666431D01*
X169291000Y-129699417D01*
X169291000Y-133129898D01*
X169094683Y-133166838D01*
X168878559Y-133305910D01*
X168733569Y-133518110D01*
X168682560Y-133770000D01*
X168682560Y-135470000D01*
X168726838Y-135705317D01*
X168865910Y-135921441D01*
X169078110Y-136066431D01*
X169145541Y-136080086D01*
X169100853Y-136109946D01*
X168778946Y-136591715D01*
X168665907Y-137160000D01*
X168778946Y-137728285D01*
X169100853Y-138210054D01*
X169291000Y-138337106D01*
X169291000Y-138522894D01*
X169100853Y-138649946D01*
X168778946Y-139131715D01*
X168665907Y-139700000D01*
X168778946Y-140268285D01*
X169100853Y-140750054D01*
X169291000Y-140877106D01*
X169291000Y-141062894D01*
X169100853Y-141189946D01*
X168778946Y-141671715D01*
X168665907Y-142240000D01*
X168778946Y-142808285D01*
X169100853Y-143290054D01*
X169582622Y-143611961D01*
X170150907Y-143725000D01*
X170209093Y-143725000D01*
X170777378Y-143611961D01*
X171259147Y-143290054D01*
X171448345Y-143006899D01*
X171448355Y-143006924D01*
X171838642Y-143435183D01*
X172115773Y-143565331D01*
X171327044Y-143562965D01*
X170062973Y-144082122D01*
X170045501Y-144093797D01*
X169727265Y-144547660D01*
X172000000Y-146820395D01*
X172014143Y-146806253D01*
X172193748Y-146985858D01*
X172179605Y-147000000D01*
X172193748Y-147014143D01*
X172014143Y-147193748D01*
X172000000Y-147179605D01*
X171985858Y-147193748D01*
X171806253Y-147014143D01*
X171820395Y-147000000D01*
X169547660Y-144727265D01*
X169093797Y-145045501D01*
X168567064Y-146306434D01*
X168562965Y-147672956D01*
X169082122Y-148937027D01*
X169093797Y-148954499D01*
X169547658Y-149272734D01*
X169530392Y-149290000D01*
X105469608Y-149290000D01*
X105452342Y-149272734D01*
X105906203Y-148954499D01*
X106432936Y-147693566D01*
X106437035Y-146327044D01*
X105917878Y-145062973D01*
X105906203Y-145045501D01*
X105452340Y-144727265D01*
X103179605Y-147000000D01*
X103193748Y-147014143D01*
X103014143Y-147193748D01*
X103000000Y-147179605D01*
X102985858Y-147193748D01*
X102806253Y-147014143D01*
X102820395Y-147000000D01*
X102806253Y-146985858D01*
X102985858Y-146806253D01*
X103000000Y-146820395D01*
X105272735Y-144547660D01*
X104954499Y-144093797D01*
X103693566Y-143567064D01*
X102327044Y-143562965D01*
X101062973Y-144082122D01*
X101045501Y-144093797D01*
X100727266Y-144547658D01*
X100710000Y-144530392D01*
X100710000Y-139035907D01*
X102655000Y-139035907D01*
X102655000Y-139094093D01*
X102768039Y-139662378D01*
X103089946Y-140144147D01*
X103375578Y-140335000D01*
X103089946Y-140525853D01*
X102768039Y-141007622D01*
X102655000Y-141575907D01*
X102655000Y-141634093D01*
X102768039Y-142202378D01*
X103089946Y-142684147D01*
X103571715Y-143006054D01*
X104140000Y-143119093D01*
X104708285Y-143006054D01*
X105190054Y-142684147D01*
X105417702Y-142343447D01*
X105484817Y-142486358D01*
X105913076Y-142876645D01*
X106323110Y-143046476D01*
X106553000Y-142925155D01*
X106553000Y-141732000D01*
X106533000Y-141732000D01*
X106533000Y-141478000D01*
X106553000Y-141478000D01*
X106553000Y-139192000D01*
X106533000Y-139192000D01*
X106533000Y-138938000D01*
X106553000Y-138938000D01*
X106553000Y-137744845D01*
X106323110Y-137623524D01*
X105913076Y-137793355D01*
X105484817Y-138183642D01*
X105417702Y-138326553D01*
X105190054Y-137985853D01*
X104708285Y-137663946D01*
X104140000Y-137550907D01*
X103571715Y-137663946D01*
X103089946Y-137985853D01*
X102768039Y-138467622D01*
X102655000Y-139035907D01*
X100710000Y-139035907D01*
X100710000Y-110563121D01*
X100915501Y-110856203D01*
X102176434Y-111382936D01*
X103542956Y-111387035D01*
X104807027Y-110867878D01*
X104824499Y-110856203D01*
X105142735Y-110402340D01*
X102870000Y-108129605D01*
X102855858Y-108143748D01*
X102676253Y-107964143D01*
X102690395Y-107950000D01*
X102676253Y-107935858D01*
X102855858Y-107756253D01*
X102870000Y-107770395D01*
X102884143Y-107756253D01*
X103063748Y-107935858D01*
X103049605Y-107950000D01*
X105322340Y-110222735D01*
X105776203Y-109904499D01*
X106302936Y-108643566D01*
X106307035Y-107277044D01*
X105787878Y-106012973D01*
X105776203Y-105995501D01*
X105369026Y-105710000D01*
X169530392Y-105710000D01*
X169547658Y-105727266D01*
X169547658Y-105727266D01*
G37*
X169547658Y-105727266D02*
X169093797Y-106045501D01*
X168567064Y-107306434D01*
X168562965Y-108672956D01*
X169082122Y-109937027D01*
X169093797Y-109954499D01*
X169547660Y-110272735D01*
X171820395Y-108000000D01*
X171806253Y-107985858D01*
X171985858Y-107806253D01*
X172000000Y-107820395D01*
X172014143Y-107806253D01*
X172193748Y-107985858D01*
X172179605Y-108000000D01*
X172193748Y-108014143D01*
X172014143Y-108193748D01*
X172000000Y-108179605D01*
X169727265Y-110452340D01*
X170045501Y-110906203D01*
X171306434Y-111432936D01*
X172672956Y-111437035D01*
X173937027Y-110917878D01*
X173954499Y-110906203D01*
X174272734Y-110452342D01*
X174290000Y-110469608D01*
X174290000Y-113114540D01*
X174274327Y-113076702D01*
X174095699Y-112898073D01*
X173862310Y-112801400D01*
X173005750Y-112801400D01*
X172847000Y-112960150D01*
X172847000Y-114173000D01*
X172867000Y-114173000D01*
X172867000Y-114427000D01*
X172847000Y-114427000D01*
X172847000Y-114447000D01*
X172593000Y-114447000D01*
X172593000Y-114427000D01*
X171227750Y-114427000D01*
X171069000Y-114585750D01*
X171069000Y-114774635D01*
X169604456Y-113310091D01*
X171069000Y-113310091D01*
X171069000Y-114014250D01*
X171227750Y-114173000D01*
X172593000Y-114173000D01*
X172593000Y-112960150D01*
X172434250Y-112801400D01*
X171577690Y-112801400D01*
X171344301Y-112898073D01*
X171165673Y-113076702D01*
X171069000Y-113310091D01*
X169604456Y-113310091D01*
X168877192Y-112582827D01*
X168758223Y-112404777D01*
X164765223Y-108411777D01*
X164394407Y-108164006D01*
X163957000Y-108077000D01*
X149232000Y-108077000D01*
X149209000Y-108081575D01*
X149186000Y-108077000D01*
X148736044Y-108077000D01*
X148634090Y-107918559D01*
X148421890Y-107773569D01*
X148170000Y-107722560D01*
X146470000Y-107722560D01*
X146234683Y-107766838D01*
X146047923Y-107887015D01*
X145881890Y-107773569D01*
X145630000Y-107722560D01*
X143930000Y-107722560D01*
X143694683Y-107766838D01*
X143478559Y-107905910D01*
X143333569Y-108118110D01*
X143282560Y-108370000D01*
X143282560Y-110070000D01*
X143326838Y-110305317D01*
X143465910Y-110521441D01*
X143678110Y-110666431D01*
X143786107Y-110688301D01*
X143508355Y-110993076D01*
X143338524Y-111403110D01*
X143459845Y-111633000D01*
X144653000Y-111633000D01*
X144653000Y-111613000D01*
X144907000Y-111613000D01*
X144907000Y-111633000D01*
X147193000Y-111633000D01*
X147193000Y-111613000D01*
X147447000Y-111613000D01*
X147447000Y-111633000D01*
X148640155Y-111633000D01*
X148761476Y-111403110D01*
X148591645Y-110993076D01*
X148315499Y-110690063D01*
X148405317Y-110673162D01*
X148621441Y-110534090D01*
X148738342Y-110363000D01*
X148954743Y-110363000D01*
X149186000Y-110409000D01*
X149417257Y-110363000D01*
X163483554Y-110363000D01*
X167022808Y-113902254D01*
X167141777Y-114080304D01*
X170709696Y-117648223D01*
X171080512Y-117895994D01*
X171517919Y-117983000D01*
X171577000Y-117983000D01*
X171577000Y-118252567D01*
X171475585Y-118320330D01*
X171150729Y-118806511D01*
X171036655Y-119380000D01*
X171150729Y-119953489D01*
X171475585Y-120439670D01*
X171577000Y-120507433D01*
X171577000Y-120792567D01*
X171475585Y-120860330D01*
X171150729Y-121346511D01*
X171036655Y-121920000D01*
X171150729Y-122493489D01*
X171475585Y-122979670D01*
X171961766Y-123304526D01*
X172535255Y-123418600D01*
X172904745Y-123418600D01*
X173478234Y-123304526D01*
X173964415Y-122979670D01*
X174289271Y-122493489D01*
X174290000Y-122489824D01*
X174290000Y-144530392D01*
X174272734Y-144547658D01*
X173954499Y-144093797D01*
X172847002Y-143631159D01*
X172847002Y-143560820D01*
X173076892Y-143681486D01*
X173601358Y-143435183D01*
X173991645Y-143006924D01*
X174161476Y-142596890D01*
X174040155Y-142367000D01*
X172847000Y-142367000D01*
X172847000Y-142387000D01*
X172593000Y-142387000D01*
X172593000Y-142367000D01*
X172573000Y-142367000D01*
X172573000Y-142113000D01*
X172593000Y-142113000D01*
X172593000Y-139827000D01*
X172847000Y-139827000D01*
X172847000Y-142113000D01*
X174040155Y-142113000D01*
X174161476Y-141883110D01*
X173991645Y-141473076D01*
X173601358Y-141044817D01*
X173442046Y-140970000D01*
X173601358Y-140895183D01*
X173991645Y-140466924D01*
X174161476Y-140056890D01*
X174040155Y-139827000D01*
X172847000Y-139827000D01*
X172593000Y-139827000D01*
X172573000Y-139827000D01*
X172573000Y-139573000D01*
X172593000Y-139573000D01*
X172593000Y-137287000D01*
X172847000Y-137287000D01*
X172847000Y-139573000D01*
X174040155Y-139573000D01*
X174161476Y-139343110D01*
X173991645Y-138933076D01*
X173601358Y-138504817D01*
X173442046Y-138430000D01*
X173601358Y-138355183D01*
X173991645Y-137926924D01*
X174161476Y-137516890D01*
X174040155Y-137287000D01*
X172847000Y-137287000D01*
X172593000Y-137287000D01*
X172573000Y-137287000D01*
X172573000Y-137033000D01*
X172593000Y-137033000D01*
X172593000Y-134747000D01*
X172847000Y-134747000D01*
X172847000Y-137033000D01*
X174040155Y-137033000D01*
X174161476Y-136803110D01*
X173991645Y-136393076D01*
X173601358Y-135964817D01*
X173442046Y-135890000D01*
X173601358Y-135815183D01*
X173991645Y-135386924D01*
X174161476Y-134976890D01*
X174040155Y-134747000D01*
X172847000Y-134747000D01*
X172593000Y-134747000D01*
X172573000Y-134747000D01*
X172573000Y-134493000D01*
X172593000Y-134493000D01*
X172593000Y-133299181D01*
X172847000Y-133299181D01*
X172847000Y-134493000D01*
X174040155Y-134493000D01*
X174161476Y-134263110D01*
X173991645Y-133853076D01*
X173601358Y-133424817D01*
X173076892Y-133178514D01*
X172847000Y-133299181D01*
X172593000Y-133299181D01*
X172363108Y-133178514D01*
X171838642Y-133424817D01*
X171651192Y-133630504D01*
X171633162Y-133534683D01*
X171494090Y-133318559D01*
X171281890Y-133173569D01*
X171069000Y-133130458D01*
X171069000Y-129700693D01*
X171215317Y-129673162D01*
X171431441Y-129534090D01*
X171576431Y-129321890D01*
X171585370Y-129277745D01*
X171851861Y-129277745D01*
X171925995Y-129523864D01*
X172463223Y-129716965D01*
X173033454Y-129689778D01*
X173434005Y-129523864D01*
X173508139Y-129277745D01*
X172680000Y-128449605D01*
X171851861Y-129277745D01*
X171585370Y-129277745D01*
X171624646Y-129083799D01*
X171672255Y-129098139D01*
X172500395Y-128270000D01*
X172859605Y-128270000D01*
X173687745Y-129098139D01*
X173933864Y-129024005D01*
X174126965Y-128486777D01*
X174099778Y-127916546D01*
X173933864Y-127515995D01*
X173687745Y-127441861D01*
X172859605Y-128270000D01*
X172500395Y-128270000D01*
X171672255Y-127441861D01*
X171624833Y-127456145D01*
X171588351Y-127262255D01*
X171851861Y-127262255D01*
X172680000Y-128090395D01*
X173508139Y-127262255D01*
X173434005Y-127016136D01*
X172896777Y-126823035D01*
X172326546Y-126850222D01*
X171925995Y-127016136D01*
X171851861Y-127262255D01*
X171588351Y-127262255D01*
X171583162Y-127234683D01*
X171444090Y-127018559D01*
X171231890Y-126873569D01*
X171069000Y-126840583D01*
X171069000Y-123317000D01*
X171001329Y-122976794D01*
X170808618Y-122688382D01*
X164331618Y-116211382D01*
X164278526Y-116175907D01*
X164043206Y-116018671D01*
X163703000Y-115951000D01*
X148506760Y-115951000D01*
X148399147Y-115789946D01*
X148069974Y-115570000D01*
X148399147Y-115350054D01*
X148721054Y-114868285D01*
X148834093Y-114300000D01*
X148721054Y-113731715D01*
X148399147Y-113249946D01*
X148058447Y-113022298D01*
X148201358Y-112955183D01*
X148591645Y-112526924D01*
X148761476Y-112116890D01*
X148640155Y-111887000D01*
X147447000Y-111887000D01*
X147447000Y-111907000D01*
X147193000Y-111907000D01*
X147193000Y-111887000D01*
X144907000Y-111887000D01*
X144907000Y-111907000D01*
X144653000Y-111907000D01*
X144653000Y-111887000D01*
X143459845Y-111887000D01*
X143338524Y-112116890D01*
X143508355Y-112526924D01*
X143898642Y-112955183D01*
X144041553Y-113022298D01*
X143700853Y-113249946D01*
X143378946Y-113731715D01*
X143265907Y-114300000D01*
X143378946Y-114868285D01*
X143700853Y-115350054D01*
X144030026Y-115570000D01*
X143751356Y-115756201D01*
X134974536Y-106979381D01*
X134912223Y-106937745D01*
X134686124Y-106786670D01*
X134345918Y-106718999D01*
X125540399Y-106718999D01*
X125200193Y-106786670D01*
X124911781Y-106979381D01*
X123187607Y-108703555D01*
X123291961Y-108547378D01*
X123405000Y-107979093D01*
X123405000Y-107920907D01*
X123291961Y-107352622D01*
X122970054Y-106870853D01*
X122488285Y-106548946D01*
X121920000Y-106435907D01*
X121351715Y-106548946D01*
X120869946Y-106870853D01*
X120650000Y-107200026D01*
X120430054Y-106870853D01*
X119948285Y-106548946D01*
X119380000Y-106435907D01*
X118811715Y-106548946D01*
X118329946Y-106870853D01*
X118300597Y-106914777D01*
X118228327Y-106740302D01*
X118049699Y-106561673D01*
X117816310Y-106465000D01*
X117125750Y-106465000D01*
X116967000Y-106623750D01*
X116967000Y-107823000D01*
X116987000Y-107823000D01*
X116987000Y-108077000D01*
X116967000Y-108077000D01*
X116967000Y-109276250D01*
X117125750Y-109435000D01*
X117816310Y-109435000D01*
X118049699Y-109338327D01*
X118228327Y-109159698D01*
X118300597Y-108985223D01*
X118329946Y-109029147D01*
X118378644Y-109061686D01*
X117389630Y-110050700D01*
X114625000Y-110050700D01*
X114338255Y-110107737D01*
X114166149Y-110222735D01*
X114095165Y-110270165D01*
X112139029Y-112226301D01*
X111788161Y-112156509D01*
X112289835Y-111654835D01*
X112452263Y-111411745D01*
X112509300Y-111125000D01*
X112509300Y-109447440D01*
X112610000Y-109447440D01*
X112845317Y-109403162D01*
X113061441Y-109264090D01*
X113206431Y-109051890D01*
X113257440Y-108800000D01*
X113257440Y-108235750D01*
X115355000Y-108235750D01*
X115355000Y-108926309D01*
X115451673Y-109159698D01*
X115630301Y-109338327D01*
X115863690Y-109435000D01*
X116554250Y-109435000D01*
X116713000Y-109276250D01*
X116713000Y-108077000D01*
X115513750Y-108077000D01*
X115355000Y-108235750D01*
X113257440Y-108235750D01*
X113257440Y-107100000D01*
X113233674Y-106973691D01*
X115355000Y-106973691D01*
X115355000Y-107664250D01*
X115513750Y-107823000D01*
X116713000Y-107823000D01*
X116713000Y-106623750D01*
X116554250Y-106465000D01*
X115863690Y-106465000D01*
X115630301Y-106561673D01*
X115451673Y-106740302D01*
X115355000Y-106973691D01*
X113233674Y-106973691D01*
X113213162Y-106864683D01*
X113074090Y-106648559D01*
X112861890Y-106503569D01*
X112610000Y-106452560D01*
X110910000Y-106452560D01*
X110674683Y-106496838D01*
X110458559Y-106635910D01*
X110313569Y-106848110D01*
X110299914Y-106915541D01*
X110270054Y-106870853D01*
X109788285Y-106548946D01*
X109220000Y-106435907D01*
X108651715Y-106548946D01*
X108169946Y-106870853D01*
X107848039Y-107352622D01*
X107735000Y-107920907D01*
X107735000Y-107979093D01*
X107800740Y-108309590D01*
X103914585Y-112195745D01*
X103571715Y-112263946D01*
X103089946Y-112585853D01*
X102768039Y-113067622D01*
X102655000Y-113635907D01*
X102655000Y-113694093D01*
X102768039Y-114262378D01*
X103089946Y-114744147D01*
X103375578Y-114935000D01*
X103089946Y-115125853D01*
X102768039Y-115607622D01*
X102655000Y-116175907D01*
X102655000Y-116234093D01*
X102768039Y-116802378D01*
X103089946Y-117284147D01*
X103571715Y-117606054D01*
X104140000Y-117719093D01*
X104708285Y-117606054D01*
X105190054Y-117284147D01*
X105417702Y-116943447D01*
X105484817Y-117086358D01*
X105913076Y-117476645D01*
X106323110Y-117646476D01*
X106553000Y-117525155D01*
X106553000Y-116332000D01*
X106533000Y-116332000D01*
X106533000Y-116078000D01*
X106553000Y-116078000D01*
X106553000Y-113792000D01*
X106533000Y-113792000D01*
X106533000Y-113538000D01*
X106553000Y-113538000D01*
X106553000Y-112344845D01*
X106323110Y-112223524D01*
X105913076Y-112393355D01*
X105484817Y-112783642D01*
X105417702Y-112926553D01*
X105371806Y-112857864D01*
X108840971Y-109388699D01*
X109220000Y-109464093D01*
X109788285Y-109351054D01*
X110270054Y-109029147D01*
X110297850Y-108987548D01*
X110306838Y-109035317D01*
X110445910Y-109251441D01*
X110658110Y-109396431D01*
X110910000Y-109447440D01*
X111010700Y-109447440D01*
X111010700Y-110814630D01*
X109599029Y-112226301D01*
X109220000Y-112150907D01*
X108651715Y-112263946D01*
X108169946Y-112585853D01*
X107942298Y-112926553D01*
X107875183Y-112783642D01*
X107446924Y-112393355D01*
X107036890Y-112223524D01*
X106807000Y-112344845D01*
X106807000Y-113538000D01*
X106827000Y-113538000D01*
X106827000Y-113792000D01*
X106807000Y-113792000D01*
X106807000Y-116078000D01*
X106827000Y-116078000D01*
X106827000Y-116332000D01*
X106807000Y-116332000D01*
X106807000Y-117525155D01*
X107036890Y-117646476D01*
X107446924Y-117476645D01*
X107875183Y-117086358D01*
X107942298Y-116943447D01*
X108169946Y-117284147D01*
X108651715Y-117606054D01*
X109220000Y-117719093D01*
X109788285Y-117606054D01*
X110270054Y-117284147D01*
X110490000Y-116954974D01*
X110709946Y-117284147D01*
X111191715Y-117606054D01*
X111760000Y-117719093D01*
X112328285Y-117606054D01*
X112810054Y-117284147D01*
X113030000Y-116954974D01*
X113249946Y-117284147D01*
X113731715Y-117606054D01*
X114300000Y-117719093D01*
X114868285Y-117606054D01*
X115350054Y-117284147D01*
X115570000Y-116954974D01*
X115789946Y-117284147D01*
X116090700Y-117485104D01*
X116090700Y-131890000D01*
X116147737Y-132176745D01*
X116310165Y-132419835D01*
X121515409Y-137625079D01*
X121501971Y-137634058D01*
X121351715Y-137663946D01*
X120869946Y-137985853D01*
X120650000Y-138315026D01*
X120430054Y-137985853D01*
X119948285Y-137663946D01*
X119380000Y-137550907D01*
X118811715Y-137663946D01*
X118329946Y-137985853D01*
X118110000Y-138315026D01*
X117890054Y-137985853D01*
X117408285Y-137663946D01*
X116840000Y-137550907D01*
X116271715Y-137663946D01*
X115789946Y-137985853D01*
X115570000Y-138315026D01*
X115350054Y-137985853D01*
X114868285Y-137663946D01*
X114300000Y-137550907D01*
X113731715Y-137663946D01*
X113249946Y-137985853D01*
X113030000Y-138315026D01*
X112810054Y-137985853D01*
X112328285Y-137663946D01*
X111760000Y-137550907D01*
X111191715Y-137663946D01*
X110709946Y-137985853D01*
X110490000Y-138315026D01*
X110270054Y-137985853D01*
X109788285Y-137663946D01*
X109220000Y-137550907D01*
X108651715Y-137663946D01*
X108169946Y-137985853D01*
X107942298Y-138326553D01*
X107875183Y-138183642D01*
X107446924Y-137793355D01*
X107036890Y-137623524D01*
X106807000Y-137744845D01*
X106807000Y-138938000D01*
X106827000Y-138938000D01*
X106827000Y-139192000D01*
X106807000Y-139192000D01*
X106807000Y-141478000D01*
X106827000Y-141478000D01*
X106827000Y-141732000D01*
X106807000Y-141732000D01*
X106807000Y-142925155D01*
X107036890Y-143046476D01*
X107446924Y-142876645D01*
X107875183Y-142486358D01*
X107942298Y-142343447D01*
X108169946Y-142684147D01*
X108651715Y-143006054D01*
X109220000Y-143119093D01*
X109788285Y-143006054D01*
X110270054Y-142684147D01*
X110490000Y-142354974D01*
X110709946Y-142684147D01*
X111191715Y-143006054D01*
X111760000Y-143119093D01*
X112328285Y-143006054D01*
X112810054Y-142684147D01*
X113030000Y-142354974D01*
X113249946Y-142684147D01*
X113731715Y-143006054D01*
X114300000Y-143119093D01*
X114868285Y-143006054D01*
X115350054Y-142684147D01*
X115570000Y-142354974D01*
X115789946Y-142684147D01*
X116271715Y-143006054D01*
X116840000Y-143119093D01*
X117408285Y-143006054D01*
X117890054Y-142684147D01*
X118110000Y-142354974D01*
X118329946Y-142684147D01*
X118811715Y-143006054D01*
X119380000Y-143119093D01*
X119948285Y-143006054D01*
X120430054Y-142684147D01*
X120457850Y-142642548D01*
X120466838Y-142690317D01*
X120605910Y-142906441D01*
X120818110Y-143051431D01*
X121070000Y-143102440D01*
X122770000Y-143102440D01*
X123005317Y-143058162D01*
X123221441Y-142919090D01*
X123366431Y-142706890D01*
X123417440Y-142455000D01*
X123417440Y-141267333D01*
X123535910Y-141451441D01*
X123748110Y-141596431D01*
X124000000Y-141647440D01*
X124887770Y-141647440D01*
X125487292Y-142246962D01*
X125598946Y-142808285D01*
X125920853Y-143290054D01*
X126250026Y-143510000D01*
X125920853Y-143729946D01*
X125598946Y-144211715D01*
X125485907Y-144780000D01*
X125598946Y-145348285D01*
X125920853Y-145830054D01*
X126402622Y-146151961D01*
X126970907Y-146265000D01*
X127029093Y-146265000D01*
X127597378Y-146151961D01*
X128079147Y-145830054D01*
X128270000Y-145544422D01*
X128460853Y-145830054D01*
X128942622Y-146151961D01*
X129510907Y-146265000D01*
X129569093Y-146265000D01*
X130137378Y-146151961D01*
X130619147Y-145830054D01*
X130941054Y-145348285D01*
X131054093Y-144780000D01*
X130941054Y-144211715D01*
X130619147Y-143729946D01*
X130289974Y-143510000D01*
X130619147Y-143290054D01*
X130941054Y-142808285D01*
X131054093Y-142240000D01*
X130941054Y-141671715D01*
X130619147Y-141189946D01*
X130289974Y-140970000D01*
X130619147Y-140750054D01*
X130941054Y-140268285D01*
X131054093Y-139700000D01*
X130941054Y-139131715D01*
X130619147Y-138649946D01*
X130289974Y-138430000D01*
X130619147Y-138210054D01*
X130941054Y-137728285D01*
X131054093Y-137160000D01*
X130941054Y-136591715D01*
X130619147Y-136109946D01*
X130289974Y-135890000D01*
X130619147Y-135670054D01*
X130941054Y-135188285D01*
X131054093Y-134620000D01*
X130941054Y-134051715D01*
X130619147Y-133569946D01*
X130289974Y-133350000D01*
X130619147Y-133130054D01*
X130941054Y-132648285D01*
X131054093Y-132080000D01*
X130941054Y-131511715D01*
X130619147Y-131029946D01*
X130289974Y-130810000D01*
X130619147Y-130590054D01*
X130941054Y-130108285D01*
X131054093Y-129540000D01*
X130941054Y-128971715D01*
X130619147Y-128489946D01*
X130289974Y-128270000D01*
X130619147Y-128050054D01*
X130941054Y-127568285D01*
X131054093Y-127000000D01*
X130941054Y-126431715D01*
X130619147Y-125949946D01*
X130289974Y-125730000D01*
X130619147Y-125510054D01*
X130941054Y-125028285D01*
X131054093Y-124460000D01*
X130941054Y-123891715D01*
X130619147Y-123409946D01*
X130289974Y-123190000D01*
X130619147Y-122970054D01*
X130941054Y-122488285D01*
X131048491Y-121948161D01*
X131550700Y-122450370D01*
X131550700Y-140000000D01*
X131607737Y-140286745D01*
X131770165Y-140529835D01*
X139070165Y-147829835D01*
X139313255Y-147992263D01*
X139600000Y-148049300D01*
X149100000Y-148049300D01*
X149386745Y-147992263D01*
X149629835Y-147829835D01*
X151659835Y-145799835D01*
X151822264Y-145556744D01*
X151879300Y-145270000D01*
X151879300Y-142180816D01*
X152172811Y-141984698D01*
X152483880Y-141519151D01*
X152593113Y-140970000D01*
X152483880Y-140420849D01*
X152172811Y-139955302D01*
X151707264Y-139644233D01*
X151158113Y-139535000D01*
X151101887Y-139535000D01*
X150552736Y-139644233D01*
X150087189Y-139955302D01*
X149776120Y-140420849D01*
X149666887Y-140970000D01*
X149776120Y-141519151D01*
X150087189Y-141984698D01*
X150380700Y-142180816D01*
X150380700Y-144959630D01*
X148789630Y-146550700D01*
X139910370Y-146550700D01*
X133049300Y-139689630D01*
X133049300Y-122140000D01*
X132992263Y-121853255D01*
X132829835Y-121610165D01*
X130978699Y-119759029D01*
X131054093Y-119380000D01*
X130941054Y-118811715D01*
X130619147Y-118329946D01*
X130278447Y-118102298D01*
X130421358Y-118035183D01*
X130811645Y-117606924D01*
X130981476Y-117196890D01*
X130860155Y-116967000D01*
X129667000Y-116967000D01*
X129667000Y-116987000D01*
X129413000Y-116987000D01*
X129413000Y-116967000D01*
X127127000Y-116967000D01*
X127127000Y-116987000D01*
X126873000Y-116987000D01*
X126873000Y-116967000D01*
X125679845Y-116967000D01*
X125558524Y-117196890D01*
X125728355Y-117606924D01*
X126118642Y-118035183D01*
X126261553Y-118102298D01*
X125920853Y-118329946D01*
X125598946Y-118811715D01*
X125485907Y-119380000D01*
X125598946Y-119948285D01*
X125920853Y-120430054D01*
X126250026Y-120650000D01*
X125920853Y-120869946D01*
X125598946Y-121351715D01*
X125485907Y-121920000D01*
X125598946Y-122488285D01*
X125920853Y-122970054D01*
X126250026Y-123190000D01*
X125920853Y-123409946D01*
X125598946Y-123891715D01*
X125485907Y-124460000D01*
X125598946Y-125028285D01*
X125920853Y-125510054D01*
X126250026Y-125730000D01*
X125920853Y-125949946D01*
X125598946Y-126431715D01*
X125485907Y-127000000D01*
X125598946Y-127568285D01*
X125920853Y-128050054D01*
X126250026Y-128270000D01*
X125920853Y-128489946D01*
X125598946Y-128971715D01*
X125485907Y-129540000D01*
X125598946Y-130108285D01*
X125920853Y-130590054D01*
X126250026Y-130810000D01*
X125920853Y-131029946D01*
X125598946Y-131511715D01*
X125485907Y-132080000D01*
X125598946Y-132648285D01*
X125920853Y-133130054D01*
X126250026Y-133350000D01*
X125920853Y-133569946D01*
X125598946Y-134051715D01*
X125485907Y-134620000D01*
X125598946Y-135188285D01*
X125920853Y-135670054D01*
X126250026Y-135890000D01*
X125920853Y-136109946D01*
X125762255Y-136347305D01*
X125551890Y-136203569D01*
X125300000Y-136152560D01*
X124000000Y-136152560D01*
X123764683Y-136196838D01*
X123590191Y-136309121D01*
X120129300Y-132848230D01*
X120129300Y-117485104D01*
X120430054Y-117284147D01*
X120457850Y-117242548D01*
X120466838Y-117290317D01*
X120605910Y-117506441D01*
X120818110Y-117651431D01*
X121070000Y-117702440D01*
X122770000Y-117702440D01*
X123005317Y-117658162D01*
X123221441Y-117519090D01*
X123366431Y-117306890D01*
X123417440Y-117055000D01*
X123417440Y-115355000D01*
X123373162Y-115119683D01*
X123252985Y-114932923D01*
X123366431Y-114766890D01*
X123417440Y-114515000D01*
X123417440Y-114433528D01*
X123444000Y-114300000D01*
X123417440Y-114166472D01*
X123417440Y-112815000D01*
X123373162Y-112579683D01*
X123234090Y-112363559D01*
X123021890Y-112218569D01*
X122809000Y-112175458D01*
X122809000Y-111596634D01*
X125502560Y-108903074D01*
X125502560Y-110070000D01*
X125546838Y-110305317D01*
X125685910Y-110521441D01*
X125898110Y-110666431D01*
X125965541Y-110680086D01*
X125920853Y-110709946D01*
X125598946Y-111191715D01*
X125485907Y-111760000D01*
X125598946Y-112328285D01*
X125920853Y-112810054D01*
X126250026Y-113030000D01*
X125920853Y-113249946D01*
X125598946Y-113731715D01*
X125485907Y-114300000D01*
X125598946Y-114868285D01*
X125920853Y-115350054D01*
X126261553Y-115577702D01*
X126118642Y-115644817D01*
X125728355Y-116073076D01*
X125558524Y-116483110D01*
X125679845Y-116713000D01*
X126873000Y-116713000D01*
X126873000Y-116693000D01*
X127127000Y-116693000D01*
X127127000Y-116713000D01*
X129413000Y-116713000D01*
X129413000Y-116693000D01*
X129667000Y-116693000D01*
X129667000Y-116713000D01*
X130860155Y-116713000D01*
X130981476Y-116483110D01*
X130811645Y-116073076D01*
X130421358Y-115644817D01*
X130278447Y-115577702D01*
X130619147Y-115350054D01*
X130941054Y-114868285D01*
X131054093Y-114300000D01*
X130941054Y-113731715D01*
X130619147Y-113249946D01*
X130289974Y-113030000D01*
X130619147Y-112810054D01*
X130941054Y-112328285D01*
X131054093Y-111760000D01*
X130941054Y-111191715D01*
X130619147Y-110709946D01*
X130577548Y-110682150D01*
X130625317Y-110673162D01*
X130841441Y-110534090D01*
X130986431Y-110321890D01*
X131037440Y-110070000D01*
X131037440Y-108496999D01*
X133977682Y-108496999D01*
X142949301Y-117468618D01*
X143237713Y-117661329D01*
X143577919Y-117729000D01*
X143593240Y-117729000D01*
X143700853Y-117890054D01*
X144030026Y-118110000D01*
X143700853Y-118329946D01*
X143378946Y-118811715D01*
X143265907Y-119380000D01*
X143378946Y-119948285D01*
X143700853Y-120430054D01*
X144030026Y-120650000D01*
X143700853Y-120869946D01*
X143378946Y-121351715D01*
X143265907Y-121920000D01*
X143378946Y-122488285D01*
X143700853Y-122970054D01*
X144030026Y-123190000D01*
X143700853Y-123409946D01*
X143378946Y-123891715D01*
X143265907Y-124460000D01*
X143378946Y-125028285D01*
X143700853Y-125510054D01*
X144030026Y-125730000D01*
X143700853Y-125949946D01*
X143378946Y-126431715D01*
X143265907Y-127000000D01*
X143378946Y-127568285D01*
X143700853Y-128050054D01*
X144030026Y-128270000D01*
X143700853Y-128489946D01*
X143378946Y-128971715D01*
X143265907Y-129540000D01*
X143378946Y-130108285D01*
X143700853Y-130590054D01*
X144030026Y-130810000D01*
X143700853Y-131029946D01*
X143378946Y-131511715D01*
X143265907Y-132080000D01*
X143378946Y-132648285D01*
X143700853Y-133130054D01*
X144030026Y-133350000D01*
X143700853Y-133569946D01*
X143378946Y-134051715D01*
X143265907Y-134620000D01*
X143378946Y-135188285D01*
X143700853Y-135670054D01*
X144030026Y-135890000D01*
X143700853Y-136109946D01*
X143378946Y-136591715D01*
X143265907Y-137160000D01*
X143378946Y-137728285D01*
X143700853Y-138210054D01*
X144030026Y-138430000D01*
X143700853Y-138649946D01*
X143378946Y-139131715D01*
X143265907Y-139700000D01*
X143378946Y-140268285D01*
X143700853Y-140750054D01*
X144030026Y-140970000D01*
X143700853Y-141189946D01*
X143378946Y-141671715D01*
X143265907Y-142240000D01*
X143378946Y-142808285D01*
X143700853Y-143290054D01*
X144030026Y-143510000D01*
X143700853Y-143729946D01*
X143378946Y-144211715D01*
X143265907Y-144780000D01*
X143378946Y-145348285D01*
X143700853Y-145830054D01*
X144182622Y-146151961D01*
X144750907Y-146265000D01*
X144809093Y-146265000D01*
X145377378Y-146151961D01*
X145859147Y-145830054D01*
X146050000Y-145544422D01*
X146240853Y-145830054D01*
X146722622Y-146151961D01*
X147290907Y-146265000D01*
X147349093Y-146265000D01*
X147917378Y-146151961D01*
X148399147Y-145830054D01*
X148721054Y-145348285D01*
X148834093Y-144780000D01*
X148721054Y-144211715D01*
X148399147Y-143729946D01*
X148069974Y-143510000D01*
X148399147Y-143290054D01*
X148721054Y-142808285D01*
X148834093Y-142240000D01*
X148721054Y-141671715D01*
X148399147Y-141189946D01*
X148069974Y-140970000D01*
X148399147Y-140750054D01*
X148721054Y-140268285D01*
X148834093Y-139700000D01*
X148721054Y-139131715D01*
X148399147Y-138649946D01*
X148069974Y-138430000D01*
X148399147Y-138210054D01*
X148721054Y-137728285D01*
X148834093Y-137160000D01*
X148721054Y-136591715D01*
X148399147Y-136109946D01*
X148069974Y-135890000D01*
X148399147Y-135670054D01*
X148721054Y-135188285D01*
X148834093Y-134620000D01*
X148721054Y-134051715D01*
X148399147Y-133569946D01*
X148069974Y-133350000D01*
X148399147Y-133130054D01*
X148721054Y-132648285D01*
X148834093Y-132080000D01*
X148721054Y-131511715D01*
X148399147Y-131029946D01*
X148069974Y-130810000D01*
X148399147Y-130590054D01*
X148721054Y-130108285D01*
X148834093Y-129540000D01*
X148721054Y-128971715D01*
X148399147Y-128489946D01*
X148069974Y-128270000D01*
X148399147Y-128050054D01*
X148600104Y-127749300D01*
X149849896Y-127749300D01*
X150050853Y-128050054D01*
X150380026Y-128270000D01*
X150050853Y-128489946D01*
X149728946Y-128971715D01*
X149615907Y-129540000D01*
X149728946Y-130108285D01*
X150050853Y-130590054D01*
X150380026Y-130810000D01*
X150050853Y-131029946D01*
X149728946Y-131511715D01*
X149615907Y-132080000D01*
X149728946Y-132648285D01*
X150050853Y-133130054D01*
X150380026Y-133350000D01*
X150050853Y-133569946D01*
X149728946Y-134051715D01*
X149615907Y-134620000D01*
X149728946Y-135188285D01*
X150050853Y-135670054D01*
X150380026Y-135890000D01*
X150050853Y-136109946D01*
X149728946Y-136591715D01*
X149615907Y-137160000D01*
X149728946Y-137728285D01*
X150050853Y-138210054D01*
X150532622Y-138531961D01*
X151100907Y-138645000D01*
X151159093Y-138645000D01*
X151727378Y-138531961D01*
X152209147Y-138210054D01*
X152410104Y-137909300D01*
X157169630Y-137909300D01*
X159881184Y-140620854D01*
X159855250Y-140683309D01*
X159854752Y-141254187D01*
X160072757Y-141781800D01*
X160476077Y-142185824D01*
X161003309Y-142404750D01*
X161574187Y-142405248D01*
X162101800Y-142187243D01*
X162505824Y-141783923D01*
X162724750Y-141256691D01*
X162725248Y-140685813D01*
X162507243Y-140158200D01*
X162103923Y-139754176D01*
X161576691Y-139535250D01*
X161005813Y-139534752D01*
X160941143Y-139561473D01*
X158009835Y-136630165D01*
X157766745Y-136467737D01*
X157480000Y-136410700D01*
X152410104Y-136410700D01*
X152209147Y-136109946D01*
X151879974Y-135890000D01*
X152209147Y-135670054D01*
X152531054Y-135188285D01*
X152644093Y-134620000D01*
X152531054Y-134051715D01*
X152209147Y-133569946D01*
X151879974Y-133350000D01*
X152209147Y-133130054D01*
X152531054Y-132648285D01*
X152644093Y-132080000D01*
X152531054Y-131511715D01*
X152209147Y-131029946D01*
X151879974Y-130810000D01*
X152209147Y-130590054D01*
X152531054Y-130108285D01*
X152644093Y-129540000D01*
X152531054Y-128971715D01*
X152209147Y-128489946D01*
X151879974Y-128270000D01*
X152209147Y-128050054D01*
X152531054Y-127568285D01*
X152644093Y-127000000D01*
X152531054Y-126431715D01*
X152209147Y-125949946D01*
X151879974Y-125730000D01*
X152209147Y-125510054D01*
X152531054Y-125028285D01*
X152644093Y-124460000D01*
X152531054Y-123891715D01*
X152209147Y-123409946D01*
X151868447Y-123182298D01*
X152011358Y-123115183D01*
X152401645Y-122686924D01*
X152571476Y-122276890D01*
X152450155Y-122047000D01*
X151257000Y-122047000D01*
X151257000Y-122067000D01*
X151003000Y-122067000D01*
X151003000Y-122047000D01*
X149809845Y-122047000D01*
X149688524Y-122276890D01*
X149858355Y-122686924D01*
X150248642Y-123115183D01*
X150391553Y-123182298D01*
X150050853Y-123409946D01*
X149849896Y-123710700D01*
X148600104Y-123710700D01*
X148399147Y-123409946D01*
X148069974Y-123190000D01*
X148399147Y-122970054D01*
X148721054Y-122488285D01*
X148834093Y-121920000D01*
X148721054Y-121351715D01*
X148399147Y-120869946D01*
X148069974Y-120650000D01*
X148399147Y-120430054D01*
X148721054Y-119948285D01*
X148834093Y-119380000D01*
X148721054Y-118811715D01*
X148399147Y-118329946D01*
X148069974Y-118110000D01*
X148399147Y-117890054D01*
X148506760Y-117729000D01*
X163334764Y-117729000D01*
X169291000Y-123685236D01*
X169291000Y-126839307D01*
X169144683Y-126866838D01*
X168928559Y-127005910D01*
X168783569Y-127218110D01*
X168750583Y-127381000D01*
X168638236Y-127381000D01*
X166789000Y-125531764D01*
X166789000Y-122682000D01*
X166721329Y-122341794D01*
X166528618Y-122053382D01*
X163226618Y-118751382D01*
X162938206Y-118558671D01*
X162598000Y-118491000D01*
X152620102Y-118491000D01*
X152583162Y-118294683D01*
X152444090Y-118078559D01*
X152231890Y-117933569D01*
X151980000Y-117882560D01*
X150280000Y-117882560D01*
X150044683Y-117926838D01*
X149828559Y-118065910D01*
X149683569Y-118278110D01*
X149632560Y-118530000D01*
X149632560Y-120230000D01*
X149676838Y-120465317D01*
X149815910Y-120681441D01*
X150028110Y-120826431D01*
X150136107Y-120848301D01*
X149858355Y-121153076D01*
X149688524Y-121563110D01*
X149809845Y-121793000D01*
X151003000Y-121793000D01*
X151003000Y-121773000D01*
X151257000Y-121773000D01*
X151257000Y-121793000D01*
X152450155Y-121793000D01*
X152571476Y-121563110D01*
X152401645Y-121153076D01*
X152125499Y-120850063D01*
X152215317Y-120833162D01*
X152431441Y-120694090D01*
X152576431Y-120481890D01*
X152619542Y-120269000D01*
X162229764Y-120269000D01*
X165011000Y-123050236D01*
X165011000Y-125900000D01*
X165078671Y-126240206D01*
X165232325Y-126470165D01*
X165271382Y-126528618D01*
X167641382Y-128898618D01*
X167929794Y-129091329D01*
X168270000Y-129159000D01*
X168749307Y-129159000D01*
X168776838Y-129305317D01*
X168915910Y-129521441D01*
X169128110Y-129666431D01*
X169291000Y-129699417D01*
X169291000Y-133129898D01*
X169094683Y-133166838D01*
X168878559Y-133305910D01*
X168733569Y-133518110D01*
X168682560Y-133770000D01*
X168682560Y-135470000D01*
X168726838Y-135705317D01*
X168865910Y-135921441D01*
X169078110Y-136066431D01*
X169145541Y-136080086D01*
X169100853Y-136109946D01*
X168778946Y-136591715D01*
X168665907Y-137160000D01*
X168778946Y-137728285D01*
X169100853Y-138210054D01*
X169291000Y-138337106D01*
X169291000Y-138522894D01*
X169100853Y-138649946D01*
X168778946Y-139131715D01*
X168665907Y-139700000D01*
X168778946Y-140268285D01*
X169100853Y-140750054D01*
X169291000Y-140877106D01*
X169291000Y-141062894D01*
X169100853Y-141189946D01*
X168778946Y-141671715D01*
X168665907Y-142240000D01*
X168778946Y-142808285D01*
X169100853Y-143290054D01*
X169582622Y-143611961D01*
X170150907Y-143725000D01*
X170209093Y-143725000D01*
X170777378Y-143611961D01*
X171259147Y-143290054D01*
X171448345Y-143006899D01*
X171448355Y-143006924D01*
X171838642Y-143435183D01*
X172115773Y-143565331D01*
X171327044Y-143562965D01*
X170062973Y-144082122D01*
X170045501Y-144093797D01*
X169727265Y-144547660D01*
X172000000Y-146820395D01*
X172014143Y-146806253D01*
X172193748Y-146985858D01*
X172179605Y-147000000D01*
X172193748Y-147014143D01*
X172014143Y-147193748D01*
X172000000Y-147179605D01*
X171985858Y-147193748D01*
X171806253Y-147014143D01*
X171820395Y-147000000D01*
X169547660Y-144727265D01*
X169093797Y-145045501D01*
X168567064Y-146306434D01*
X168562965Y-147672956D01*
X169082122Y-148937027D01*
X169093797Y-148954499D01*
X169547658Y-149272734D01*
X169530392Y-149290000D01*
X105469608Y-149290000D01*
X105452342Y-149272734D01*
X105906203Y-148954499D01*
X106432936Y-147693566D01*
X106437035Y-146327044D01*
X105917878Y-145062973D01*
X105906203Y-145045501D01*
X105452340Y-144727265D01*
X103179605Y-147000000D01*
X103193748Y-147014143D01*
X103014143Y-147193748D01*
X103000000Y-147179605D01*
X102985858Y-147193748D01*
X102806253Y-147014143D01*
X102820395Y-147000000D01*
X102806253Y-146985858D01*
X102985858Y-146806253D01*
X103000000Y-146820395D01*
X105272735Y-144547660D01*
X104954499Y-144093797D01*
X103693566Y-143567064D01*
X102327044Y-143562965D01*
X101062973Y-144082122D01*
X101045501Y-144093797D01*
X100727266Y-144547658D01*
X100710000Y-144530392D01*
X100710000Y-139035907D01*
X102655000Y-139035907D01*
X102655000Y-139094093D01*
X102768039Y-139662378D01*
X103089946Y-140144147D01*
X103375578Y-140335000D01*
X103089946Y-140525853D01*
X102768039Y-141007622D01*
X102655000Y-141575907D01*
X102655000Y-141634093D01*
X102768039Y-142202378D01*
X103089946Y-142684147D01*
X103571715Y-143006054D01*
X104140000Y-143119093D01*
X104708285Y-143006054D01*
X105190054Y-142684147D01*
X105417702Y-142343447D01*
X105484817Y-142486358D01*
X105913076Y-142876645D01*
X106323110Y-143046476D01*
X106553000Y-142925155D01*
X106553000Y-141732000D01*
X106533000Y-141732000D01*
X106533000Y-141478000D01*
X106553000Y-141478000D01*
X106553000Y-139192000D01*
X106533000Y-139192000D01*
X106533000Y-138938000D01*
X106553000Y-138938000D01*
X106553000Y-137744845D01*
X106323110Y-137623524D01*
X105913076Y-137793355D01*
X105484817Y-138183642D01*
X105417702Y-138326553D01*
X105190054Y-137985853D01*
X104708285Y-137663946D01*
X104140000Y-137550907D01*
X103571715Y-137663946D01*
X103089946Y-137985853D01*
X102768039Y-138467622D01*
X102655000Y-139035907D01*
X100710000Y-139035907D01*
X100710000Y-110563121D01*
X100915501Y-110856203D01*
X102176434Y-111382936D01*
X103542956Y-111387035D01*
X104807027Y-110867878D01*
X104824499Y-110856203D01*
X105142735Y-110402340D01*
X102870000Y-108129605D01*
X102855858Y-108143748D01*
X102676253Y-107964143D01*
X102690395Y-107950000D01*
X102676253Y-107935858D01*
X102855858Y-107756253D01*
X102870000Y-107770395D01*
X102884143Y-107756253D01*
X103063748Y-107935858D01*
X103049605Y-107950000D01*
X105322340Y-110222735D01*
X105776203Y-109904499D01*
X106302936Y-108643566D01*
X106307035Y-107277044D01*
X105787878Y-106012973D01*
X105776203Y-105995501D01*
X105369026Y-105710000D01*
X169530392Y-105710000D01*
X169547658Y-105727266D01*
M02*
