G04 #@! TF.FileFunction,Legend,Bot*
%FSLAX46Y46*%
G04 Gerber Fmt 4.6, Leading zero omitted, Abs format (unit mm)*
G04 Created by KiCad (PCBNEW 4.0.7-e2-6376~58~ubuntu16.04.1) date Wed Dec 27 17:52:43 2017*
%MOMM*%
%LPD*%
G01*
G04 APERTURE LIST*
%ADD10C,0.100000*%
%ADD11C,0.300000*%
%ADD12C,0.200000*%
%ADD13C,0.250000*%
G04 APERTURE END LIST*
D10*
D11*
X112661905Y-105942857D02*
X111138095Y-105942857D01*
X109961905Y-105942857D02*
X108438095Y-105942857D01*
X109200000Y-106704762D02*
X109200000Y-105180952D01*
D10*
X112709524Y-110173810D02*
X112595238Y-110211905D01*
X112404762Y-110211905D01*
X112328572Y-110173810D01*
X112290476Y-110135714D01*
X112252381Y-110059524D01*
X112252381Y-109983333D01*
X112290476Y-109907143D01*
X112328572Y-109869048D01*
X112404762Y-109830952D01*
X112557143Y-109792857D01*
X112633334Y-109754762D01*
X112671429Y-109716667D01*
X112709524Y-109640476D01*
X112709524Y-109564286D01*
X112671429Y-109488095D01*
X112633334Y-109450000D01*
X112557143Y-109411905D01*
X112366667Y-109411905D01*
X112252381Y-109450000D01*
X111909524Y-109678571D02*
X111909524Y-110478571D01*
X111909524Y-109716667D02*
X111833333Y-109678571D01*
X111680952Y-109678571D01*
X111604762Y-109716667D01*
X111566667Y-109754762D01*
X111528571Y-109830952D01*
X111528571Y-110059524D01*
X111566667Y-110135714D01*
X111604762Y-110173810D01*
X111680952Y-110211905D01*
X111833333Y-110211905D01*
X111909524Y-110173810D01*
X110880952Y-110173810D02*
X110957142Y-110211905D01*
X111109523Y-110211905D01*
X111185714Y-110173810D01*
X111223809Y-110097619D01*
X111223809Y-109792857D01*
X111185714Y-109716667D01*
X111109523Y-109678571D01*
X110957142Y-109678571D01*
X110880952Y-109716667D01*
X110842857Y-109792857D01*
X110842857Y-109869048D01*
X111223809Y-109945238D01*
X110157143Y-110211905D02*
X110157143Y-109792857D01*
X110195238Y-109716667D01*
X110271428Y-109678571D01*
X110423809Y-109678571D01*
X110500000Y-109716667D01*
X110157143Y-110173810D02*
X110233333Y-110211905D01*
X110423809Y-110211905D01*
X110500000Y-110173810D01*
X110538095Y-110097619D01*
X110538095Y-110021429D01*
X110500000Y-109945238D01*
X110423809Y-109907143D01*
X110233333Y-109907143D01*
X110157143Y-109869048D01*
X109776190Y-110211905D02*
X109776190Y-109411905D01*
X109699999Y-109907143D02*
X109471428Y-110211905D01*
X109471428Y-109678571D02*
X109776190Y-109983333D01*
X108823809Y-110173810D02*
X108899999Y-110211905D01*
X109052380Y-110211905D01*
X109128571Y-110173810D01*
X109166666Y-110097619D01*
X109166666Y-109792857D01*
X109128571Y-109716667D01*
X109052380Y-109678571D01*
X108899999Y-109678571D01*
X108823809Y-109716667D01*
X108785714Y-109792857D01*
X108785714Y-109869048D01*
X109166666Y-109945238D01*
X108442857Y-110211905D02*
X108442857Y-109678571D01*
X108442857Y-109830952D02*
X108404762Y-109754762D01*
X108366666Y-109716667D01*
X108290476Y-109678571D01*
X108214285Y-109678571D01*
X114157144Y-111511905D02*
X114233335Y-111473810D01*
X114271430Y-111397619D01*
X114271430Y-110711905D01*
X113547620Y-111473810D02*
X113623810Y-111511905D01*
X113776191Y-111511905D01*
X113852382Y-111473810D01*
X113890477Y-111397619D01*
X113890477Y-111092857D01*
X113852382Y-111016667D01*
X113776191Y-110978571D01*
X113623810Y-110978571D01*
X113547620Y-111016667D01*
X113509525Y-111092857D01*
X113509525Y-111169048D01*
X113890477Y-111245238D01*
X113204763Y-111473810D02*
X113128573Y-111511905D01*
X112976192Y-111511905D01*
X112900001Y-111473810D01*
X112861906Y-111397619D01*
X112861906Y-111359524D01*
X112900001Y-111283333D01*
X112976192Y-111245238D01*
X113090477Y-111245238D01*
X113166668Y-111207143D01*
X113204763Y-111130952D01*
X113204763Y-111092857D01*
X113166668Y-111016667D01*
X113090477Y-110978571D01*
X112976192Y-110978571D01*
X112900001Y-111016667D01*
X112557144Y-111473810D02*
X112480954Y-111511905D01*
X112328573Y-111511905D01*
X112252382Y-111473810D01*
X112214287Y-111397619D01*
X112214287Y-111359524D01*
X112252382Y-111283333D01*
X112328573Y-111245238D01*
X112442858Y-111245238D01*
X112519049Y-111207143D01*
X112557144Y-111130952D01*
X112557144Y-111092857D01*
X112519049Y-111016667D01*
X112442858Y-110978571D01*
X112328573Y-110978571D01*
X112252382Y-111016667D01*
X111376192Y-110978571D02*
X111071430Y-110978571D01*
X111261906Y-110711905D02*
X111261906Y-111397619D01*
X111223811Y-111473810D01*
X111147620Y-111511905D01*
X111071430Y-111511905D01*
X110804763Y-111511905D02*
X110804763Y-110711905D01*
X110461906Y-111511905D02*
X110461906Y-111092857D01*
X110500001Y-111016667D01*
X110576191Y-110978571D01*
X110690477Y-110978571D01*
X110766668Y-111016667D01*
X110804763Y-111054762D01*
X109738096Y-111511905D02*
X109738096Y-111092857D01*
X109776191Y-111016667D01*
X109852381Y-110978571D01*
X110004762Y-110978571D01*
X110080953Y-111016667D01*
X109738096Y-111473810D02*
X109814286Y-111511905D01*
X110004762Y-111511905D01*
X110080953Y-111473810D01*
X110119048Y-111397619D01*
X110119048Y-111321429D01*
X110080953Y-111245238D01*
X110004762Y-111207143D01*
X109814286Y-111207143D01*
X109738096Y-111169048D01*
X109357143Y-110978571D02*
X109357143Y-111511905D01*
X109357143Y-111054762D02*
X109319048Y-111016667D01*
X109242857Y-110978571D01*
X109128571Y-110978571D01*
X109052381Y-111016667D01*
X109014286Y-111092857D01*
X109014286Y-111511905D01*
X108099999Y-110711905D02*
X107604761Y-110711905D01*
X107871428Y-111016667D01*
X107757142Y-111016667D01*
X107680952Y-111054762D01*
X107642856Y-111092857D01*
X107604761Y-111169048D01*
X107604761Y-111359524D01*
X107642856Y-111435714D01*
X107680952Y-111473810D01*
X107757142Y-111511905D01*
X107985714Y-111511905D01*
X108061904Y-111473810D01*
X108099999Y-111435714D01*
X107338094Y-110711905D02*
X107147618Y-111511905D01*
X106995237Y-110940476D01*
X106842856Y-111511905D01*
X106652380Y-110711905D01*
X122357762Y-110115333D02*
X121976810Y-110115333D01*
X122433953Y-110343905D02*
X122167286Y-109543905D01*
X121900619Y-110343905D01*
X121291096Y-109810571D02*
X121291096Y-110343905D01*
X121633953Y-109810571D02*
X121633953Y-110229619D01*
X121595858Y-110305810D01*
X121519667Y-110343905D01*
X121405381Y-110343905D01*
X121329191Y-110305810D01*
X121291096Y-110267714D01*
X120567286Y-110343905D02*
X120567286Y-109543905D01*
X120567286Y-110305810D02*
X120643476Y-110343905D01*
X120795857Y-110343905D01*
X120872048Y-110305810D01*
X120910143Y-110267714D01*
X120948238Y-110191524D01*
X120948238Y-109962952D01*
X120910143Y-109886762D01*
X120872048Y-109848667D01*
X120795857Y-109810571D01*
X120643476Y-109810571D01*
X120567286Y-109848667D01*
X120186333Y-110343905D02*
X120186333Y-109810571D01*
X120186333Y-109543905D02*
X120224428Y-109582000D01*
X120186333Y-109620095D01*
X120148238Y-109582000D01*
X120186333Y-109543905D01*
X120186333Y-109620095D01*
X119691095Y-110343905D02*
X119767286Y-110305810D01*
X119805381Y-110267714D01*
X119843476Y-110191524D01*
X119843476Y-109962952D01*
X119805381Y-109886762D01*
X119767286Y-109848667D01*
X119691095Y-109810571D01*
X119576809Y-109810571D01*
X119500619Y-109848667D01*
X119462524Y-109886762D01*
X119424428Y-109962952D01*
X119424428Y-110191524D01*
X119462524Y-110267714D01*
X119500619Y-110305810D01*
X119576809Y-110343905D01*
X119691095Y-110343905D01*
X118243475Y-109543905D02*
X118243475Y-110115333D01*
X118281571Y-110229619D01*
X118357761Y-110305810D01*
X118472047Y-110343905D01*
X118548237Y-110343905D01*
X117519666Y-110343905D02*
X117519666Y-109924857D01*
X117557761Y-109848667D01*
X117633951Y-109810571D01*
X117786332Y-109810571D01*
X117862523Y-109848667D01*
X117519666Y-110305810D02*
X117595856Y-110343905D01*
X117786332Y-110343905D01*
X117862523Y-110305810D01*
X117900618Y-110229619D01*
X117900618Y-110153429D01*
X117862523Y-110077238D01*
X117786332Y-110039143D01*
X117595856Y-110039143D01*
X117519666Y-110001048D01*
X116795856Y-110305810D02*
X116872046Y-110343905D01*
X117024427Y-110343905D01*
X117100618Y-110305810D01*
X117138713Y-110267714D01*
X117176808Y-110191524D01*
X117176808Y-109962952D01*
X117138713Y-109886762D01*
X117100618Y-109848667D01*
X117024427Y-109810571D01*
X116872046Y-109810571D01*
X116795856Y-109848667D01*
X116452999Y-110343905D02*
X116452999Y-109543905D01*
X116376808Y-110039143D02*
X116148237Y-110343905D01*
X116148237Y-109810571D02*
X116452999Y-110115333D01*
X121829381Y-106214905D02*
X122096048Y-105833952D01*
X122286524Y-106214905D02*
X122286524Y-105414905D01*
X121981762Y-105414905D01*
X121905571Y-105453000D01*
X121867476Y-105491095D01*
X121829381Y-105567286D01*
X121829381Y-105681571D01*
X121867476Y-105757762D01*
X121905571Y-105795857D01*
X121981762Y-105833952D01*
X122286524Y-105833952D01*
X119229380Y-106164905D02*
X119610333Y-106164905D01*
X119610333Y-105364905D01*
X117486523Y-105453000D02*
X117562714Y-105414905D01*
X117676999Y-105414905D01*
X117791285Y-105453000D01*
X117867476Y-105529190D01*
X117905571Y-105605381D01*
X117943666Y-105757762D01*
X117943666Y-105872048D01*
X117905571Y-106024429D01*
X117867476Y-106100619D01*
X117791285Y-106176810D01*
X117676999Y-106214905D01*
X117600809Y-106214905D01*
X117486523Y-106176810D01*
X117448428Y-106138714D01*
X117448428Y-105872048D01*
X117600809Y-105872048D01*
X117105571Y-106214905D02*
X117105571Y-105414905D01*
X116648428Y-106214905D01*
X116648428Y-105414905D01*
X116267476Y-106214905D02*
X116267476Y-105414905D01*
X116077000Y-105414905D01*
X115962714Y-105453000D01*
X115886523Y-105529190D01*
X115848428Y-105605381D01*
X115810333Y-105757762D01*
X115810333Y-105872048D01*
X115848428Y-106024429D01*
X115886523Y-106100619D01*
X115962714Y-106176810D01*
X116077000Y-106214905D01*
X116267476Y-106214905D01*
X171056190Y-118941905D02*
X170789523Y-119741905D01*
X170522856Y-118941905D01*
X170256190Y-119741905D02*
X170256190Y-118941905D01*
X169875238Y-119741905D02*
X169875238Y-118941905D01*
X169418095Y-119741905D01*
X169418095Y-118941905D01*
D12*
X173990000Y-123190000D02*
X173990000Y-115570000D01*
X171450000Y-123190000D02*
X173990000Y-123190000D01*
X171450000Y-115570000D02*
X171450000Y-123190000D01*
X173990000Y-115570000D02*
X171450000Y-115570000D01*
X171450000Y-115570000D02*
X173990000Y-115570000D01*
D10*
X170789523Y-113900000D02*
X170865714Y-113861905D01*
X170979999Y-113861905D01*
X171094285Y-113900000D01*
X171170476Y-113976190D01*
X171208571Y-114052381D01*
X171246666Y-114204762D01*
X171246666Y-114319048D01*
X171208571Y-114471429D01*
X171170476Y-114547619D01*
X171094285Y-114623810D01*
X170979999Y-114661905D01*
X170903809Y-114661905D01*
X170789523Y-114623810D01*
X170751428Y-114585714D01*
X170751428Y-114319048D01*
X170903809Y-114319048D01*
X170408571Y-114661905D02*
X170408571Y-113861905D01*
X169951428Y-114661905D01*
X169951428Y-113861905D01*
X169570476Y-114661905D02*
X169570476Y-113861905D01*
X169380000Y-113861905D01*
X169265714Y-113900000D01*
X169189523Y-113976190D01*
X169151428Y-114052381D01*
X169113333Y-114204762D01*
X169113333Y-114319048D01*
X169151428Y-114471429D01*
X169189523Y-114547619D01*
X169265714Y-114623810D01*
X169380000Y-114661905D01*
X169570476Y-114661905D01*
D12*
X171450000Y-122936000D02*
X171450000Y-122174000D01*
X171450000Y-132080000D02*
X171450000Y-144018000D01*
D10*
X173329523Y-132315000D02*
X173405714Y-132276905D01*
X173519999Y-132276905D01*
X173634285Y-132315000D01*
X173710476Y-132391190D01*
X173748571Y-132467381D01*
X173786666Y-132619762D01*
X173786666Y-132734048D01*
X173748571Y-132886429D01*
X173710476Y-132962619D01*
X173634285Y-133038810D01*
X173519999Y-133076905D01*
X173443809Y-133076905D01*
X173329523Y-133038810D01*
X173291428Y-133000714D01*
X173291428Y-132734048D01*
X173443809Y-132734048D01*
X172948571Y-133076905D02*
X172948571Y-132276905D01*
X172491428Y-133076905D01*
X172491428Y-132276905D01*
X172110476Y-133076905D02*
X172110476Y-132276905D01*
X171920000Y-132276905D01*
X171805714Y-132315000D01*
X171729523Y-132391190D01*
X171691428Y-132467381D01*
X171653333Y-132619762D01*
X171653333Y-132734048D01*
X171691428Y-132886429D01*
X171729523Y-132962619D01*
X171805714Y-133038810D01*
X171920000Y-133076905D01*
X172110476Y-133076905D01*
X170332380Y-132276905D02*
X170713333Y-132276905D01*
X170751428Y-132657857D01*
X170713333Y-132619762D01*
X170637142Y-132581667D01*
X170446666Y-132581667D01*
X170370476Y-132619762D01*
X170332380Y-132657857D01*
X170294285Y-132734048D01*
X170294285Y-132924524D01*
X170332380Y-133000714D01*
X170370476Y-133038810D01*
X170446666Y-133076905D01*
X170637142Y-133076905D01*
X170713333Y-133038810D01*
X170751428Y-133000714D01*
X170065714Y-132276905D02*
X169799047Y-133076905D01*
X169532380Y-132276905D01*
X173329523Y-125965000D02*
X173405714Y-125926905D01*
X173519999Y-125926905D01*
X173634285Y-125965000D01*
X173710476Y-126041190D01*
X173748571Y-126117381D01*
X173786666Y-126269762D01*
X173786666Y-126384048D01*
X173748571Y-126536429D01*
X173710476Y-126612619D01*
X173634285Y-126688810D01*
X173519999Y-126726905D01*
X173443809Y-126726905D01*
X173329523Y-126688810D01*
X173291428Y-126650714D01*
X173291428Y-126384048D01*
X173443809Y-126384048D01*
X172948571Y-126726905D02*
X172948571Y-125926905D01*
X172491428Y-126726905D01*
X172491428Y-125926905D01*
X172110476Y-126726905D02*
X172110476Y-125926905D01*
X171920000Y-125926905D01*
X171805714Y-125965000D01*
X171729523Y-126041190D01*
X171691428Y-126117381D01*
X171653333Y-126269762D01*
X171653333Y-126384048D01*
X171691428Y-126536429D01*
X171729523Y-126612619D01*
X171805714Y-126688810D01*
X171920000Y-126726905D01*
X172110476Y-126726905D01*
X170332380Y-125926905D02*
X170713333Y-125926905D01*
X170751428Y-126307857D01*
X170713333Y-126269762D01*
X170637142Y-126231667D01*
X170446666Y-126231667D01*
X170370476Y-126269762D01*
X170332380Y-126307857D01*
X170294285Y-126384048D01*
X170294285Y-126574524D01*
X170332380Y-126650714D01*
X170370476Y-126688810D01*
X170446666Y-126726905D01*
X170637142Y-126726905D01*
X170713333Y-126688810D01*
X170751428Y-126650714D01*
X170065714Y-125926905D02*
X169799047Y-126726905D01*
X169532380Y-125926905D01*
D12*
X167298714Y-106820143D02*
X167298714Y-105920143D01*
X166913000Y-106820143D02*
X166913000Y-106348714D01*
X166955857Y-106263000D01*
X167041571Y-106220143D01*
X167170143Y-106220143D01*
X167255857Y-106263000D01*
X167298714Y-106305857D01*
X166613000Y-106220143D02*
X166270143Y-106220143D01*
X166484428Y-105920143D02*
X166484428Y-106691571D01*
X166441571Y-106777286D01*
X166355857Y-106820143D01*
X166270143Y-106820143D01*
X166098714Y-106220143D02*
X165755857Y-106220143D01*
X165970142Y-105920143D02*
X165970142Y-106691571D01*
X165927285Y-106777286D01*
X165841571Y-106820143D01*
X165755857Y-106820143D01*
X165455856Y-106220143D02*
X165455856Y-107120143D01*
X165455856Y-106263000D02*
X165370142Y-106220143D01*
X165198713Y-106220143D01*
X165112999Y-106263000D01*
X165070142Y-106305857D01*
X165027285Y-106391571D01*
X165027285Y-106648714D01*
X165070142Y-106734429D01*
X165112999Y-106777286D01*
X165198713Y-106820143D01*
X165370142Y-106820143D01*
X165455856Y-106777286D01*
X164684427Y-106777286D02*
X164598713Y-106820143D01*
X164427285Y-106820143D01*
X164341570Y-106777286D01*
X164298713Y-106691571D01*
X164298713Y-106648714D01*
X164341570Y-106563000D01*
X164427285Y-106520143D01*
X164555856Y-106520143D01*
X164641570Y-106477286D01*
X164684427Y-106391571D01*
X164684427Y-106348714D01*
X164641570Y-106263000D01*
X164555856Y-106220143D01*
X164427285Y-106220143D01*
X164341570Y-106263000D01*
X163912999Y-106734429D02*
X163870142Y-106777286D01*
X163912999Y-106820143D01*
X163955856Y-106777286D01*
X163912999Y-106734429D01*
X163912999Y-106820143D01*
X163912999Y-106263000D02*
X163870142Y-106305857D01*
X163912999Y-106348714D01*
X163955856Y-106305857D01*
X163912999Y-106263000D01*
X163912999Y-106348714D01*
X162841571Y-105877286D02*
X163613000Y-107034429D01*
X161898714Y-105877286D02*
X162670143Y-107034429D01*
X161213000Y-106220143D02*
X161213000Y-106948714D01*
X161255857Y-107034429D01*
X161298714Y-107077286D01*
X161384429Y-107120143D01*
X161513000Y-107120143D01*
X161598714Y-107077286D01*
X161213000Y-106777286D02*
X161298714Y-106820143D01*
X161470143Y-106820143D01*
X161555857Y-106777286D01*
X161598714Y-106734429D01*
X161641571Y-106648714D01*
X161641571Y-106391571D01*
X161598714Y-106305857D01*
X161555857Y-106263000D01*
X161470143Y-106220143D01*
X161298714Y-106220143D01*
X161213000Y-106263000D01*
X160784428Y-106820143D02*
X160784428Y-106220143D01*
X160784428Y-105920143D02*
X160827285Y-105963000D01*
X160784428Y-106005857D01*
X160741571Y-105963000D01*
X160784428Y-105920143D01*
X160784428Y-106005857D01*
X160484429Y-106220143D02*
X160141572Y-106220143D01*
X160355857Y-105920143D02*
X160355857Y-106691571D01*
X160313000Y-106777286D01*
X160227286Y-106820143D01*
X160141572Y-106820143D01*
X159841571Y-106820143D02*
X159841571Y-105920143D01*
X159455857Y-106820143D02*
X159455857Y-106348714D01*
X159498714Y-106263000D01*
X159584428Y-106220143D01*
X159713000Y-106220143D01*
X159798714Y-106263000D01*
X159841571Y-106305857D01*
X158641571Y-106220143D02*
X158641571Y-106820143D01*
X159027285Y-106220143D02*
X159027285Y-106691571D01*
X158984428Y-106777286D01*
X158898714Y-106820143D01*
X158770142Y-106820143D01*
X158684428Y-106777286D01*
X158641571Y-106734429D01*
X158212999Y-106820143D02*
X158212999Y-105920143D01*
X158212999Y-106263000D02*
X158127285Y-106220143D01*
X157955856Y-106220143D01*
X157870142Y-106263000D01*
X157827285Y-106305857D01*
X157784428Y-106391571D01*
X157784428Y-106648714D01*
X157827285Y-106734429D01*
X157870142Y-106777286D01*
X157955856Y-106820143D01*
X158127285Y-106820143D01*
X158212999Y-106777286D01*
X157398713Y-106734429D02*
X157355856Y-106777286D01*
X157398713Y-106820143D01*
X157441570Y-106777286D01*
X157398713Y-106734429D01*
X157398713Y-106820143D01*
X156584428Y-106777286D02*
X156670142Y-106820143D01*
X156841571Y-106820143D01*
X156927285Y-106777286D01*
X156970142Y-106734429D01*
X157012999Y-106648714D01*
X157012999Y-106391571D01*
X156970142Y-106305857D01*
X156927285Y-106263000D01*
X156841571Y-106220143D01*
X156670142Y-106220143D01*
X156584428Y-106263000D01*
X156070142Y-106820143D02*
X156155856Y-106777286D01*
X156198713Y-106734429D01*
X156241570Y-106648714D01*
X156241570Y-106391571D01*
X156198713Y-106305857D01*
X156155856Y-106263000D01*
X156070142Y-106220143D01*
X155941570Y-106220143D01*
X155855856Y-106263000D01*
X155812999Y-106305857D01*
X155770142Y-106391571D01*
X155770142Y-106648714D01*
X155812999Y-106734429D01*
X155855856Y-106777286D01*
X155941570Y-106820143D01*
X156070142Y-106820143D01*
X155384427Y-106820143D02*
X155384427Y-106220143D01*
X155384427Y-106305857D02*
X155341570Y-106263000D01*
X155255856Y-106220143D01*
X155127284Y-106220143D01*
X155041570Y-106263000D01*
X154998713Y-106348714D01*
X154998713Y-106820143D01*
X154998713Y-106348714D02*
X154955856Y-106263000D01*
X154870142Y-106220143D01*
X154741570Y-106220143D01*
X154655856Y-106263000D01*
X154612999Y-106348714D01*
X154612999Y-106820143D01*
X153541570Y-105877286D02*
X154312999Y-107034429D01*
X153370142Y-106220143D02*
X153027285Y-106220143D01*
X153241570Y-105920143D02*
X153241570Y-106691571D01*
X153198713Y-106777286D01*
X153112999Y-106820143D01*
X153027285Y-106820143D01*
X152727284Y-106820143D02*
X152727284Y-105920143D01*
X152341570Y-106820143D02*
X152341570Y-106348714D01*
X152384427Y-106263000D01*
X152470141Y-106220143D01*
X152598713Y-106220143D01*
X152684427Y-106263000D01*
X152727284Y-106305857D01*
X151570141Y-106777286D02*
X151655855Y-106820143D01*
X151827284Y-106820143D01*
X151912998Y-106777286D01*
X151955855Y-106691571D01*
X151955855Y-106348714D01*
X151912998Y-106263000D01*
X151827284Y-106220143D01*
X151655855Y-106220143D01*
X151570141Y-106263000D01*
X151527284Y-106348714D01*
X151527284Y-106434429D01*
X151955855Y-106520143D01*
X150755855Y-106820143D02*
X150755855Y-106348714D01*
X150798712Y-106263000D01*
X150884426Y-106220143D01*
X151055855Y-106220143D01*
X151141569Y-106263000D01*
X150755855Y-106777286D02*
X150841569Y-106820143D01*
X151055855Y-106820143D01*
X151141569Y-106777286D01*
X151184426Y-106691571D01*
X151184426Y-106605857D01*
X151141569Y-106520143D01*
X151055855Y-106477286D01*
X150841569Y-106477286D01*
X150755855Y-106434429D01*
X150327283Y-106220143D02*
X150327283Y-107120143D01*
X150327283Y-106263000D02*
X150241569Y-106220143D01*
X150070140Y-106220143D01*
X149984426Y-106263000D01*
X149941569Y-106305857D01*
X149898712Y-106391571D01*
X149898712Y-106648714D01*
X149941569Y-106734429D01*
X149984426Y-106777286D01*
X150070140Y-106820143D01*
X150241569Y-106820143D01*
X150327283Y-106777286D01*
X149512997Y-106820143D02*
X149512997Y-106220143D01*
X149512997Y-105920143D02*
X149555854Y-105963000D01*
X149512997Y-106005857D01*
X149470140Y-105963000D01*
X149512997Y-105920143D01*
X149512997Y-106005857D01*
X148441569Y-105877286D02*
X149212998Y-107034429D01*
X148184426Y-106777286D02*
X148098712Y-106820143D01*
X147927284Y-106820143D01*
X147841569Y-106777286D01*
X147798712Y-106691571D01*
X147798712Y-106648714D01*
X147841569Y-106563000D01*
X147927284Y-106520143D01*
X148055855Y-106520143D01*
X148141569Y-106477286D01*
X148184426Y-106391571D01*
X148184426Y-106348714D01*
X148141569Y-106263000D01*
X148055855Y-106220143D01*
X147927284Y-106220143D01*
X147841569Y-106263000D01*
X147284427Y-106820143D02*
X147370141Y-106777286D01*
X147412998Y-106734429D01*
X147455855Y-106648714D01*
X147455855Y-106391571D01*
X147412998Y-106305857D01*
X147370141Y-106263000D01*
X147284427Y-106220143D01*
X147155855Y-106220143D01*
X147070141Y-106263000D01*
X147027284Y-106305857D01*
X146984427Y-106391571D01*
X146984427Y-106648714D01*
X147027284Y-106734429D01*
X147070141Y-106777286D01*
X147155855Y-106820143D01*
X147284427Y-106820143D01*
X146212998Y-106220143D02*
X146212998Y-106820143D01*
X146598712Y-106220143D02*
X146598712Y-106691571D01*
X146555855Y-106777286D01*
X146470141Y-106820143D01*
X146341569Y-106820143D01*
X146255855Y-106777286D01*
X146212998Y-106734429D01*
X145784426Y-106220143D02*
X145784426Y-106820143D01*
X145784426Y-106305857D02*
X145741569Y-106263000D01*
X145655855Y-106220143D01*
X145527283Y-106220143D01*
X145441569Y-106263000D01*
X145398712Y-106348714D01*
X145398712Y-106820143D01*
X144584426Y-106820143D02*
X144584426Y-105920143D01*
X144584426Y-106777286D02*
X144670140Y-106820143D01*
X144841569Y-106820143D01*
X144927283Y-106777286D01*
X144970140Y-106734429D01*
X145012997Y-106648714D01*
X145012997Y-106391571D01*
X144970140Y-106305857D01*
X144927283Y-106263000D01*
X144841569Y-106220143D01*
X144670140Y-106220143D01*
X144584426Y-106263000D01*
X144370140Y-106905857D02*
X143684426Y-106905857D01*
X143470140Y-106820143D02*
X143470140Y-106220143D01*
X143470140Y-106305857D02*
X143427283Y-106263000D01*
X143341569Y-106220143D01*
X143212997Y-106220143D01*
X143127283Y-106263000D01*
X143084426Y-106348714D01*
X143084426Y-106820143D01*
X143084426Y-106348714D02*
X143041569Y-106263000D01*
X142955855Y-106220143D01*
X142827283Y-106220143D01*
X142741569Y-106263000D01*
X142698712Y-106348714D01*
X142698712Y-106820143D01*
X141884426Y-106820143D02*
X141884426Y-106348714D01*
X141927283Y-106263000D01*
X142012997Y-106220143D01*
X142184426Y-106220143D01*
X142270140Y-106263000D01*
X141884426Y-106777286D02*
X141970140Y-106820143D01*
X142184426Y-106820143D01*
X142270140Y-106777286D01*
X142312997Y-106691571D01*
X142312997Y-106605857D01*
X142270140Y-106520143D01*
X142184426Y-106477286D01*
X141970140Y-106477286D01*
X141884426Y-106434429D01*
X141070140Y-106777286D02*
X141155854Y-106820143D01*
X141327283Y-106820143D01*
X141412997Y-106777286D01*
X141455854Y-106734429D01*
X141498711Y-106648714D01*
X141498711Y-106391571D01*
X141455854Y-106305857D01*
X141412997Y-106263000D01*
X141327283Y-106220143D01*
X141155854Y-106220143D01*
X141070140Y-106263000D01*
X140684425Y-106820143D02*
X140684425Y-105920143D01*
X140298711Y-106820143D02*
X140298711Y-106348714D01*
X140341568Y-106263000D01*
X140427282Y-106220143D01*
X140555854Y-106220143D01*
X140641568Y-106263000D01*
X140684425Y-106305857D01*
X139870139Y-106820143D02*
X139870139Y-106220143D01*
X139870139Y-105920143D02*
X139912996Y-105963000D01*
X139870139Y-106005857D01*
X139827282Y-105963000D01*
X139870139Y-105920143D01*
X139870139Y-106005857D01*
X139441568Y-106220143D02*
X139441568Y-106820143D01*
X139441568Y-106305857D02*
X139398711Y-106263000D01*
X139312997Y-106220143D01*
X139184425Y-106220143D01*
X139098711Y-106263000D01*
X139055854Y-106348714D01*
X139055854Y-106820143D01*
X138284425Y-106777286D02*
X138370139Y-106820143D01*
X138541568Y-106820143D01*
X138627282Y-106777286D01*
X138670139Y-106691571D01*
X138670139Y-106348714D01*
X138627282Y-106263000D01*
X138541568Y-106220143D01*
X138370139Y-106220143D01*
X138284425Y-106263000D01*
X138241568Y-106348714D01*
X138241568Y-106434429D01*
X138670139Y-106520143D01*
X138070139Y-106905857D02*
X137384425Y-106905857D01*
X137170139Y-106820143D02*
X137170139Y-105920143D01*
X136784425Y-106820143D02*
X136784425Y-106348714D01*
X136827282Y-106263000D01*
X136912996Y-106220143D01*
X137041568Y-106220143D01*
X137127282Y-106263000D01*
X137170139Y-106305857D01*
X135970139Y-106820143D02*
X135970139Y-106348714D01*
X136012996Y-106263000D01*
X136098710Y-106220143D01*
X136270139Y-106220143D01*
X136355853Y-106263000D01*
X135970139Y-106777286D02*
X136055853Y-106820143D01*
X136270139Y-106820143D01*
X136355853Y-106777286D01*
X136398710Y-106691571D01*
X136398710Y-106605857D01*
X136355853Y-106520143D01*
X136270139Y-106477286D01*
X136055853Y-106477286D01*
X135970139Y-106434429D01*
X135541567Y-106820143D02*
X135541567Y-106220143D01*
X135541567Y-106391571D02*
X135498710Y-106305857D01*
X135455853Y-106263000D01*
X135370139Y-106220143D01*
X135284424Y-106220143D01*
X134598710Y-106820143D02*
X134598710Y-105920143D01*
X134598710Y-106777286D02*
X134684424Y-106820143D01*
X134855853Y-106820143D01*
X134941567Y-106777286D01*
X134984424Y-106734429D01*
X135027281Y-106648714D01*
X135027281Y-106391571D01*
X134984424Y-106305857D01*
X134941567Y-106263000D01*
X134855853Y-106220143D01*
X134684424Y-106220143D01*
X134598710Y-106263000D01*
X134255853Y-106220143D02*
X134084424Y-106820143D01*
X133912995Y-106391571D01*
X133741567Y-106820143D01*
X133570138Y-106220143D01*
X132841567Y-106820143D02*
X132841567Y-106348714D01*
X132884424Y-106263000D01*
X132970138Y-106220143D01*
X133141567Y-106220143D01*
X133227281Y-106263000D01*
X132841567Y-106777286D02*
X132927281Y-106820143D01*
X133141567Y-106820143D01*
X133227281Y-106777286D01*
X133270138Y-106691571D01*
X133270138Y-106605857D01*
X133227281Y-106520143D01*
X133141567Y-106477286D01*
X132927281Y-106477286D01*
X132841567Y-106434429D01*
X132412995Y-106820143D02*
X132412995Y-106220143D01*
X132412995Y-106391571D02*
X132370138Y-106305857D01*
X132327281Y-106263000D01*
X132241567Y-106220143D01*
X132155852Y-106220143D01*
X131512995Y-106777286D02*
X131598709Y-106820143D01*
X131770138Y-106820143D01*
X131855852Y-106777286D01*
X131898709Y-106691571D01*
X131898709Y-106348714D01*
X131855852Y-106263000D01*
X131770138Y-106220143D01*
X131598709Y-106220143D01*
X131512995Y-106263000D01*
X131470138Y-106348714D01*
X131470138Y-106434429D01*
X131898709Y-106520143D01*
X167298714Y-107770143D02*
X167298714Y-108670143D01*
X167298714Y-107813000D02*
X167213000Y-107770143D01*
X167041571Y-107770143D01*
X166955857Y-107813000D01*
X166913000Y-107855857D01*
X166870143Y-107941571D01*
X166870143Y-108198714D01*
X166913000Y-108284429D01*
X166955857Y-108327286D01*
X167041571Y-108370143D01*
X167213000Y-108370143D01*
X167298714Y-108327286D01*
X166484428Y-108370143D02*
X166484428Y-107770143D01*
X166484428Y-107941571D02*
X166441571Y-107855857D01*
X166398714Y-107813000D01*
X166313000Y-107770143D01*
X166227285Y-107770143D01*
X165798714Y-108370143D02*
X165884428Y-108327286D01*
X165927285Y-108284429D01*
X165970142Y-108198714D01*
X165970142Y-107941571D01*
X165927285Y-107855857D01*
X165884428Y-107813000D01*
X165798714Y-107770143D01*
X165670142Y-107770143D01*
X165584428Y-107813000D01*
X165541571Y-107855857D01*
X165498714Y-107941571D01*
X165498714Y-108198714D01*
X165541571Y-108284429D01*
X165584428Y-108327286D01*
X165670142Y-108370143D01*
X165798714Y-108370143D01*
X165241571Y-107770143D02*
X164898714Y-107770143D01*
X165112999Y-107470143D02*
X165112999Y-108241571D01*
X165070142Y-108327286D01*
X164984428Y-108370143D01*
X164898714Y-108370143D01*
X164470142Y-108370143D02*
X164555856Y-108327286D01*
X164598713Y-108284429D01*
X164641570Y-108198714D01*
X164641570Y-107941571D01*
X164598713Y-107855857D01*
X164555856Y-107813000D01*
X164470142Y-107770143D01*
X164341570Y-107770143D01*
X164255856Y-107813000D01*
X164212999Y-107855857D01*
X164170142Y-107941571D01*
X164170142Y-108198714D01*
X164212999Y-108284429D01*
X164255856Y-108327286D01*
X164341570Y-108370143D01*
X164470142Y-108370143D01*
X163912999Y-107770143D02*
X163570142Y-107770143D01*
X163784427Y-107470143D02*
X163784427Y-108241571D01*
X163741570Y-108327286D01*
X163655856Y-108370143D01*
X163570142Y-108370143D01*
X163355856Y-107770143D02*
X163141570Y-108370143D01*
X162927284Y-107770143D02*
X163141570Y-108370143D01*
X163227284Y-108584429D01*
X163270141Y-108627286D01*
X163355856Y-108670143D01*
X162584427Y-107770143D02*
X162584427Y-108670143D01*
X162584427Y-107813000D02*
X162498713Y-107770143D01*
X162327284Y-107770143D01*
X162241570Y-107813000D01*
X162198713Y-107855857D01*
X162155856Y-107941571D01*
X162155856Y-108198714D01*
X162198713Y-108284429D01*
X162241570Y-108327286D01*
X162327284Y-108370143D01*
X162498713Y-108370143D01*
X162584427Y-108327286D01*
X161427284Y-108327286D02*
X161512998Y-108370143D01*
X161684427Y-108370143D01*
X161770141Y-108327286D01*
X161812998Y-108241571D01*
X161812998Y-107898714D01*
X161770141Y-107813000D01*
X161684427Y-107770143D01*
X161512998Y-107770143D01*
X161427284Y-107813000D01*
X161384427Y-107898714D01*
X161384427Y-107984429D01*
X161812998Y-108070143D01*
X159712999Y-107770143D02*
X159498713Y-108370143D01*
X159284427Y-107770143D01*
X158470142Y-108370143D02*
X158984427Y-108370143D01*
X158727285Y-108370143D02*
X158727285Y-107470143D01*
X158812999Y-107598714D01*
X158898713Y-107684429D01*
X158984427Y-107727286D01*
X158084427Y-108284429D02*
X158041570Y-108327286D01*
X158084427Y-108370143D01*
X158127284Y-108327286D01*
X158084427Y-108284429D01*
X158084427Y-108370143D01*
X157184428Y-108370143D02*
X157698713Y-108370143D01*
X157441571Y-108370143D02*
X157441571Y-107470143D01*
X157527285Y-107598714D01*
X157612999Y-107684429D01*
X157698713Y-107727286D01*
X156798713Y-108284429D02*
X156755856Y-108327286D01*
X156798713Y-108370143D01*
X156841570Y-108327286D01*
X156798713Y-108284429D01*
X156798713Y-108370143D01*
X156198714Y-107470143D02*
X156112999Y-107470143D01*
X156027285Y-107513000D01*
X155984428Y-107555857D01*
X155941571Y-107641571D01*
X155898714Y-107813000D01*
X155898714Y-108027286D01*
X155941571Y-108198714D01*
X155984428Y-108284429D01*
X156027285Y-108327286D01*
X156112999Y-108370143D01*
X156198714Y-108370143D01*
X156284428Y-108327286D01*
X156327285Y-108284429D01*
X156370142Y-108198714D01*
X156412999Y-108027286D01*
X156412999Y-107813000D01*
X156370142Y-107641571D01*
X156327285Y-107555857D01*
X156284428Y-107513000D01*
X156198714Y-107470143D01*
D13*
X118200595Y-125204762D02*
X118063691Y-125252381D01*
X117825595Y-125252381D01*
X117724404Y-125204762D01*
X117670833Y-125157143D01*
X117611309Y-125061905D01*
X117599404Y-124966667D01*
X117635119Y-124871429D01*
X117676785Y-124823810D01*
X117766071Y-124776190D01*
X117950595Y-124728571D01*
X118039881Y-124680952D01*
X118081548Y-124633333D01*
X118117262Y-124538095D01*
X118105357Y-124442857D01*
X118045833Y-124347619D01*
X117992262Y-124300000D01*
X117891072Y-124252381D01*
X117652976Y-124252381D01*
X117516071Y-124300000D01*
X117063691Y-125252381D02*
X117152976Y-125204762D01*
X117194643Y-125157143D01*
X117230357Y-125061905D01*
X117194643Y-124776190D01*
X117135119Y-124680952D01*
X117081548Y-124633333D01*
X116980357Y-124585714D01*
X116837499Y-124585714D01*
X116748214Y-124633333D01*
X116706547Y-124680952D01*
X116670833Y-124776190D01*
X116706547Y-125061905D01*
X116766071Y-125157143D01*
X116819642Y-125204762D01*
X116920833Y-125252381D01*
X117063691Y-125252381D01*
X115789880Y-124585714D02*
X115873214Y-125252381D01*
X116218452Y-124585714D02*
X116283928Y-125109524D01*
X116248214Y-125204762D01*
X116158929Y-125252381D01*
X116016071Y-125252381D01*
X115914880Y-125204762D01*
X115861309Y-125157143D01*
X115313690Y-124585714D02*
X115397024Y-125252381D01*
X115325595Y-124680952D02*
X115272024Y-124633333D01*
X115170833Y-124585714D01*
X115027975Y-124585714D01*
X114938690Y-124633333D01*
X114902975Y-124728571D01*
X114968452Y-125252381D01*
X114063690Y-125252381D02*
X113938690Y-124252381D01*
X114057737Y-125204762D02*
X114158928Y-125252381D01*
X114349405Y-125252381D01*
X114438690Y-125204762D01*
X114480357Y-125157143D01*
X114516071Y-125061905D01*
X114480357Y-124776190D01*
X114420833Y-124680952D01*
X114367262Y-124633333D01*
X114266071Y-124585714D01*
X114075594Y-124585714D01*
X113986309Y-124633333D01*
X112825595Y-125252381D02*
X112700595Y-124252381D01*
X112456546Y-124966667D01*
X112033928Y-124252381D01*
X112158928Y-125252381D01*
X111254166Y-125252381D02*
X111188689Y-124728571D01*
X111224404Y-124633333D01*
X111313689Y-124585714D01*
X111504166Y-124585714D01*
X111605357Y-124633333D01*
X111248213Y-125204762D02*
X111349404Y-125252381D01*
X111587500Y-125252381D01*
X111676785Y-125204762D01*
X111712499Y-125109524D01*
X111700595Y-125014286D01*
X111641071Y-124919048D01*
X111539881Y-124871429D01*
X111301785Y-124871429D01*
X111200594Y-124823810D01*
X110343451Y-125204762D02*
X110444642Y-125252381D01*
X110635119Y-125252381D01*
X110724404Y-125204762D01*
X110766071Y-125157143D01*
X110801785Y-125061905D01*
X110766071Y-124776190D01*
X110706547Y-124680952D01*
X110652976Y-124633333D01*
X110551785Y-124585714D01*
X110361308Y-124585714D01*
X110272023Y-124633333D01*
X109920833Y-125252381D02*
X109795833Y-124252381D01*
X109492261Y-125252381D02*
X109426784Y-124728571D01*
X109462499Y-124633333D01*
X109551784Y-124585714D01*
X109694642Y-124585714D01*
X109795833Y-124633333D01*
X109849404Y-124680952D01*
X109016071Y-125252381D02*
X108932737Y-124585714D01*
X108891071Y-124252381D02*
X108944642Y-124300000D01*
X108902975Y-124347619D01*
X108849404Y-124300000D01*
X108891071Y-124252381D01*
X108902975Y-124347619D01*
X108456547Y-124585714D02*
X108539881Y-125252381D01*
X108468452Y-124680952D02*
X108414881Y-124633333D01*
X108313690Y-124585714D01*
X108170832Y-124585714D01*
X108081547Y-124633333D01*
X108045832Y-124728571D01*
X108111309Y-125252381D01*
X107248213Y-125204762D02*
X107349404Y-125252381D01*
X107539881Y-125252381D01*
X107629166Y-125204762D01*
X107664880Y-125109524D01*
X107617261Y-124728571D01*
X107557738Y-124633333D01*
X107456547Y-124585714D01*
X107266070Y-124585714D01*
X107176785Y-124633333D01*
X107141070Y-124728571D01*
X107152975Y-124823810D01*
X107641071Y-124919048D01*
X117158930Y-127002381D02*
X117033930Y-126002381D01*
X116652977Y-126002381D01*
X116563691Y-126050000D01*
X116522024Y-126097619D01*
X116486310Y-126192857D01*
X116504167Y-126335714D01*
X116563691Y-126430952D01*
X116617262Y-126478571D01*
X116718453Y-126526190D01*
X117099406Y-126526190D01*
X115772024Y-126954762D02*
X115873215Y-127002381D01*
X116063692Y-127002381D01*
X116152977Y-126954762D01*
X116188691Y-126859524D01*
X116141072Y-126478571D01*
X116081549Y-126383333D01*
X115980358Y-126335714D01*
X115789881Y-126335714D01*
X115700596Y-126383333D01*
X115664881Y-126478571D01*
X115676786Y-126573810D01*
X116164882Y-126669048D01*
X115361310Y-126335714D02*
X114980358Y-126335714D01*
X115176787Y-126002381D02*
X115283929Y-126859524D01*
X115248215Y-126954762D01*
X115158930Y-127002381D01*
X115063692Y-127002381D01*
X114343452Y-126954762D02*
X114444643Y-127002381D01*
X114635120Y-127002381D01*
X114724405Y-126954762D01*
X114760119Y-126859524D01*
X114712500Y-126478571D01*
X114652977Y-126383333D01*
X114551786Y-126335714D01*
X114361309Y-126335714D01*
X114272024Y-126383333D01*
X114236309Y-126478571D01*
X114248214Y-126573810D01*
X114736310Y-126669048D01*
X113873215Y-127002381D02*
X113789881Y-126335714D01*
X113813691Y-126526190D02*
X113754167Y-126430952D01*
X113700596Y-126383333D01*
X113599405Y-126335714D01*
X113504166Y-126335714D01*
X111908928Y-126907143D02*
X111962499Y-126954762D01*
X112111309Y-127002381D01*
X112206547Y-127002381D01*
X112343452Y-126954762D01*
X112426785Y-126859524D01*
X112462500Y-126764286D01*
X112486309Y-126573810D01*
X112468452Y-126430952D01*
X112397023Y-126240476D01*
X112337500Y-126145238D01*
X112230357Y-126050000D01*
X112081547Y-126002381D01*
X111986309Y-126002381D01*
X111849404Y-126050000D01*
X111807737Y-126097619D01*
X111349405Y-127002381D02*
X111438690Y-126954762D01*
X111474404Y-126859524D01*
X111367262Y-126002381D01*
X110539880Y-127002381D02*
X110474403Y-126478571D01*
X110510118Y-126383333D01*
X110599403Y-126335714D01*
X110789880Y-126335714D01*
X110891071Y-126383333D01*
X110533927Y-126954762D02*
X110635118Y-127002381D01*
X110873214Y-127002381D01*
X110962499Y-126954762D01*
X110998213Y-126859524D01*
X110986309Y-126764286D01*
X110926785Y-126669048D01*
X110825595Y-126621429D01*
X110587499Y-126621429D01*
X110486308Y-126573810D01*
X110063690Y-127002381D02*
X109980356Y-126335714D01*
X110004166Y-126526190D02*
X109944642Y-126430952D01*
X109891071Y-126383333D01*
X109789880Y-126335714D01*
X109694641Y-126335714D01*
X109444642Y-127002381D02*
X109319642Y-126002381D01*
X109301785Y-126621429D02*
X109063689Y-127002381D01*
X108980355Y-126335714D02*
X109408927Y-126716667D01*
X108248212Y-126954762D02*
X108349403Y-127002381D01*
X108539880Y-127002381D01*
X108629165Y-126954762D01*
X108664879Y-126859524D01*
X108617260Y-126478571D01*
X108557737Y-126383333D01*
X108456546Y-126335714D01*
X108266069Y-126335714D01*
X108176784Y-126383333D01*
X108141069Y-126478571D01*
X108152974Y-126573810D01*
X108641070Y-126669048D01*
X117224405Y-127752381D02*
X117313690Y-128466667D01*
X117379167Y-128609524D01*
X117486310Y-128704762D01*
X117635120Y-128752381D01*
X117730358Y-128752381D01*
X116444643Y-128752381D02*
X116379166Y-128228571D01*
X116414881Y-128133333D01*
X116504166Y-128085714D01*
X116694643Y-128085714D01*
X116795834Y-128133333D01*
X116438690Y-128704762D02*
X116539881Y-128752381D01*
X116777977Y-128752381D01*
X116867262Y-128704762D01*
X116902976Y-128609524D01*
X116891072Y-128514286D01*
X116831548Y-128419048D01*
X116730358Y-128371429D01*
X116492262Y-128371429D01*
X116391071Y-128323810D01*
X115885119Y-128085714D02*
X115968453Y-128752381D01*
X115897024Y-128180952D02*
X115843453Y-128133333D01*
X115742262Y-128085714D01*
X115599404Y-128085714D01*
X115510119Y-128133333D01*
X115474404Y-128228571D01*
X115539881Y-128752381D01*
X114551785Y-128085714D02*
X114635119Y-128752381D01*
X114980357Y-128085714D02*
X115045833Y-128609524D01*
X115010119Y-128704762D01*
X114920834Y-128752381D01*
X114777976Y-128752381D01*
X114676785Y-128704762D01*
X114623214Y-128657143D01*
X113730357Y-128752381D02*
X113664880Y-128228571D01*
X113700595Y-128133333D01*
X113789880Y-128085714D01*
X113980357Y-128085714D01*
X114081548Y-128133333D01*
X113724404Y-128704762D02*
X113825595Y-128752381D01*
X114063691Y-128752381D01*
X114152976Y-128704762D01*
X114188690Y-128609524D01*
X114176786Y-128514286D01*
X114117262Y-128419048D01*
X114016072Y-128371429D01*
X113777976Y-128371429D01*
X113676785Y-128323810D01*
X113254167Y-128752381D02*
X113170833Y-128085714D01*
X113194643Y-128276190D02*
X113135119Y-128180952D01*
X113081548Y-128133333D01*
X112980357Y-128085714D01*
X112885118Y-128085714D01*
X112647023Y-128085714D02*
X112492262Y-128752381D01*
X112170832Y-128085714D02*
X112492262Y-128752381D01*
X112617262Y-128990476D01*
X112670833Y-129038095D01*
X112772023Y-129085714D01*
X111045832Y-127847619D02*
X110992261Y-127800000D01*
X110891071Y-127752381D01*
X110652975Y-127752381D01*
X110563689Y-127800000D01*
X110522022Y-127847619D01*
X110486308Y-127942857D01*
X110498213Y-128038095D01*
X110563689Y-128180952D01*
X111206547Y-128752381D01*
X110587499Y-128752381D01*
X109843452Y-127752381D02*
X109748213Y-127752381D01*
X109658927Y-127800000D01*
X109617260Y-127847619D01*
X109581546Y-127942857D01*
X109557737Y-128133333D01*
X109587499Y-128371429D01*
X109658927Y-128561905D01*
X109718451Y-128657143D01*
X109772022Y-128704762D01*
X109873213Y-128752381D01*
X109968452Y-128752381D01*
X110057737Y-128704762D01*
X110099404Y-128657143D01*
X110135118Y-128561905D01*
X110158928Y-128371429D01*
X110129166Y-128133333D01*
X110057737Y-127942857D01*
X109998213Y-127847619D01*
X109944642Y-127800000D01*
X109843452Y-127752381D01*
X108682737Y-128752381D02*
X109254166Y-128752381D01*
X108968452Y-128752381D02*
X108843452Y-127752381D01*
X108956547Y-127895238D01*
X109063689Y-127990476D01*
X109164880Y-128038095D01*
X108039880Y-128180952D02*
X108129166Y-128133333D01*
X108170832Y-128085714D01*
X108206546Y-127990476D01*
X108200594Y-127942857D01*
X108141070Y-127847619D01*
X108087499Y-127800000D01*
X107986309Y-127752381D01*
X107795832Y-127752381D01*
X107706546Y-127800000D01*
X107664879Y-127847619D01*
X107629165Y-127942857D01*
X107635117Y-127990476D01*
X107694641Y-128085714D01*
X107748213Y-128133333D01*
X107849403Y-128180952D01*
X108039880Y-128180952D01*
X108141070Y-128228571D01*
X108194642Y-128276190D01*
X108254166Y-128371429D01*
X108277975Y-128561905D01*
X108242261Y-128657143D01*
X108200594Y-128704762D01*
X108111309Y-128752381D01*
X107920832Y-128752381D01*
X107819641Y-128704762D01*
X107766070Y-128657143D01*
X107706546Y-128561905D01*
X107682737Y-128371429D01*
X107718451Y-128276190D01*
X107760117Y-128228571D01*
X107849403Y-128180952D01*
M02*
