M48
;DRILL file {KiCad 4.0.7-e2-6376~58~ubuntu16.04.1} date Wed Dec 27 17:52:48 2017
;FORMAT={-:-/ absolute / inch / decimal}
FMAT,2
INCH,TZ
T1C0.031
T2C0.039
T3C0.040
T4C0.126
%
G90
G05
M72
T1
X5.95Y-5.55
X6.35Y-5.55
X6.7Y-5.05
X6.7984Y-5.05
T2
X4.1Y-4.475
X4.1Y-4.575
X4.1Y-5.475
X4.1Y-5.575
X4.2Y-4.475
X4.2Y-4.575
X4.2Y-5.475
X4.2Y-5.575
X4.3Y-4.25
X4.3Y-4.475
X4.3Y-4.575
X4.3Y-5.475
X4.3Y-5.575
X4.4Y-4.25
X4.4Y-4.475
X4.4Y-4.575
X4.4Y-5.475
X4.4Y-5.575
X4.5Y-4.475
X4.5Y-4.575
X4.5Y-5.475
X4.5Y-5.575
X4.6Y-4.25
X4.6Y-4.475
X4.6Y-4.575
X4.6Y-5.475
X4.6Y-5.575
X4.7Y-4.25
X4.7Y-4.475
X4.7Y-4.575
X4.7Y-5.475
X4.7Y-5.575
X4.8Y-4.25
X4.8Y-4.475
X4.8Y-4.575
X4.8Y-5.475
X4.8Y-5.575
X5.Y-4.3
X5.Y-4.4
X5.Y-4.5
X5.Y-4.6
X5.Y-4.7
X5.Y-4.8
X5.Y-4.9
X5.Y-5.
X5.Y-5.1
X5.Y-5.2
X5.Y-5.3
X5.Y-5.4
X5.Y-5.5
X5.Y-5.6
X5.Y-5.7
X5.1Y-4.3
X5.1Y-4.4
X5.1Y-4.5
X5.1Y-4.6
X5.1Y-4.7
X5.1Y-4.8
X5.1Y-4.9
X5.1Y-5.
X5.1Y-5.1
X5.1Y-5.2
X5.1Y-5.3
X5.1Y-5.4
X5.1Y-5.5
X5.1Y-5.6
X5.1Y-5.7
X5.7Y-4.3
X5.7Y-4.4
X5.7Y-4.5
X5.7Y-4.6
X5.7Y-4.7
X5.7Y-4.8
X5.7Y-4.9
X5.7Y-5.
X5.7Y-5.1
X5.7Y-5.2
X5.7Y-5.3
X5.7Y-5.4
X5.7Y-5.5
X5.7Y-5.6
X5.7Y-5.7
X5.8Y-4.3
X5.8Y-4.4
X5.8Y-4.5
X5.8Y-4.6
X5.8Y-4.7
X5.8Y-4.8
X5.8Y-4.9
X5.8Y-5.
X5.8Y-5.1
X5.8Y-5.2
X5.8Y-5.3
X5.8Y-5.4
X5.8Y-5.5
X5.8Y-5.6
X5.8Y-5.7
X5.95Y-4.7
X5.95Y-4.8
X5.95Y-4.9
X5.95Y-5.
X5.95Y-5.1
X5.95Y-5.2
X5.95Y-5.3
X5.95Y-5.4
X6.7Y-5.3
X6.7Y-5.4
X6.7Y-5.5
X6.7Y-5.6
X6.8Y-5.3
X6.8Y-5.4
X6.8Y-5.5
X6.8Y-5.6
T3
X6.8Y-4.5
X6.8Y-4.6
X6.8Y-4.7
X6.8Y-4.8
T4
X4.05Y-4.25
X4.0551Y-5.7874
X6.7717Y-4.252
X6.7717Y-5.7874
T0
M30
