M48
;DRILL file {KiCad 4.0.7-e2-6376~58~ubuntu16.04.1} date Tue Dec 26 18:18:38 2017
;FORMAT={3:3/ absolute / metric / suppress leading zeros}
FMAT,2
METRIC,TZ
T1C1.000
T2C3.200
%
G90
G05
M71
T1
X104140Y-113665
X104140Y-116205
X104140Y-139065
X104140Y-141605
X106680Y-113665
X106680Y-116205
X106680Y-139065
X106680Y-141605
X109220Y-113665
X109220Y-116205
X109220Y-139065
X109220Y-141605
X111760Y-113665
X111760Y-116205
X111760Y-139065
X111760Y-141605
X114300Y-113665
X114300Y-116205
X114300Y-139065
X114300Y-141605
X116840Y-113665
X116840Y-116205
X116840Y-139065
X116840Y-141605
X116840Y-147320
X119380Y-113665
X119380Y-116205
X119380Y-139065
X119380Y-141605
X119380Y-147320
X121920Y-113665
X121920Y-116205
X121920Y-139065
X121920Y-141605
X127000Y-111760
X127000Y-114300
X127000Y-116840
X127000Y-119380
X127000Y-121920
X127000Y-124460
X127000Y-127000
X127000Y-129540
X144780Y-109220
X144780Y-111760
X144780Y-114300
X144780Y-116840
X144780Y-119380
X144780Y-121920
X144780Y-124460
X144780Y-127000
X144780Y-129540
X144780Y-132080
X144780Y-134620
X144780Y-137160
X144780Y-139700
X144780Y-142240
X144780Y-144780
X147320Y-109220
X147320Y-111760
X147320Y-114300
X147320Y-116840
X147320Y-119380
X147320Y-121920
X147320Y-124460
X147320Y-127000
X147320Y-129540
X147320Y-132080
X147320Y-134620
X147320Y-137160
X147320Y-139700
X147320Y-142240
X147320Y-144780
X149860Y-147320
X152400Y-147320
X154940Y-147320
X157480Y-147320
X162560Y-109220
X162560Y-111760
X162560Y-114300
X162560Y-116840
X162560Y-119380
X162560Y-121920
X162560Y-124460
X162560Y-127000
X162560Y-129540
X162560Y-132080
X162560Y-134620
X162560Y-137160
X162560Y-139700
X162560Y-142240
X162560Y-144780
X165100Y-109220
X165100Y-111760
X165100Y-114300
X165100Y-116840
X165100Y-119380
X165100Y-121920
X165100Y-124460
X165100Y-127000
X165100Y-129540
X165100Y-132080
X165100Y-134620
X165100Y-137160
X165100Y-139700
X165100Y-142240
X165100Y-144780
X170180Y-124460
X170180Y-127000
X170180Y-129540
X170180Y-132080
X172720Y-124460
X172720Y-127000
X172720Y-129540
X172720Y-132080
T2
X103000Y-108000
X103000Y-147000
X172000Y-108000
X172000Y-147000
T1
X132350Y-137160G85X134350Y-137160
G05
X132350Y-143160G85X134350Y-143160
G05
X138050Y-141160G85X138050Y-139160
G05
T0
M30
