G04 #@! TF.FileFunction,Legend,Top*
%FSLAX46Y46*%
G04 Gerber Fmt 4.6, Leading zero omitted, Abs format (unit mm)*
G04 Created by KiCad (PCBNEW 4.0.7-e2-6376~58~ubuntu16.04.1) date Wed Dec 27 17:52:43 2017*
%MOMM*%
%LPD*%
G01*
G04 APERTURE LIST*
%ADD10C,0.100000*%
%ADD11C,0.300000*%
%ADD12C,0.200000*%
%ADD13C,0.250000*%
%ADD14C,0.120000*%
%ADD15C,0.150000*%
G04 APERTURE END LIST*
D10*
X151257618Y-143221905D02*
X151257618Y-142421905D01*
X151524285Y-142993333D01*
X151790952Y-142421905D01*
X151790952Y-143221905D01*
X152286190Y-143221905D02*
X152209999Y-143183810D01*
X152171904Y-143145714D01*
X152133809Y-143069524D01*
X152133809Y-142840952D01*
X152171904Y-142764762D01*
X152209999Y-142726667D01*
X152286190Y-142688571D01*
X152400476Y-142688571D01*
X152476666Y-142726667D01*
X152514761Y-142764762D01*
X152552857Y-142840952D01*
X152552857Y-143069524D01*
X152514761Y-143145714D01*
X152476666Y-143183810D01*
X152400476Y-143221905D01*
X152286190Y-143221905D01*
X152781428Y-142688571D02*
X153086190Y-142688571D01*
X152895714Y-142421905D02*
X152895714Y-143107619D01*
X152933809Y-143183810D01*
X153010000Y-143221905D01*
X153086190Y-143221905D01*
X153352857Y-143221905D02*
X153352857Y-142688571D01*
X153352857Y-142421905D02*
X153314762Y-142460000D01*
X153352857Y-142498095D01*
X153390952Y-142460000D01*
X153352857Y-142421905D01*
X153352857Y-142498095D01*
X153848095Y-143221905D02*
X153771904Y-143183810D01*
X153733809Y-143145714D01*
X153695714Y-143069524D01*
X153695714Y-142840952D01*
X153733809Y-142764762D01*
X153771904Y-142726667D01*
X153848095Y-142688571D01*
X153962381Y-142688571D01*
X154038571Y-142726667D01*
X154076666Y-142764762D01*
X154114762Y-142840952D01*
X154114762Y-143069524D01*
X154076666Y-143145714D01*
X154038571Y-143183810D01*
X153962381Y-143221905D01*
X153848095Y-143221905D01*
X154457619Y-142688571D02*
X154457619Y-143221905D01*
X154457619Y-142764762D02*
X154495714Y-142726667D01*
X154571905Y-142688571D01*
X154686191Y-142688571D01*
X154762381Y-142726667D01*
X154800476Y-142802857D01*
X154800476Y-143221905D01*
X155790953Y-143221905D02*
X155790953Y-142688571D01*
X155790953Y-142421905D02*
X155752858Y-142460000D01*
X155790953Y-142498095D01*
X155829048Y-142460000D01*
X155790953Y-142421905D01*
X155790953Y-142498095D01*
X156171905Y-142688571D02*
X156171905Y-143221905D01*
X156171905Y-142764762D02*
X156210000Y-142726667D01*
X156286191Y-142688571D01*
X156400477Y-142688571D01*
X156476667Y-142726667D01*
X156514762Y-142802857D01*
X156514762Y-143221905D01*
X156781429Y-142688571D02*
X157086191Y-142688571D01*
X156895715Y-142421905D02*
X156895715Y-143107619D01*
X156933810Y-143183810D01*
X157010001Y-143221905D01*
X157086191Y-143221905D01*
X157657620Y-143183810D02*
X157581430Y-143221905D01*
X157429049Y-143221905D01*
X157352858Y-143183810D01*
X157314763Y-143107619D01*
X157314763Y-142802857D01*
X157352858Y-142726667D01*
X157429049Y-142688571D01*
X157581430Y-142688571D01*
X157657620Y-142726667D01*
X157695715Y-142802857D01*
X157695715Y-142879048D01*
X157314763Y-142955238D01*
X158038572Y-143221905D02*
X158038572Y-142688571D01*
X158038572Y-142840952D02*
X158076667Y-142764762D01*
X158114763Y-142726667D01*
X158190953Y-142688571D01*
X158267144Y-142688571D01*
X158533810Y-143221905D02*
X158533810Y-142688571D01*
X158533810Y-142840952D02*
X158571905Y-142764762D01*
X158610001Y-142726667D01*
X158686191Y-142688571D01*
X158762382Y-142688571D01*
X159371905Y-142688571D02*
X159371905Y-143221905D01*
X159029048Y-142688571D02*
X159029048Y-143107619D01*
X159067143Y-143183810D01*
X159143334Y-143221905D01*
X159257620Y-143221905D01*
X159333810Y-143183810D01*
X159371905Y-143145714D01*
X159752858Y-142688571D02*
X159752858Y-143488571D01*
X159752858Y-142726667D02*
X159829049Y-142688571D01*
X159981430Y-142688571D01*
X160057620Y-142726667D01*
X160095715Y-142764762D01*
X160133811Y-142840952D01*
X160133811Y-143069524D01*
X160095715Y-143145714D01*
X160057620Y-143183810D01*
X159981430Y-143221905D01*
X159829049Y-143221905D01*
X159752858Y-143183810D01*
X160362382Y-142688571D02*
X160667144Y-142688571D01*
X160476668Y-142421905D02*
X160476668Y-143107619D01*
X160514763Y-143183810D01*
X160590954Y-143221905D01*
X160667144Y-143221905D01*
X153657619Y-144826667D02*
X153619523Y-144788571D01*
X153543333Y-144674286D01*
X153505238Y-144598095D01*
X153467142Y-144483810D01*
X153429047Y-144293333D01*
X153429047Y-144140952D01*
X153467142Y-143950476D01*
X153505238Y-143836190D01*
X153543333Y-143760000D01*
X153619523Y-143645714D01*
X153657619Y-143607619D01*
X154076666Y-144521905D02*
X154000475Y-144483810D01*
X153962380Y-144445714D01*
X153924285Y-144369524D01*
X153924285Y-144140952D01*
X153962380Y-144064762D01*
X154000475Y-144026667D01*
X154076666Y-143988571D01*
X154190952Y-143988571D01*
X154267142Y-144026667D01*
X154305237Y-144064762D01*
X154343333Y-144140952D01*
X154343333Y-144369524D01*
X154305237Y-144445714D01*
X154267142Y-144483810D01*
X154190952Y-144521905D01*
X154076666Y-144521905D01*
X154686190Y-143988571D02*
X154686190Y-144788571D01*
X154686190Y-144026667D02*
X154762381Y-143988571D01*
X154914762Y-143988571D01*
X154990952Y-144026667D01*
X155029047Y-144064762D01*
X155067143Y-144140952D01*
X155067143Y-144369524D01*
X155029047Y-144445714D01*
X154990952Y-144483810D01*
X154914762Y-144521905D01*
X154762381Y-144521905D01*
X154686190Y-144483810D01*
X155295714Y-143988571D02*
X155600476Y-143988571D01*
X155410000Y-143721905D02*
X155410000Y-144407619D01*
X155448095Y-144483810D01*
X155524286Y-144521905D01*
X155600476Y-144521905D01*
X155867143Y-144521905D02*
X155867143Y-143988571D01*
X155867143Y-143721905D02*
X155829048Y-143760000D01*
X155867143Y-143798095D01*
X155905238Y-143760000D01*
X155867143Y-143721905D01*
X155867143Y-143798095D01*
X156362381Y-144521905D02*
X156286190Y-144483810D01*
X156248095Y-144445714D01*
X156210000Y-144369524D01*
X156210000Y-144140952D01*
X156248095Y-144064762D01*
X156286190Y-144026667D01*
X156362381Y-143988571D01*
X156476667Y-143988571D01*
X156552857Y-144026667D01*
X156590952Y-144064762D01*
X156629048Y-144140952D01*
X156629048Y-144369524D01*
X156590952Y-144445714D01*
X156552857Y-144483810D01*
X156476667Y-144521905D01*
X156362381Y-144521905D01*
X156971905Y-143988571D02*
X156971905Y-144521905D01*
X156971905Y-144064762D02*
X157010000Y-144026667D01*
X157086191Y-143988571D01*
X157200477Y-143988571D01*
X157276667Y-144026667D01*
X157314762Y-144102857D01*
X157314762Y-144521905D01*
X158038572Y-144521905D02*
X158038572Y-144102857D01*
X158000477Y-144026667D01*
X157924287Y-143988571D01*
X157771906Y-143988571D01*
X157695715Y-144026667D01*
X158038572Y-144483810D02*
X157962382Y-144521905D01*
X157771906Y-144521905D01*
X157695715Y-144483810D01*
X157657620Y-144407619D01*
X157657620Y-144331429D01*
X157695715Y-144255238D01*
X157771906Y-144217143D01*
X157962382Y-144217143D01*
X158038572Y-144179048D01*
X158533811Y-144521905D02*
X158457620Y-144483810D01*
X158419525Y-144407619D01*
X158419525Y-143721905D01*
X158762383Y-144826667D02*
X158800478Y-144788571D01*
X158876668Y-144674286D01*
X158914764Y-144598095D01*
X158952859Y-144483810D01*
X158990954Y-144293333D01*
X158990954Y-144140952D01*
X158952859Y-143950476D01*
X158914764Y-143836190D01*
X158876668Y-143760000D01*
X158800478Y-143645714D01*
X158762383Y-143607619D01*
X116267477Y-105453000D02*
X116191286Y-105414905D01*
X116077001Y-105414905D01*
X115962715Y-105453000D01*
X115886524Y-105529190D01*
X115848429Y-105605381D01*
X115810334Y-105757762D01*
X115810334Y-105872048D01*
X115848429Y-106024429D01*
X115886524Y-106100619D01*
X115962715Y-106176810D01*
X116077001Y-106214905D01*
X116153191Y-106214905D01*
X116267477Y-106176810D01*
X116305572Y-106138714D01*
X116305572Y-105872048D01*
X116153191Y-105872048D01*
X116648429Y-106214905D02*
X116648429Y-105414905D01*
X117105572Y-106214905D01*
X117105572Y-105414905D01*
X117486524Y-106214905D02*
X117486524Y-105414905D01*
X117677000Y-105414905D01*
X117791286Y-105453000D01*
X117867477Y-105529190D01*
X117905572Y-105605381D01*
X117943667Y-105757762D01*
X117943667Y-105872048D01*
X117905572Y-106024429D01*
X117867477Y-106100619D01*
X117791286Y-106176810D01*
X117677000Y-106214905D01*
X117486524Y-106214905D01*
X119724620Y-106164905D02*
X119343667Y-106164905D01*
X119343667Y-105364905D01*
X122324619Y-106214905D02*
X122057952Y-105833952D01*
X121867476Y-106214905D02*
X121867476Y-105414905D01*
X122172238Y-105414905D01*
X122248429Y-105453000D01*
X122286524Y-105491095D01*
X122324619Y-105567286D01*
X122324619Y-105681571D01*
X122286524Y-105757762D01*
X122248429Y-105795857D01*
X122172238Y-105833952D01*
X121867476Y-105833952D01*
X169570477Y-113900000D02*
X169494286Y-113861905D01*
X169380001Y-113861905D01*
X169265715Y-113900000D01*
X169189524Y-113976190D01*
X169151429Y-114052381D01*
X169113334Y-114204762D01*
X169113334Y-114319048D01*
X169151429Y-114471429D01*
X169189524Y-114547619D01*
X169265715Y-114623810D01*
X169380001Y-114661905D01*
X169456191Y-114661905D01*
X169570477Y-114623810D01*
X169608572Y-114585714D01*
X169608572Y-114319048D01*
X169456191Y-114319048D01*
X169951429Y-114661905D02*
X169951429Y-113861905D01*
X170408572Y-114661905D01*
X170408572Y-113861905D01*
X170789524Y-114661905D02*
X170789524Y-113861905D01*
X170980000Y-113861905D01*
X171094286Y-113900000D01*
X171170477Y-113976190D01*
X171208572Y-114052381D01*
X171246667Y-114204762D01*
X171246667Y-114319048D01*
X171208572Y-114471429D01*
X171170477Y-114547619D01*
X171094286Y-114623810D01*
X170980000Y-114661905D01*
X170789524Y-114661905D01*
D11*
X111125095Y-105933857D02*
X112648905Y-105933857D01*
X108458095Y-105933857D02*
X109981905Y-105933857D01*
X109220000Y-106695762D02*
X109220000Y-105171952D01*
D12*
X171450000Y-144145000D02*
X171450000Y-132461000D01*
D13*
X154349405Y-111554762D02*
X154486309Y-111602381D01*
X154724405Y-111602381D01*
X154825596Y-111554762D01*
X154879167Y-111507143D01*
X154938691Y-111411905D01*
X154950596Y-111316667D01*
X154914881Y-111221429D01*
X154873215Y-111173810D01*
X154783929Y-111126190D01*
X154599405Y-111078571D01*
X154510119Y-111030952D01*
X154468452Y-110983333D01*
X154432738Y-110888095D01*
X154444643Y-110792857D01*
X154504167Y-110697619D01*
X154557738Y-110650000D01*
X154658928Y-110602381D01*
X154897024Y-110602381D01*
X155033929Y-110650000D01*
X155486309Y-111602381D02*
X155397024Y-111554762D01*
X155355357Y-111507143D01*
X155319643Y-111411905D01*
X155355357Y-111126190D01*
X155414881Y-111030952D01*
X155468452Y-110983333D01*
X155569643Y-110935714D01*
X155712501Y-110935714D01*
X155801786Y-110983333D01*
X155843453Y-111030952D01*
X155879167Y-111126190D01*
X155843453Y-111411905D01*
X155783929Y-111507143D01*
X155730358Y-111554762D01*
X155629167Y-111602381D01*
X155486309Y-111602381D01*
X156760120Y-110935714D02*
X156676786Y-111602381D01*
X156331548Y-110935714D02*
X156266072Y-111459524D01*
X156301786Y-111554762D01*
X156391071Y-111602381D01*
X156533929Y-111602381D01*
X156635120Y-111554762D01*
X156688691Y-111507143D01*
X157236310Y-110935714D02*
X157152976Y-111602381D01*
X157224405Y-111030952D02*
X157277976Y-110983333D01*
X157379167Y-110935714D01*
X157522025Y-110935714D01*
X157611310Y-110983333D01*
X157647025Y-111078571D01*
X157581548Y-111602381D01*
X158486310Y-111602381D02*
X158611310Y-110602381D01*
X158492263Y-111554762D02*
X158391072Y-111602381D01*
X158200595Y-111602381D01*
X158111310Y-111554762D01*
X158069643Y-111507143D01*
X158033929Y-111411905D01*
X158069643Y-111126190D01*
X158129167Y-111030952D01*
X158182738Y-110983333D01*
X158283929Y-110935714D01*
X158474406Y-110935714D01*
X158563691Y-110983333D01*
X159724405Y-111602381D02*
X159849405Y-110602381D01*
X160093454Y-111316667D01*
X160516072Y-110602381D01*
X160391072Y-111602381D01*
X161295834Y-111602381D02*
X161361311Y-111078571D01*
X161325596Y-110983333D01*
X161236311Y-110935714D01*
X161045834Y-110935714D01*
X160944643Y-110983333D01*
X161301787Y-111554762D02*
X161200596Y-111602381D01*
X160962500Y-111602381D01*
X160873215Y-111554762D01*
X160837501Y-111459524D01*
X160849405Y-111364286D01*
X160908929Y-111269048D01*
X161010119Y-111221429D01*
X161248215Y-111221429D01*
X161349406Y-111173810D01*
X162206549Y-111554762D02*
X162105358Y-111602381D01*
X161914881Y-111602381D01*
X161825596Y-111554762D01*
X161783929Y-111507143D01*
X161748215Y-111411905D01*
X161783929Y-111126190D01*
X161843453Y-111030952D01*
X161897024Y-110983333D01*
X161998215Y-110935714D01*
X162188692Y-110935714D01*
X162277977Y-110983333D01*
X162629167Y-111602381D02*
X162754167Y-110602381D01*
X163057739Y-111602381D02*
X163123216Y-111078571D01*
X163087501Y-110983333D01*
X162998216Y-110935714D01*
X162855358Y-110935714D01*
X162754167Y-110983333D01*
X162700596Y-111030952D01*
X163533929Y-111602381D02*
X163617263Y-110935714D01*
X163658929Y-110602381D02*
X163605358Y-110650000D01*
X163647025Y-110697619D01*
X163700596Y-110650000D01*
X163658929Y-110602381D01*
X163647025Y-110697619D01*
X164093453Y-110935714D02*
X164010119Y-111602381D01*
X164081548Y-111030952D02*
X164135119Y-110983333D01*
X164236310Y-110935714D01*
X164379168Y-110935714D01*
X164468453Y-110983333D01*
X164504168Y-111078571D01*
X164438691Y-111602381D01*
X165301787Y-111554762D02*
X165200596Y-111602381D01*
X165010119Y-111602381D01*
X164920834Y-111554762D01*
X164885120Y-111459524D01*
X164932739Y-111078571D01*
X164992262Y-110983333D01*
X165093453Y-110935714D01*
X165283930Y-110935714D01*
X165373215Y-110983333D01*
X165408930Y-111078571D01*
X165397025Y-111173810D01*
X164908929Y-111269048D01*
X155391070Y-113352381D02*
X155516070Y-112352381D01*
X155897023Y-112352381D01*
X155986309Y-112400000D01*
X156027976Y-112447619D01*
X156063690Y-112542857D01*
X156045833Y-112685714D01*
X155986309Y-112780952D01*
X155932738Y-112828571D01*
X155831547Y-112876190D01*
X155450594Y-112876190D01*
X156777976Y-113304762D02*
X156676785Y-113352381D01*
X156486308Y-113352381D01*
X156397023Y-113304762D01*
X156361309Y-113209524D01*
X156408928Y-112828571D01*
X156468451Y-112733333D01*
X156569642Y-112685714D01*
X156760119Y-112685714D01*
X156849404Y-112733333D01*
X156885119Y-112828571D01*
X156873214Y-112923810D01*
X156385118Y-113019048D01*
X157188690Y-112685714D02*
X157569642Y-112685714D01*
X157373213Y-112352381D02*
X157266071Y-113209524D01*
X157301785Y-113304762D01*
X157391070Y-113352381D01*
X157486308Y-113352381D01*
X158206548Y-113304762D02*
X158105357Y-113352381D01*
X157914880Y-113352381D01*
X157825595Y-113304762D01*
X157789881Y-113209524D01*
X157837500Y-112828571D01*
X157897023Y-112733333D01*
X157998214Y-112685714D01*
X158188691Y-112685714D01*
X158277976Y-112733333D01*
X158313691Y-112828571D01*
X158301786Y-112923810D01*
X157813690Y-113019048D01*
X158676785Y-113352381D02*
X158760119Y-112685714D01*
X158736309Y-112876190D02*
X158795833Y-112780952D01*
X158849404Y-112733333D01*
X158950595Y-112685714D01*
X159045834Y-112685714D01*
X160641072Y-113257143D02*
X160587501Y-113304762D01*
X160438691Y-113352381D01*
X160343453Y-113352381D01*
X160206548Y-113304762D01*
X160123215Y-113209524D01*
X160087500Y-113114286D01*
X160063691Y-112923810D01*
X160081548Y-112780952D01*
X160152977Y-112590476D01*
X160212500Y-112495238D01*
X160319643Y-112400000D01*
X160468453Y-112352381D01*
X160563691Y-112352381D01*
X160700596Y-112400000D01*
X160742263Y-112447619D01*
X161200595Y-113352381D02*
X161111310Y-113304762D01*
X161075596Y-113209524D01*
X161182738Y-112352381D01*
X162010120Y-113352381D02*
X162075597Y-112828571D01*
X162039882Y-112733333D01*
X161950597Y-112685714D01*
X161760120Y-112685714D01*
X161658929Y-112733333D01*
X162016073Y-113304762D02*
X161914882Y-113352381D01*
X161676786Y-113352381D01*
X161587501Y-113304762D01*
X161551787Y-113209524D01*
X161563691Y-113114286D01*
X161623215Y-113019048D01*
X161724405Y-112971429D01*
X161962501Y-112971429D01*
X162063692Y-112923810D01*
X162486310Y-113352381D02*
X162569644Y-112685714D01*
X162545834Y-112876190D02*
X162605358Y-112780952D01*
X162658929Y-112733333D01*
X162760120Y-112685714D01*
X162855359Y-112685714D01*
X163105358Y-113352381D02*
X163230358Y-112352381D01*
X163248215Y-112971429D02*
X163486311Y-113352381D01*
X163569645Y-112685714D02*
X163141073Y-113066667D01*
X164301788Y-113304762D02*
X164200597Y-113352381D01*
X164010120Y-113352381D01*
X163920835Y-113304762D01*
X163885121Y-113209524D01*
X163932740Y-112828571D01*
X163992263Y-112733333D01*
X164093454Y-112685714D01*
X164283931Y-112685714D01*
X164373216Y-112733333D01*
X164408931Y-112828571D01*
X164397026Y-112923810D01*
X163908930Y-113019048D01*
X155325595Y-114102381D02*
X155236310Y-114816667D01*
X155170833Y-114959524D01*
X155063690Y-115054762D01*
X154914880Y-115102381D01*
X154819642Y-115102381D01*
X156105357Y-115102381D02*
X156170834Y-114578571D01*
X156135119Y-114483333D01*
X156045834Y-114435714D01*
X155855357Y-114435714D01*
X155754166Y-114483333D01*
X156111310Y-115054762D02*
X156010119Y-115102381D01*
X155772023Y-115102381D01*
X155682738Y-115054762D01*
X155647024Y-114959524D01*
X155658928Y-114864286D01*
X155718452Y-114769048D01*
X155819642Y-114721429D01*
X156057738Y-114721429D01*
X156158929Y-114673810D01*
X156664881Y-114435714D02*
X156581547Y-115102381D01*
X156652976Y-114530952D02*
X156706547Y-114483333D01*
X156807738Y-114435714D01*
X156950596Y-114435714D01*
X157039881Y-114483333D01*
X157075596Y-114578571D01*
X157010119Y-115102381D01*
X157998215Y-114435714D02*
X157914881Y-115102381D01*
X157569643Y-114435714D02*
X157504167Y-114959524D01*
X157539881Y-115054762D01*
X157629166Y-115102381D01*
X157772024Y-115102381D01*
X157873215Y-115054762D01*
X157926786Y-115007143D01*
X158819643Y-115102381D02*
X158885120Y-114578571D01*
X158849405Y-114483333D01*
X158760120Y-114435714D01*
X158569643Y-114435714D01*
X158468452Y-114483333D01*
X158825596Y-115054762D02*
X158724405Y-115102381D01*
X158486309Y-115102381D01*
X158397024Y-115054762D01*
X158361310Y-114959524D01*
X158373214Y-114864286D01*
X158432738Y-114769048D01*
X158533928Y-114721429D01*
X158772024Y-114721429D01*
X158873215Y-114673810D01*
X159295833Y-115102381D02*
X159379167Y-114435714D01*
X159355357Y-114626190D02*
X159414881Y-114530952D01*
X159468452Y-114483333D01*
X159569643Y-114435714D01*
X159664882Y-114435714D01*
X159902977Y-114435714D02*
X160057738Y-115102381D01*
X160379168Y-114435714D02*
X160057738Y-115102381D01*
X159932738Y-115340476D01*
X159879167Y-115388095D01*
X159777977Y-115435714D01*
X161504168Y-114197619D02*
X161557739Y-114150000D01*
X161658929Y-114102381D01*
X161897025Y-114102381D01*
X161986311Y-114150000D01*
X162027978Y-114197619D01*
X162063692Y-114292857D01*
X162051787Y-114388095D01*
X161986311Y-114530952D01*
X161343453Y-115102381D01*
X161962501Y-115102381D01*
X162706548Y-114102381D02*
X162801787Y-114102381D01*
X162891073Y-114150000D01*
X162932740Y-114197619D01*
X162968454Y-114292857D01*
X162992263Y-114483333D01*
X162962501Y-114721429D01*
X162891073Y-114911905D01*
X162831549Y-115007143D01*
X162777978Y-115054762D01*
X162676787Y-115102381D01*
X162581548Y-115102381D01*
X162492263Y-115054762D01*
X162450596Y-115007143D01*
X162414882Y-114911905D01*
X162391072Y-114721429D01*
X162420834Y-114483333D01*
X162492263Y-114292857D01*
X162551787Y-114197619D01*
X162605358Y-114150000D01*
X162706548Y-114102381D01*
X163867263Y-115102381D02*
X163295834Y-115102381D01*
X163581548Y-115102381D02*
X163706548Y-114102381D01*
X163593453Y-114245238D01*
X163486311Y-114340476D01*
X163385120Y-114388095D01*
X164510120Y-114530952D02*
X164420834Y-114483333D01*
X164379168Y-114435714D01*
X164343454Y-114340476D01*
X164349406Y-114292857D01*
X164408930Y-114197619D01*
X164462501Y-114150000D01*
X164563691Y-114102381D01*
X164754168Y-114102381D01*
X164843454Y-114150000D01*
X164885121Y-114197619D01*
X164920835Y-114292857D01*
X164914883Y-114340476D01*
X164855359Y-114435714D01*
X164801787Y-114483333D01*
X164700597Y-114530952D01*
X164510120Y-114530952D01*
X164408930Y-114578571D01*
X164355358Y-114626190D01*
X164295834Y-114721429D01*
X164272025Y-114911905D01*
X164307739Y-115007143D01*
X164349406Y-115054762D01*
X164438691Y-115102381D01*
X164629168Y-115102381D01*
X164730359Y-115054762D01*
X164783930Y-115007143D01*
X164843454Y-114911905D01*
X164867263Y-114721429D01*
X164831549Y-114626190D01*
X164789883Y-114578571D01*
X164700597Y-114530952D01*
D10*
X108280476Y-110163810D02*
X108394762Y-110201905D01*
X108585238Y-110201905D01*
X108661428Y-110163810D01*
X108699524Y-110125714D01*
X108737619Y-110049524D01*
X108737619Y-109973333D01*
X108699524Y-109897143D01*
X108661428Y-109859048D01*
X108585238Y-109820952D01*
X108432857Y-109782857D01*
X108356666Y-109744762D01*
X108318571Y-109706667D01*
X108280476Y-109630476D01*
X108280476Y-109554286D01*
X108318571Y-109478095D01*
X108356666Y-109440000D01*
X108432857Y-109401905D01*
X108623333Y-109401905D01*
X108737619Y-109440000D01*
X109080476Y-109668571D02*
X109080476Y-110468571D01*
X109080476Y-109706667D02*
X109156667Y-109668571D01*
X109309048Y-109668571D01*
X109385238Y-109706667D01*
X109423333Y-109744762D01*
X109461429Y-109820952D01*
X109461429Y-110049524D01*
X109423333Y-110125714D01*
X109385238Y-110163810D01*
X109309048Y-110201905D01*
X109156667Y-110201905D01*
X109080476Y-110163810D01*
X110109048Y-110163810D02*
X110032858Y-110201905D01*
X109880477Y-110201905D01*
X109804286Y-110163810D01*
X109766191Y-110087619D01*
X109766191Y-109782857D01*
X109804286Y-109706667D01*
X109880477Y-109668571D01*
X110032858Y-109668571D01*
X110109048Y-109706667D01*
X110147143Y-109782857D01*
X110147143Y-109859048D01*
X109766191Y-109935238D01*
X110832857Y-110201905D02*
X110832857Y-109782857D01*
X110794762Y-109706667D01*
X110718572Y-109668571D01*
X110566191Y-109668571D01*
X110490000Y-109706667D01*
X110832857Y-110163810D02*
X110756667Y-110201905D01*
X110566191Y-110201905D01*
X110490000Y-110163810D01*
X110451905Y-110087619D01*
X110451905Y-110011429D01*
X110490000Y-109935238D01*
X110566191Y-109897143D01*
X110756667Y-109897143D01*
X110832857Y-109859048D01*
X111213810Y-110201905D02*
X111213810Y-109401905D01*
X111290001Y-109897143D02*
X111518572Y-110201905D01*
X111518572Y-109668571D02*
X111213810Y-109973333D01*
X112166191Y-110163810D02*
X112090001Y-110201905D01*
X111937620Y-110201905D01*
X111861429Y-110163810D01*
X111823334Y-110087619D01*
X111823334Y-109782857D01*
X111861429Y-109706667D01*
X111937620Y-109668571D01*
X112090001Y-109668571D01*
X112166191Y-109706667D01*
X112204286Y-109782857D01*
X112204286Y-109859048D01*
X111823334Y-109935238D01*
X112547143Y-110201905D02*
X112547143Y-109668571D01*
X112547143Y-109820952D02*
X112585238Y-109744762D01*
X112623334Y-109706667D01*
X112699524Y-109668571D01*
X112775715Y-109668571D01*
X106832856Y-111501905D02*
X106756665Y-111463810D01*
X106718570Y-111387619D01*
X106718570Y-110701905D01*
X107442380Y-111463810D02*
X107366190Y-111501905D01*
X107213809Y-111501905D01*
X107137618Y-111463810D01*
X107099523Y-111387619D01*
X107099523Y-111082857D01*
X107137618Y-111006667D01*
X107213809Y-110968571D01*
X107366190Y-110968571D01*
X107442380Y-111006667D01*
X107480475Y-111082857D01*
X107480475Y-111159048D01*
X107099523Y-111235238D01*
X107785237Y-111463810D02*
X107861427Y-111501905D01*
X108013808Y-111501905D01*
X108089999Y-111463810D01*
X108128094Y-111387619D01*
X108128094Y-111349524D01*
X108089999Y-111273333D01*
X108013808Y-111235238D01*
X107899523Y-111235238D01*
X107823332Y-111197143D01*
X107785237Y-111120952D01*
X107785237Y-111082857D01*
X107823332Y-111006667D01*
X107899523Y-110968571D01*
X108013808Y-110968571D01*
X108089999Y-111006667D01*
X108432856Y-111463810D02*
X108509046Y-111501905D01*
X108661427Y-111501905D01*
X108737618Y-111463810D01*
X108775713Y-111387619D01*
X108775713Y-111349524D01*
X108737618Y-111273333D01*
X108661427Y-111235238D01*
X108547142Y-111235238D01*
X108470951Y-111197143D01*
X108432856Y-111120952D01*
X108432856Y-111082857D01*
X108470951Y-111006667D01*
X108547142Y-110968571D01*
X108661427Y-110968571D01*
X108737618Y-111006667D01*
X109613808Y-110968571D02*
X109918570Y-110968571D01*
X109728094Y-110701905D02*
X109728094Y-111387619D01*
X109766189Y-111463810D01*
X109842380Y-111501905D01*
X109918570Y-111501905D01*
X110185237Y-111501905D02*
X110185237Y-110701905D01*
X110528094Y-111501905D02*
X110528094Y-111082857D01*
X110489999Y-111006667D01*
X110413809Y-110968571D01*
X110299523Y-110968571D01*
X110223332Y-111006667D01*
X110185237Y-111044762D01*
X111251904Y-111501905D02*
X111251904Y-111082857D01*
X111213809Y-111006667D01*
X111137619Y-110968571D01*
X110985238Y-110968571D01*
X110909047Y-111006667D01*
X111251904Y-111463810D02*
X111175714Y-111501905D01*
X110985238Y-111501905D01*
X110909047Y-111463810D01*
X110870952Y-111387619D01*
X110870952Y-111311429D01*
X110909047Y-111235238D01*
X110985238Y-111197143D01*
X111175714Y-111197143D01*
X111251904Y-111159048D01*
X111632857Y-110968571D02*
X111632857Y-111501905D01*
X111632857Y-111044762D02*
X111670952Y-111006667D01*
X111747143Y-110968571D01*
X111861429Y-110968571D01*
X111937619Y-111006667D01*
X111975714Y-111082857D01*
X111975714Y-111501905D01*
X112890001Y-110701905D02*
X113385239Y-110701905D01*
X113118572Y-111006667D01*
X113232858Y-111006667D01*
X113309048Y-111044762D01*
X113347144Y-111082857D01*
X113385239Y-111159048D01*
X113385239Y-111349524D01*
X113347144Y-111425714D01*
X113309048Y-111463810D01*
X113232858Y-111501905D01*
X113004286Y-111501905D01*
X112928096Y-111463810D01*
X112890001Y-111425714D01*
X113651906Y-110701905D02*
X113842382Y-111501905D01*
X113994763Y-110930476D01*
X114147144Y-111501905D01*
X114337620Y-110701905D01*
X116275238Y-110115333D02*
X116656190Y-110115333D01*
X116199047Y-110343905D02*
X116465714Y-109543905D01*
X116732381Y-110343905D01*
X117341904Y-109810571D02*
X117341904Y-110343905D01*
X116999047Y-109810571D02*
X116999047Y-110229619D01*
X117037142Y-110305810D01*
X117113333Y-110343905D01*
X117227619Y-110343905D01*
X117303809Y-110305810D01*
X117341904Y-110267714D01*
X118065714Y-110343905D02*
X118065714Y-109543905D01*
X118065714Y-110305810D02*
X117989524Y-110343905D01*
X117837143Y-110343905D01*
X117760952Y-110305810D01*
X117722857Y-110267714D01*
X117684762Y-110191524D01*
X117684762Y-109962952D01*
X117722857Y-109886762D01*
X117760952Y-109848667D01*
X117837143Y-109810571D01*
X117989524Y-109810571D01*
X118065714Y-109848667D01*
X118446667Y-110343905D02*
X118446667Y-109810571D01*
X118446667Y-109543905D02*
X118408572Y-109582000D01*
X118446667Y-109620095D01*
X118484762Y-109582000D01*
X118446667Y-109543905D01*
X118446667Y-109620095D01*
X118941905Y-110343905D02*
X118865714Y-110305810D01*
X118827619Y-110267714D01*
X118789524Y-110191524D01*
X118789524Y-109962952D01*
X118827619Y-109886762D01*
X118865714Y-109848667D01*
X118941905Y-109810571D01*
X119056191Y-109810571D01*
X119132381Y-109848667D01*
X119170476Y-109886762D01*
X119208572Y-109962952D01*
X119208572Y-110191524D01*
X119170476Y-110267714D01*
X119132381Y-110305810D01*
X119056191Y-110343905D01*
X118941905Y-110343905D01*
X120389525Y-109543905D02*
X120389525Y-110115333D01*
X120351429Y-110229619D01*
X120275239Y-110305810D01*
X120160953Y-110343905D01*
X120084763Y-110343905D01*
X121113334Y-110343905D02*
X121113334Y-109924857D01*
X121075239Y-109848667D01*
X120999049Y-109810571D01*
X120846668Y-109810571D01*
X120770477Y-109848667D01*
X121113334Y-110305810D02*
X121037144Y-110343905D01*
X120846668Y-110343905D01*
X120770477Y-110305810D01*
X120732382Y-110229619D01*
X120732382Y-110153429D01*
X120770477Y-110077238D01*
X120846668Y-110039143D01*
X121037144Y-110039143D01*
X121113334Y-110001048D01*
X121837144Y-110305810D02*
X121760954Y-110343905D01*
X121608573Y-110343905D01*
X121532382Y-110305810D01*
X121494287Y-110267714D01*
X121456192Y-110191524D01*
X121456192Y-109962952D01*
X121494287Y-109886762D01*
X121532382Y-109848667D01*
X121608573Y-109810571D01*
X121760954Y-109810571D01*
X121837144Y-109848667D01*
X122180001Y-110343905D02*
X122180001Y-109543905D01*
X122256192Y-110039143D02*
X122484763Y-110343905D01*
X122484763Y-109810571D02*
X122180001Y-110115333D01*
X121767620Y-118179905D02*
X121386667Y-118179905D01*
X121348572Y-118560857D01*
X121386667Y-118522762D01*
X121462858Y-118484667D01*
X121653334Y-118484667D01*
X121729524Y-118522762D01*
X121767620Y-118560857D01*
X121805715Y-118637048D01*
X121805715Y-118827524D01*
X121767620Y-118903714D01*
X121729524Y-118941810D01*
X121653334Y-118979905D01*
X121462858Y-118979905D01*
X121386667Y-118941810D01*
X121348572Y-118903714D01*
X122034286Y-118179905D02*
X122300953Y-118979905D01*
X122567620Y-118179905D01*
X169303810Y-118941905D02*
X169570477Y-119741905D01*
X169837144Y-118941905D01*
X170103810Y-119741905D02*
X170103810Y-118941905D01*
X170484762Y-119741905D02*
X170484762Y-118941905D01*
X170941905Y-119741905D01*
X170941905Y-118941905D01*
X131470477Y-116440000D02*
X131394286Y-116401905D01*
X131280001Y-116401905D01*
X131165715Y-116440000D01*
X131089524Y-116516190D01*
X131051429Y-116592381D01*
X131013334Y-116744762D01*
X131013334Y-116859048D01*
X131051429Y-117011429D01*
X131089524Y-117087619D01*
X131165715Y-117163810D01*
X131280001Y-117201905D01*
X131356191Y-117201905D01*
X131470477Y-117163810D01*
X131508572Y-117125714D01*
X131508572Y-116859048D01*
X131356191Y-116859048D01*
X131851429Y-117201905D02*
X131851429Y-116401905D01*
X132308572Y-117201905D01*
X132308572Y-116401905D01*
X132689524Y-117201905D02*
X132689524Y-116401905D01*
X132880000Y-116401905D01*
X132994286Y-116440000D01*
X133070477Y-116516190D01*
X133108572Y-116592381D01*
X133146667Y-116744762D01*
X133146667Y-116859048D01*
X133108572Y-117011429D01*
X133070477Y-117087619D01*
X132994286Y-117163810D01*
X132880000Y-117201905D01*
X132689524Y-117201905D01*
X141503477Y-111487000D02*
X141427286Y-111448905D01*
X141313001Y-111448905D01*
X141198715Y-111487000D01*
X141122524Y-111563190D01*
X141084429Y-111639381D01*
X141046334Y-111791762D01*
X141046334Y-111906048D01*
X141084429Y-112058429D01*
X141122524Y-112134619D01*
X141198715Y-112210810D01*
X141313001Y-112248905D01*
X141389191Y-112248905D01*
X141503477Y-112210810D01*
X141541572Y-112172714D01*
X141541572Y-111906048D01*
X141389191Y-111906048D01*
X141884429Y-112248905D02*
X141884429Y-111448905D01*
X142341572Y-112248905D01*
X142341572Y-111448905D01*
X142722524Y-112248905D02*
X142722524Y-111448905D01*
X142913000Y-111448905D01*
X143027286Y-111487000D01*
X143103477Y-111563190D01*
X143141572Y-111639381D01*
X143179667Y-111791762D01*
X143179667Y-111906048D01*
X143141572Y-112058429D01*
X143103477Y-112134619D01*
X143027286Y-112210810D01*
X142913000Y-112248905D01*
X142722524Y-112248905D01*
X142087620Y-116401905D02*
X141706667Y-116401905D01*
X141668572Y-116782857D01*
X141706667Y-116744762D01*
X141782858Y-116706667D01*
X141973334Y-116706667D01*
X142049524Y-116744762D01*
X142087620Y-116782857D01*
X142125715Y-116859048D01*
X142125715Y-117049524D01*
X142087620Y-117125714D01*
X142049524Y-117163810D01*
X141973334Y-117201905D01*
X141782858Y-117201905D01*
X141706667Y-117163810D01*
X141668572Y-117125714D01*
X142354286Y-116401905D02*
X142620953Y-117201905D01*
X142887620Y-116401905D01*
X170027620Y-132276905D02*
X169646667Y-132276905D01*
X169608572Y-132657857D01*
X169646667Y-132619762D01*
X169722858Y-132581667D01*
X169913334Y-132581667D01*
X169989524Y-132619762D01*
X170027620Y-132657857D01*
X170065715Y-132734048D01*
X170065715Y-132924524D01*
X170027620Y-133000714D01*
X169989524Y-133038810D01*
X169913334Y-133076905D01*
X169722858Y-133076905D01*
X169646667Y-133038810D01*
X169608572Y-133000714D01*
X170294286Y-132276905D02*
X170560953Y-133076905D01*
X170827620Y-132276905D01*
X172110477Y-132315000D02*
X172034286Y-132276905D01*
X171920001Y-132276905D01*
X171805715Y-132315000D01*
X171729524Y-132391190D01*
X171691429Y-132467381D01*
X171653334Y-132619762D01*
X171653334Y-132734048D01*
X171691429Y-132886429D01*
X171729524Y-132962619D01*
X171805715Y-133038810D01*
X171920001Y-133076905D01*
X171996191Y-133076905D01*
X172110477Y-133038810D01*
X172148572Y-133000714D01*
X172148572Y-132734048D01*
X171996191Y-132734048D01*
X172491429Y-133076905D02*
X172491429Y-132276905D01*
X172948572Y-133076905D01*
X172948572Y-132276905D01*
X173329524Y-133076905D02*
X173329524Y-132276905D01*
X173520000Y-132276905D01*
X173634286Y-132315000D01*
X173710477Y-132391190D01*
X173748572Y-132467381D01*
X173786667Y-132619762D01*
X173786667Y-132734048D01*
X173748572Y-132886429D01*
X173710477Y-132962619D01*
X173634286Y-133038810D01*
X173520000Y-133076905D01*
X173329524Y-133076905D01*
X170027620Y-125926905D02*
X169646667Y-125926905D01*
X169608572Y-126307857D01*
X169646667Y-126269762D01*
X169722858Y-126231667D01*
X169913334Y-126231667D01*
X169989524Y-126269762D01*
X170027620Y-126307857D01*
X170065715Y-126384048D01*
X170065715Y-126574524D01*
X170027620Y-126650714D01*
X169989524Y-126688810D01*
X169913334Y-126726905D01*
X169722858Y-126726905D01*
X169646667Y-126688810D01*
X169608572Y-126650714D01*
X170294286Y-125926905D02*
X170560953Y-126726905D01*
X170827620Y-125926905D01*
D11*
X135327143Y-141303571D02*
X135327143Y-142517857D01*
X135398571Y-142660714D01*
X135470000Y-142732143D01*
X135612857Y-142803571D01*
X135898571Y-142803571D01*
X136041429Y-142732143D01*
X136112857Y-142660714D01*
X136184286Y-142517857D01*
X136184286Y-141303571D01*
X136827143Y-142732143D02*
X137041429Y-142803571D01*
X137398572Y-142803571D01*
X137541429Y-142732143D01*
X137612858Y-142660714D01*
X137684286Y-142517857D01*
X137684286Y-142375000D01*
X137612858Y-142232143D01*
X137541429Y-142160714D01*
X137398572Y-142089286D01*
X137112858Y-142017857D01*
X136970000Y-141946429D01*
X136898572Y-141875000D01*
X136827143Y-141732143D01*
X136827143Y-141589286D01*
X136898572Y-141446429D01*
X136970000Y-141375000D01*
X137112858Y-141303571D01*
X137470000Y-141303571D01*
X137684286Y-141375000D01*
X138827143Y-142017857D02*
X139041429Y-142089286D01*
X139112857Y-142160714D01*
X139184286Y-142303571D01*
X139184286Y-142517857D01*
X139112857Y-142660714D01*
X139041429Y-142732143D01*
X138898571Y-142803571D01*
X138327143Y-142803571D01*
X138327143Y-141303571D01*
X138827143Y-141303571D01*
X138970000Y-141375000D01*
X139041429Y-141446429D01*
X139112857Y-141589286D01*
X139112857Y-141732143D01*
X139041429Y-141875000D01*
X138970000Y-141946429D01*
X138827143Y-142017857D01*
X138327143Y-142017857D01*
X132720000Y-144353571D02*
X133291429Y-144353571D01*
X132934286Y-143853571D02*
X132934286Y-145139286D01*
X133005714Y-145282143D01*
X133148572Y-145353571D01*
X133291429Y-145353571D01*
X133791429Y-145353571D02*
X133791429Y-143853571D01*
X134434286Y-145353571D02*
X134434286Y-144567857D01*
X134362857Y-144425000D01*
X134220000Y-144353571D01*
X134005715Y-144353571D01*
X133862857Y-144425000D01*
X133791429Y-144496429D01*
X135148572Y-145353571D02*
X135148572Y-144353571D01*
X135148572Y-143853571D02*
X135077143Y-143925000D01*
X135148572Y-143996429D01*
X135220000Y-143925000D01*
X135148572Y-143853571D01*
X135148572Y-143996429D01*
X135791429Y-145282143D02*
X135934286Y-145353571D01*
X136220001Y-145353571D01*
X136362858Y-145282143D01*
X136434286Y-145139286D01*
X136434286Y-145067857D01*
X136362858Y-144925000D01*
X136220001Y-144853571D01*
X136005715Y-144853571D01*
X135862858Y-144782143D01*
X135791429Y-144639286D01*
X135791429Y-144567857D01*
X135862858Y-144425000D01*
X136005715Y-144353571D01*
X136220001Y-144353571D01*
X136362858Y-144425000D01*
X138791429Y-145282143D02*
X138648572Y-145353571D01*
X138362858Y-145353571D01*
X138220001Y-145282143D01*
X138148572Y-145139286D01*
X138148572Y-144567857D01*
X138220001Y-144425000D01*
X138362858Y-144353571D01*
X138648572Y-144353571D01*
X138791429Y-144425000D01*
X138862858Y-144567857D01*
X138862858Y-144710714D01*
X138148572Y-144853571D01*
X139505715Y-144353571D02*
X139505715Y-145353571D01*
X139505715Y-144496429D02*
X139577143Y-144425000D01*
X139720001Y-144353571D01*
X139934286Y-144353571D01*
X140077143Y-144425000D01*
X140148572Y-144567857D01*
X140148572Y-145353571D01*
X141505715Y-145353571D02*
X141505715Y-143853571D01*
X141505715Y-145282143D02*
X141362858Y-145353571D01*
X141077144Y-145353571D01*
X140934286Y-145282143D01*
X140862858Y-145210714D01*
X140791429Y-145067857D01*
X140791429Y-144639286D01*
X140862858Y-144496429D01*
X140934286Y-144425000D01*
X141077144Y-144353571D01*
X141362858Y-144353571D01*
X141505715Y-144425000D01*
X133527143Y-127375000D02*
X134241429Y-127375000D01*
X133384286Y-127803571D02*
X133884286Y-126303571D01*
X134384286Y-127803571D01*
X134884286Y-127803571D02*
X134884286Y-126803571D01*
X134884286Y-127089286D02*
X134955714Y-126946429D01*
X135027143Y-126875000D01*
X135170000Y-126803571D01*
X135312857Y-126803571D01*
X136455714Y-127803571D02*
X136455714Y-126303571D01*
X136455714Y-127732143D02*
X136312857Y-127803571D01*
X136027143Y-127803571D01*
X135884285Y-127732143D01*
X135812857Y-127660714D01*
X135741428Y-127517857D01*
X135741428Y-127089286D01*
X135812857Y-126946429D01*
X135884285Y-126875000D01*
X136027143Y-126803571D01*
X136312857Y-126803571D01*
X136455714Y-126875000D01*
X137812857Y-126803571D02*
X137812857Y-127803571D01*
X137170000Y-126803571D02*
X137170000Y-127589286D01*
X137241428Y-127732143D01*
X137384286Y-127803571D01*
X137598571Y-127803571D01*
X137741428Y-127732143D01*
X137812857Y-127660714D01*
X138527143Y-127803571D02*
X138527143Y-126803571D01*
X138527143Y-126303571D02*
X138455714Y-126375000D01*
X138527143Y-126446429D01*
X138598571Y-126375000D01*
X138527143Y-126303571D01*
X138527143Y-126446429D01*
X139241429Y-126803571D02*
X139241429Y-127803571D01*
X139241429Y-126946429D02*
X139312857Y-126875000D01*
X139455715Y-126803571D01*
X139670000Y-126803571D01*
X139812857Y-126875000D01*
X139884286Y-127017857D01*
X139884286Y-127803571D01*
X140812858Y-127803571D02*
X140670000Y-127732143D01*
X140598572Y-127660714D01*
X140527143Y-127517857D01*
X140527143Y-127089286D01*
X140598572Y-126946429D01*
X140670000Y-126875000D01*
X140812858Y-126803571D01*
X141027143Y-126803571D01*
X141170000Y-126875000D01*
X141241429Y-126946429D01*
X141312858Y-127089286D01*
X141312858Y-127517857D01*
X141241429Y-127660714D01*
X141170000Y-127732143D01*
X141027143Y-127803571D01*
X140812858Y-127803571D01*
X134955714Y-130353571D02*
X134955714Y-128853571D01*
X135812857Y-130353571D01*
X135812857Y-128853571D01*
X137170000Y-130353571D02*
X137170000Y-129567857D01*
X137098571Y-129425000D01*
X136955714Y-129353571D01*
X136670000Y-129353571D01*
X136527143Y-129425000D01*
X137170000Y-130282143D02*
X137027143Y-130353571D01*
X136670000Y-130353571D01*
X136527143Y-130282143D01*
X136455714Y-130139286D01*
X136455714Y-129996429D01*
X136527143Y-129853571D01*
X136670000Y-129782143D01*
X137027143Y-129782143D01*
X137170000Y-129710714D01*
X137884286Y-129353571D02*
X137884286Y-130353571D01*
X137884286Y-129496429D02*
X137955714Y-129425000D01*
X138098572Y-129353571D01*
X138312857Y-129353571D01*
X138455714Y-129425000D01*
X138527143Y-129567857D01*
X138527143Y-130353571D01*
X139455715Y-130353571D02*
X139312857Y-130282143D01*
X139241429Y-130210714D01*
X139170000Y-130067857D01*
X139170000Y-129639286D01*
X139241429Y-129496429D01*
X139312857Y-129425000D01*
X139455715Y-129353571D01*
X139670000Y-129353571D01*
X139812857Y-129425000D01*
X139884286Y-129496429D01*
X139955715Y-129639286D01*
X139955715Y-130067857D01*
X139884286Y-130210714D01*
X139812857Y-130282143D01*
X139670000Y-130353571D01*
X139455715Y-130353571D01*
D14*
X149800000Y-138490000D02*
X152460000Y-138490000D01*
X167580000Y-120650000D02*
X167580000Y-138490000D01*
X149920000Y-120650000D02*
X149920000Y-138490000D01*
X149800000Y-120650000D02*
X152460000Y-120650000D01*
X167580000Y-119380000D02*
X167580000Y-118050000D01*
X165040000Y-118050000D02*
X166370000Y-118050000D01*
X107890000Y-106620000D02*
X107890000Y-109280000D01*
X110490000Y-106620000D02*
X107890000Y-106620000D01*
X110490000Y-109280000D02*
X107890000Y-109280000D01*
X110490000Y-106620000D02*
X110490000Y-109280000D01*
X111760000Y-106620000D02*
X113090000Y-106620000D01*
X113090000Y-106620000D02*
X113090000Y-107950000D01*
D15*
X116840000Y-118745000D02*
X116840000Y-136525000D01*
X116840000Y-136525000D02*
X102870000Y-136525000D01*
X102870000Y-136525000D02*
X102870000Y-131445000D01*
X102870000Y-131445000D02*
X105410000Y-128905000D01*
X105410000Y-128905000D02*
X105410000Y-118745000D01*
X105410000Y-118745000D02*
X116840000Y-118745000D01*
D14*
X120650000Y-140395000D02*
X102810000Y-140395000D01*
X102810000Y-140395000D02*
X102810000Y-135195000D01*
X102810000Y-114875000D02*
X123250000Y-114875000D01*
X123250000Y-114875000D02*
X123250000Y-117475000D01*
X123250000Y-117475000D02*
X120650000Y-117475000D01*
X120650000Y-114935000D02*
X120650000Y-117535000D01*
X121920000Y-140395000D02*
X123250000Y-140395000D01*
X123250000Y-140395000D02*
X123250000Y-139125000D01*
X168850000Y-143570000D02*
X174050000Y-143570000D01*
X168850000Y-135890000D02*
X168850000Y-143570000D01*
X174050000Y-133290000D02*
X174050000Y-143570000D01*
X168850000Y-135890000D02*
X171450000Y-135890000D01*
X171450000Y-135890000D02*
X171450000Y-133290000D01*
X171450000Y-133290000D02*
X174050000Y-133290000D01*
X168850000Y-134620000D02*
X168850000Y-133290000D01*
X168850000Y-133290000D02*
X170180000Y-133290000D01*
X159420000Y-142280000D02*
X159420000Y-139660000D01*
X159420000Y-139660000D02*
X153000000Y-139660000D01*
X153000000Y-139660000D02*
X153000000Y-142280000D01*
X153000000Y-142280000D02*
X159420000Y-142280000D01*
X160310000Y-140970000D02*
X159420000Y-140970000D01*
X152110000Y-140970000D02*
X153000000Y-140970000D01*
X173735722Y-127090277D02*
G75*
G03X169124420Y-127090000I-2305722J-1179723D01*
G01*
X173735722Y-129449723D02*
G75*
G02X169124420Y-129450000I-2305722J1179723D01*
G01*
X173735722Y-129449723D02*
G75*
G03X173735580Y-127090000I-2305722J1179723D01*
G01*
X171430000Y-125720000D02*
X171430000Y-130820000D01*
X171470000Y-125720000D02*
X171470000Y-130820000D01*
X171510000Y-125721000D02*
X171510000Y-130819000D01*
X171550000Y-125722000D02*
X171550000Y-130818000D01*
X171590000Y-125724000D02*
X171590000Y-130816000D01*
X171630000Y-125727000D02*
X171630000Y-130813000D01*
X171670000Y-125731000D02*
X171670000Y-130809000D01*
X171710000Y-125735000D02*
X171710000Y-127290000D01*
X171710000Y-129250000D02*
X171710000Y-130805000D01*
X171750000Y-125739000D02*
X171750000Y-127290000D01*
X171750000Y-129250000D02*
X171750000Y-130801000D01*
X171790000Y-125745000D02*
X171790000Y-127290000D01*
X171790000Y-129250000D02*
X171790000Y-130795000D01*
X171830000Y-125751000D02*
X171830000Y-127290000D01*
X171830000Y-129250000D02*
X171830000Y-130789000D01*
X171870000Y-125757000D02*
X171870000Y-127290000D01*
X171870000Y-129250000D02*
X171870000Y-130783000D01*
X171910000Y-125764000D02*
X171910000Y-127290000D01*
X171910000Y-129250000D02*
X171910000Y-130776000D01*
X171950000Y-125772000D02*
X171950000Y-127290000D01*
X171950000Y-129250000D02*
X171950000Y-130768000D01*
X171990000Y-125781000D02*
X171990000Y-127290000D01*
X171990000Y-129250000D02*
X171990000Y-130759000D01*
X172030000Y-125790000D02*
X172030000Y-127290000D01*
X172030000Y-129250000D02*
X172030000Y-130750000D01*
X172070000Y-125800000D02*
X172070000Y-127290000D01*
X172070000Y-129250000D02*
X172070000Y-130740000D01*
X172110000Y-125810000D02*
X172110000Y-127290000D01*
X172110000Y-129250000D02*
X172110000Y-130730000D01*
X172151000Y-125822000D02*
X172151000Y-127290000D01*
X172151000Y-129250000D02*
X172151000Y-130718000D01*
X172191000Y-125834000D02*
X172191000Y-127290000D01*
X172191000Y-129250000D02*
X172191000Y-130706000D01*
X172231000Y-125846000D02*
X172231000Y-127290000D01*
X172231000Y-129250000D02*
X172231000Y-130694000D01*
X172271000Y-125860000D02*
X172271000Y-127290000D01*
X172271000Y-129250000D02*
X172271000Y-130680000D01*
X172311000Y-125874000D02*
X172311000Y-127290000D01*
X172311000Y-129250000D02*
X172311000Y-130666000D01*
X172351000Y-125888000D02*
X172351000Y-127290000D01*
X172351000Y-129250000D02*
X172351000Y-130652000D01*
X172391000Y-125904000D02*
X172391000Y-127290000D01*
X172391000Y-129250000D02*
X172391000Y-130636000D01*
X172431000Y-125920000D02*
X172431000Y-127290000D01*
X172431000Y-129250000D02*
X172431000Y-130620000D01*
X172471000Y-125937000D02*
X172471000Y-127290000D01*
X172471000Y-129250000D02*
X172471000Y-130603000D01*
X172511000Y-125955000D02*
X172511000Y-127290000D01*
X172511000Y-129250000D02*
X172511000Y-130585000D01*
X172551000Y-125974000D02*
X172551000Y-127290000D01*
X172551000Y-129250000D02*
X172551000Y-130566000D01*
X172591000Y-125994000D02*
X172591000Y-127290000D01*
X172591000Y-129250000D02*
X172591000Y-130546000D01*
X172631000Y-126014000D02*
X172631000Y-127290000D01*
X172631000Y-129250000D02*
X172631000Y-130526000D01*
X172671000Y-126036000D02*
X172671000Y-127290000D01*
X172671000Y-129250000D02*
X172671000Y-130504000D01*
X172711000Y-126058000D02*
X172711000Y-127290000D01*
X172711000Y-129250000D02*
X172711000Y-130482000D01*
X172751000Y-126081000D02*
X172751000Y-127290000D01*
X172751000Y-129250000D02*
X172751000Y-130459000D01*
X172791000Y-126105000D02*
X172791000Y-127290000D01*
X172791000Y-129250000D02*
X172791000Y-130435000D01*
X172831000Y-126130000D02*
X172831000Y-127290000D01*
X172831000Y-129250000D02*
X172831000Y-130410000D01*
X172871000Y-126157000D02*
X172871000Y-127290000D01*
X172871000Y-129250000D02*
X172871000Y-130383000D01*
X172911000Y-126184000D02*
X172911000Y-127290000D01*
X172911000Y-129250000D02*
X172911000Y-130356000D01*
X172951000Y-126212000D02*
X172951000Y-127290000D01*
X172951000Y-129250000D02*
X172951000Y-130328000D01*
X172991000Y-126242000D02*
X172991000Y-127290000D01*
X172991000Y-129250000D02*
X172991000Y-130298000D01*
X173031000Y-126273000D02*
X173031000Y-127290000D01*
X173031000Y-129250000D02*
X173031000Y-130267000D01*
X173071000Y-126305000D02*
X173071000Y-127290000D01*
X173071000Y-129250000D02*
X173071000Y-130235000D01*
X173111000Y-126338000D02*
X173111000Y-127290000D01*
X173111000Y-129250000D02*
X173111000Y-130202000D01*
X173151000Y-126373000D02*
X173151000Y-127290000D01*
X173151000Y-129250000D02*
X173151000Y-130167000D01*
X173191000Y-126409000D02*
X173191000Y-127290000D01*
X173191000Y-129250000D02*
X173191000Y-130131000D01*
X173231000Y-126447000D02*
X173231000Y-127290000D01*
X173231000Y-129250000D02*
X173231000Y-130093000D01*
X173271000Y-126487000D02*
X173271000Y-127290000D01*
X173271000Y-129250000D02*
X173271000Y-130053000D01*
X173311000Y-126528000D02*
X173311000Y-127290000D01*
X173311000Y-129250000D02*
X173311000Y-130012000D01*
X173351000Y-126571000D02*
X173351000Y-127290000D01*
X173351000Y-129250000D02*
X173351000Y-129969000D01*
X173391000Y-126616000D02*
X173391000Y-127290000D01*
X173391000Y-129250000D02*
X173391000Y-129924000D01*
X173431000Y-126664000D02*
X173431000Y-127290000D01*
X173431000Y-129250000D02*
X173431000Y-129876000D01*
X173471000Y-126714000D02*
X173471000Y-127290000D01*
X173471000Y-129250000D02*
X173471000Y-129826000D01*
X173511000Y-126766000D02*
X173511000Y-127290000D01*
X173511000Y-129250000D02*
X173511000Y-129774000D01*
X173551000Y-126822000D02*
X173551000Y-127290000D01*
X173551000Y-129250000D02*
X173551000Y-129718000D01*
X173591000Y-126880000D02*
X173591000Y-127290000D01*
X173591000Y-129250000D02*
X173591000Y-129660000D01*
X173631000Y-126943000D02*
X173631000Y-127290000D01*
X173631000Y-129250000D02*
X173631000Y-129597000D01*
X173671000Y-127009000D02*
X173671000Y-129531000D01*
X173711000Y-127081000D02*
X173711000Y-129459000D01*
X173751000Y-127158000D02*
X173751000Y-129382000D01*
X173791000Y-127242000D02*
X173791000Y-129298000D01*
X173831000Y-127336000D02*
X173831000Y-129204000D01*
X173871000Y-127441000D02*
X173871000Y-129099000D01*
X173911000Y-127563000D02*
X173911000Y-128977000D01*
X173951000Y-127711000D02*
X173951000Y-128829000D01*
X173991000Y-127916000D02*
X173991000Y-128624000D01*
X167980000Y-128270000D02*
X169180000Y-128270000D01*
X168580000Y-127620000D02*
X168580000Y-128920000D01*
D15*
X173990000Y-115570000D02*
X173990000Y-123190000D01*
X171450000Y-115570000D02*
X171450000Y-123190000D01*
X171170000Y-112750000D02*
X171170000Y-114300000D01*
X173990000Y-123190000D02*
X171450000Y-123190000D01*
X171450000Y-115570000D02*
X173990000Y-115570000D01*
X174270000Y-114300000D02*
X174270000Y-112750000D01*
X174270000Y-112750000D02*
X171170000Y-112750000D01*
D14*
X128210000Y-110490000D02*
X128210000Y-146110000D01*
X128210000Y-146110000D02*
X130870000Y-146110000D01*
X130870000Y-146110000D02*
X130870000Y-110490000D01*
X130870000Y-110490000D02*
X128210000Y-110490000D01*
X128210000Y-109220000D02*
X128210000Y-107890000D01*
X128210000Y-107890000D02*
X129540000Y-107890000D01*
X143450000Y-110490000D02*
X143450000Y-146110000D01*
X143450000Y-146110000D02*
X146110000Y-146110000D01*
X146110000Y-146110000D02*
X146110000Y-110490000D01*
X146110000Y-110490000D02*
X143450000Y-110490000D01*
X143450000Y-109220000D02*
X143450000Y-107890000D01*
X143450000Y-107890000D02*
X144780000Y-107890000D01*
X102810000Y-112335000D02*
X102810000Y-114995000D01*
X120650000Y-112335000D02*
X102810000Y-112335000D01*
X120650000Y-114995000D02*
X102810000Y-114995000D01*
X120650000Y-112335000D02*
X120650000Y-114995000D01*
X121920000Y-112335000D02*
X123250000Y-112335000D01*
X123250000Y-112335000D02*
X123250000Y-113665000D01*
X123250000Y-109280000D02*
X123250000Y-106620000D01*
X118110000Y-109280000D02*
X123250000Y-109280000D01*
X118110000Y-106620000D02*
X123250000Y-106620000D01*
X118110000Y-109280000D02*
X118110000Y-106620000D01*
X116840000Y-109280000D02*
X115510000Y-109280000D01*
X115510000Y-109280000D02*
X115510000Y-107950000D01*
X102810000Y-140275000D02*
X102810000Y-142935000D01*
X120650000Y-140275000D02*
X102810000Y-140275000D01*
X120650000Y-142935000D02*
X102810000Y-142935000D01*
X120650000Y-140275000D02*
X120650000Y-142935000D01*
X121920000Y-140275000D02*
X123250000Y-140275000D01*
X123250000Y-140275000D02*
X123250000Y-141605000D01*
X125670000Y-146110000D02*
X128330000Y-146110000D01*
X125670000Y-110490000D02*
X125670000Y-146110000D01*
X128330000Y-110490000D02*
X128330000Y-146110000D01*
X125670000Y-110490000D02*
X128330000Y-110490000D01*
X125670000Y-109220000D02*
X125670000Y-107890000D01*
X125670000Y-107890000D02*
X127000000Y-107890000D01*
X145990000Y-146110000D02*
X148650000Y-146110000D01*
X145990000Y-110490000D02*
X145990000Y-146110000D01*
X148650000Y-110490000D02*
X148650000Y-146110000D01*
X145990000Y-110490000D02*
X148650000Y-110490000D01*
X145990000Y-109220000D02*
X145990000Y-107890000D01*
X145990000Y-107890000D02*
X147320000Y-107890000D01*
X123770000Y-139500000D02*
X123770000Y-138300000D01*
X125530000Y-138300000D02*
X125530000Y-139500000D01*
D15*
X159258095Y-127722381D02*
X159258095Y-128531905D01*
X159305714Y-128627143D01*
X159353333Y-128674762D01*
X159448571Y-128722381D01*
X159639048Y-128722381D01*
X159734286Y-128674762D01*
X159781905Y-128627143D01*
X159829524Y-128531905D01*
X159829524Y-127722381D01*
X160829524Y-128722381D02*
X160258095Y-128722381D01*
X160543809Y-128722381D02*
X160543809Y-127722381D01*
X160448571Y-127865238D01*
X160353333Y-127960476D01*
X160258095Y-128008095D01*
X156139048Y-131262381D02*
X156139048Y-130262381D01*
X156472382Y-130976667D01*
X156805715Y-130262381D01*
X156805715Y-131262381D01*
X157281905Y-131262381D02*
X157281905Y-130262381D01*
X157662858Y-130262381D01*
X157758096Y-130310000D01*
X157805715Y-130357619D01*
X157853334Y-130452857D01*
X157853334Y-130595714D01*
X157805715Y-130690952D01*
X157758096Y-130738571D01*
X157662858Y-130786190D01*
X157281905Y-130786190D01*
X158281905Y-130262381D02*
X158281905Y-131071905D01*
X158329524Y-131167143D01*
X158377143Y-131214762D01*
X158472381Y-131262381D01*
X158662858Y-131262381D01*
X158758096Y-131214762D01*
X158805715Y-131167143D01*
X158853334Y-131071905D01*
X158853334Y-130262381D01*
X159329524Y-130881429D02*
X160091429Y-130881429D01*
X160996191Y-130262381D02*
X160805714Y-130262381D01*
X160710476Y-130310000D01*
X160662857Y-130357619D01*
X160567619Y-130500476D01*
X160520000Y-130690952D01*
X160520000Y-131071905D01*
X160567619Y-131167143D01*
X160615238Y-131214762D01*
X160710476Y-131262381D01*
X160900953Y-131262381D01*
X160996191Y-131214762D01*
X161043810Y-131167143D01*
X161091429Y-131071905D01*
X161091429Y-130833810D01*
X161043810Y-130738571D01*
X160996191Y-130690952D01*
X160900953Y-130643333D01*
X160710476Y-130643333D01*
X160615238Y-130690952D01*
X160567619Y-130738571D01*
X160520000Y-130833810D01*
X161710476Y-130262381D02*
X161805715Y-130262381D01*
X161900953Y-130310000D01*
X161948572Y-130357619D01*
X161996191Y-130452857D01*
X162043810Y-130643333D01*
X162043810Y-130881429D01*
X161996191Y-131071905D01*
X161948572Y-131167143D01*
X161900953Y-131214762D01*
X161805715Y-131262381D01*
X161710476Y-131262381D01*
X161615238Y-131214762D01*
X161567619Y-131167143D01*
X161520000Y-131071905D01*
X161472381Y-130881429D01*
X161472381Y-130643333D01*
X161520000Y-130452857D01*
X161567619Y-130357619D01*
X161615238Y-130310000D01*
X161710476Y-130262381D01*
X162948572Y-130262381D02*
X162472381Y-130262381D01*
X162424762Y-130738571D01*
X162472381Y-130690952D01*
X162567619Y-130643333D01*
X162805715Y-130643333D01*
X162900953Y-130690952D01*
X162948572Y-130738571D01*
X162996191Y-130833810D01*
X162996191Y-131071905D01*
X162948572Y-131167143D01*
X162900953Y-131214762D01*
X162805715Y-131262381D01*
X162567619Y-131262381D01*
X162472381Y-131214762D01*
X162424762Y-131167143D01*
X163615238Y-130262381D02*
X163710477Y-130262381D01*
X163805715Y-130310000D01*
X163853334Y-130357619D01*
X163900953Y-130452857D01*
X163948572Y-130643333D01*
X163948572Y-130881429D01*
X163900953Y-131071905D01*
X163853334Y-131167143D01*
X163805715Y-131214762D01*
X163710477Y-131262381D01*
X163615238Y-131262381D01*
X163520000Y-131214762D01*
X163472381Y-131167143D01*
X163424762Y-131071905D01*
X163377143Y-130881429D01*
X163377143Y-130643333D01*
X163424762Y-130452857D01*
X163472381Y-130357619D01*
X163520000Y-130310000D01*
X163615238Y-130262381D01*
X117552381Y-127126905D02*
X118361905Y-127126905D01*
X118457143Y-127079286D01*
X118504762Y-127031667D01*
X118552381Y-126936429D01*
X118552381Y-126745952D01*
X118504762Y-126650714D01*
X118457143Y-126603095D01*
X118361905Y-126555476D01*
X117552381Y-126555476D01*
X117647619Y-126126905D02*
X117600000Y-126079286D01*
X117552381Y-125984048D01*
X117552381Y-125745952D01*
X117600000Y-125650714D01*
X117647619Y-125603095D01*
X117742857Y-125555476D01*
X117838095Y-125555476D01*
X117980952Y-125603095D01*
X118552381Y-126174524D01*
X118552381Y-125555476D01*
X102372381Y-130888810D02*
X101372381Y-130888810D01*
X101372381Y-130650715D01*
X101420000Y-130507857D01*
X101515238Y-130412619D01*
X101610476Y-130365000D01*
X101800952Y-130317381D01*
X101943810Y-130317381D01*
X102134286Y-130365000D01*
X102229524Y-130412619D01*
X102324762Y-130507857D01*
X102372381Y-130650715D01*
X102372381Y-130888810D01*
X101848571Y-129555476D02*
X101848571Y-129888810D01*
X102372381Y-129888810D02*
X101372381Y-129888810D01*
X101372381Y-129412619D01*
X102372381Y-129031667D02*
X101372381Y-129031667D01*
X101372381Y-128650714D01*
X101420000Y-128555476D01*
X101467619Y-128507857D01*
X101562857Y-128460238D01*
X101705714Y-128460238D01*
X101800952Y-128507857D01*
X101848571Y-128555476D01*
X101896190Y-128650714D01*
X101896190Y-129031667D01*
X102372381Y-127888810D02*
X102324762Y-127984048D01*
X102229524Y-128031667D01*
X101372381Y-128031667D01*
X102372381Y-127079285D02*
X101848571Y-127079285D01*
X101753333Y-127126904D01*
X101705714Y-127222142D01*
X101705714Y-127412619D01*
X101753333Y-127507857D01*
X102324762Y-127079285D02*
X102372381Y-127174523D01*
X102372381Y-127412619D01*
X102324762Y-127507857D01*
X102229524Y-127555476D01*
X102134286Y-127555476D01*
X102039048Y-127507857D01*
X101991429Y-127412619D01*
X101991429Y-127174523D01*
X101943810Y-127079285D01*
X101705714Y-126698333D02*
X102372381Y-126460238D01*
X101705714Y-126222142D02*
X102372381Y-126460238D01*
X102610476Y-126555476D01*
X102658095Y-126603095D01*
X102705714Y-126698333D01*
X102324762Y-125460237D02*
X102372381Y-125555475D01*
X102372381Y-125745952D01*
X102324762Y-125841190D01*
X102229524Y-125888809D01*
X101848571Y-125888809D01*
X101753333Y-125841190D01*
X101705714Y-125745952D01*
X101705714Y-125555475D01*
X101753333Y-125460237D01*
X101848571Y-125412618D01*
X101943810Y-125412618D01*
X102039048Y-125888809D01*
X102372381Y-124984047D02*
X101705714Y-124984047D01*
X101896190Y-124984047D02*
X101800952Y-124936428D01*
X101753333Y-124888809D01*
X101705714Y-124793571D01*
X101705714Y-124698332D01*
X102372381Y-124364999D02*
X101372381Y-124364999D01*
X102086667Y-124031665D01*
X101372381Y-123698332D01*
X102372381Y-123698332D01*
X102372381Y-123222142D02*
X101705714Y-123222142D01*
X101372381Y-123222142D02*
X101420000Y-123269761D01*
X101467619Y-123222142D01*
X101420000Y-123174523D01*
X101372381Y-123222142D01*
X101467619Y-123222142D01*
X101705714Y-122745952D02*
X102372381Y-122745952D01*
X101800952Y-122745952D02*
X101753333Y-122698333D01*
X101705714Y-122603095D01*
X101705714Y-122460237D01*
X101753333Y-122364999D01*
X101848571Y-122317380D01*
X102372381Y-122317380D01*
X102372381Y-121841190D02*
X101705714Y-121841190D01*
X101372381Y-121841190D02*
X101420000Y-121888809D01*
X101467619Y-121841190D01*
X101420000Y-121793571D01*
X101372381Y-121841190D01*
X101467619Y-121841190D01*
X156043334Y-141422381D02*
X155710000Y-140946190D01*
X155471905Y-141422381D02*
X155471905Y-140422381D01*
X155852858Y-140422381D01*
X155948096Y-140470000D01*
X155995715Y-140517619D01*
X156043334Y-140612857D01*
X156043334Y-140755714D01*
X155995715Y-140850952D01*
X155948096Y-140898571D01*
X155852858Y-140946190D01*
X155471905Y-140946190D01*
X156995715Y-141422381D02*
X156424286Y-141422381D01*
X156710000Y-141422381D02*
X156710000Y-140422381D01*
X156614762Y-140565238D01*
X156519524Y-140660476D01*
X156424286Y-140708095D01*
X171263334Y-124817143D02*
X171215715Y-124864762D01*
X171072858Y-124912381D01*
X170977620Y-124912381D01*
X170834762Y-124864762D01*
X170739524Y-124769524D01*
X170691905Y-124674286D01*
X170644286Y-124483810D01*
X170644286Y-124340952D01*
X170691905Y-124150476D01*
X170739524Y-124055238D01*
X170834762Y-123960000D01*
X170977620Y-123912381D01*
X171072858Y-123912381D01*
X171215715Y-123960000D01*
X171263334Y-124007619D01*
X172215715Y-124912381D02*
X171644286Y-124912381D01*
X171930000Y-124912381D02*
X171930000Y-123912381D01*
X171834762Y-124055238D01*
X171739524Y-124150476D01*
X171644286Y-124198095D01*
X128730477Y-106342381D02*
X128730477Y-107056667D01*
X128682857Y-107199524D01*
X128587619Y-107294762D01*
X128444762Y-107342381D01*
X128349524Y-107342381D01*
X129730477Y-107342381D02*
X129159048Y-107342381D01*
X129444762Y-107342381D02*
X129444762Y-106342381D01*
X129349524Y-106485238D01*
X129254286Y-106580476D01*
X129159048Y-106628095D01*
X130063810Y-106342381D02*
X130682858Y-106342381D01*
X130349524Y-106723333D01*
X130492382Y-106723333D01*
X130587620Y-106770952D01*
X130635239Y-106818571D01*
X130682858Y-106913810D01*
X130682858Y-107151905D01*
X130635239Y-107247143D01*
X130587620Y-107294762D01*
X130492382Y-107342381D01*
X130206667Y-107342381D01*
X130111429Y-107294762D01*
X130063810Y-107247143D01*
X143970477Y-106342381D02*
X143970477Y-107056667D01*
X143922857Y-107199524D01*
X143827619Y-107294762D01*
X143684762Y-107342381D01*
X143589524Y-107342381D01*
X144970477Y-107342381D02*
X144399048Y-107342381D01*
X144684762Y-107342381D02*
X144684762Y-106342381D01*
X144589524Y-106485238D01*
X144494286Y-106580476D01*
X144399048Y-106628095D01*
X145827620Y-106342381D02*
X145637143Y-106342381D01*
X145541905Y-106390000D01*
X145494286Y-106437619D01*
X145399048Y-106580476D01*
X145351429Y-106770952D01*
X145351429Y-107151905D01*
X145399048Y-107247143D01*
X145446667Y-107294762D01*
X145541905Y-107342381D01*
X145732382Y-107342381D01*
X145827620Y-107294762D01*
X145875239Y-107247143D01*
X145922858Y-107151905D01*
X145922858Y-106913810D01*
X145875239Y-106818571D01*
X145827620Y-106770952D01*
X145732382Y-106723333D01*
X145541905Y-106723333D01*
X145446667Y-106770952D01*
X145399048Y-106818571D01*
X145351429Y-106913810D01*
X101266667Y-113102381D02*
X101266667Y-113816667D01*
X101219047Y-113959524D01*
X101123809Y-114054762D01*
X100980952Y-114102381D01*
X100885714Y-114102381D01*
X102171429Y-113435714D02*
X102171429Y-114102381D01*
X101933333Y-113054762D02*
X101695238Y-113769048D01*
X102314286Y-113769048D01*
X101166667Y-141152381D02*
X101166667Y-141866667D01*
X101119047Y-142009524D01*
X101023809Y-142104762D01*
X100880952Y-142152381D01*
X100785714Y-142152381D01*
X102071429Y-141152381D02*
X101880952Y-141152381D01*
X101785714Y-141200000D01*
X101738095Y-141247619D01*
X101642857Y-141390476D01*
X101595238Y-141580952D01*
X101595238Y-141961905D01*
X101642857Y-142057143D01*
X101690476Y-142104762D01*
X101785714Y-142152381D01*
X101976191Y-142152381D01*
X102071429Y-142104762D01*
X102119048Y-142057143D01*
X102166667Y-141961905D01*
X102166667Y-141723810D01*
X102119048Y-141628571D01*
X102071429Y-141580952D01*
X101976191Y-141533333D01*
X101785714Y-141533333D01*
X101690476Y-141580952D01*
X101642857Y-141628571D01*
X101595238Y-141723810D01*
X126666667Y-106342381D02*
X126666667Y-107056667D01*
X126619047Y-107199524D01*
X126523809Y-107294762D01*
X126380952Y-107342381D01*
X126285714Y-107342381D01*
X127095238Y-106437619D02*
X127142857Y-106390000D01*
X127238095Y-106342381D01*
X127476191Y-106342381D01*
X127571429Y-106390000D01*
X127619048Y-106437619D01*
X127666667Y-106532857D01*
X127666667Y-106628095D01*
X127619048Y-106770952D01*
X127047619Y-107342381D01*
X127666667Y-107342381D01*
X146986667Y-106342381D02*
X146986667Y-107056667D01*
X146939047Y-107199524D01*
X146843809Y-107294762D01*
X146700952Y-107342381D01*
X146605714Y-107342381D01*
X147367619Y-106342381D02*
X147986667Y-106342381D01*
X147653333Y-106723333D01*
X147796191Y-106723333D01*
X147891429Y-106770952D01*
X147939048Y-106818571D01*
X147986667Y-106913810D01*
X147986667Y-107151905D01*
X147939048Y-107247143D01*
X147891429Y-107294762D01*
X147796191Y-107342381D01*
X147510476Y-107342381D01*
X147415238Y-107294762D01*
X147367619Y-107247143D01*
X124483334Y-142552381D02*
X124150000Y-142076190D01*
X123911905Y-142552381D02*
X123911905Y-141552381D01*
X124292858Y-141552381D01*
X124388096Y-141600000D01*
X124435715Y-141647619D01*
X124483334Y-141742857D01*
X124483334Y-141885714D01*
X124435715Y-141980952D01*
X124388096Y-142028571D01*
X124292858Y-142076190D01*
X123911905Y-142076190D01*
X124864286Y-141647619D02*
X124911905Y-141600000D01*
X125007143Y-141552381D01*
X125245239Y-141552381D01*
X125340477Y-141600000D01*
X125388096Y-141647619D01*
X125435715Y-141742857D01*
X125435715Y-141838095D01*
X125388096Y-141980952D01*
X124816667Y-142552381D01*
X125435715Y-142552381D01*
M02*
