G04 #@! TF.FileFunction,Legend,Bot*
%FSLAX46Y46*%
G04 Gerber Fmt 4.6, Leading zero omitted, Abs format (unit mm)*
G04 Created by KiCad (PCBNEW 4.0.7-e2-6376~58~ubuntu16.04.1) date Tue Dec 26 18:51:17 2017*
%MOMM*%
%LPD*%
G01*
G04 APERTURE LIST*
%ADD10C,0.100000*%
%ADD11C,0.300000*%
%ADD12C,0.200000*%
%ADD13C,0.250000*%
%ADD14C,0.150000*%
G04 APERTURE END LIST*
D10*
D11*
X122681905Y-147208857D02*
X121158095Y-147208857D01*
X115061905Y-147462857D02*
X113538095Y-147462857D01*
X114300000Y-148224762D02*
X114300000Y-146700952D01*
D12*
X171450000Y-122936000D02*
X171450000Y-122174000D01*
X171450000Y-134620000D02*
X171450000Y-122936000D01*
X171450000Y-122682000D02*
X171450000Y-134620000D01*
D10*
X173329523Y-121520000D02*
X173405714Y-121481905D01*
X173519999Y-121481905D01*
X173634285Y-121520000D01*
X173710476Y-121596190D01*
X173748571Y-121672381D01*
X173786666Y-121824762D01*
X173786666Y-121939048D01*
X173748571Y-122091429D01*
X173710476Y-122167619D01*
X173634285Y-122243810D01*
X173519999Y-122281905D01*
X173443809Y-122281905D01*
X173329523Y-122243810D01*
X173291428Y-122205714D01*
X173291428Y-121939048D01*
X173443809Y-121939048D01*
X172948571Y-122281905D02*
X172948571Y-121481905D01*
X172491428Y-122281905D01*
X172491428Y-121481905D01*
X172110476Y-122281905D02*
X172110476Y-121481905D01*
X171920000Y-121481905D01*
X171805714Y-121520000D01*
X171729523Y-121596190D01*
X171691428Y-121672381D01*
X171653333Y-121824762D01*
X171653333Y-121939048D01*
X171691428Y-122091429D01*
X171729523Y-122167619D01*
X171805714Y-122243810D01*
X171920000Y-122281905D01*
X172110476Y-122281905D01*
X170332380Y-121481905D02*
X170713333Y-121481905D01*
X170751428Y-121862857D01*
X170713333Y-121824762D01*
X170637142Y-121786667D01*
X170446666Y-121786667D01*
X170370476Y-121824762D01*
X170332380Y-121862857D01*
X170294285Y-121939048D01*
X170294285Y-122129524D01*
X170332380Y-122205714D01*
X170370476Y-122243810D01*
X170446666Y-122281905D01*
X170637142Y-122281905D01*
X170713333Y-122243810D01*
X170751428Y-122205714D01*
X170065714Y-121481905D02*
X169799047Y-122281905D01*
X169532380Y-121481905D01*
X173329523Y-134220000D02*
X173405714Y-134181905D01*
X173519999Y-134181905D01*
X173634285Y-134220000D01*
X173710476Y-134296190D01*
X173748571Y-134372381D01*
X173786666Y-134524762D01*
X173786666Y-134639048D01*
X173748571Y-134791429D01*
X173710476Y-134867619D01*
X173634285Y-134943810D01*
X173519999Y-134981905D01*
X173443809Y-134981905D01*
X173329523Y-134943810D01*
X173291428Y-134905714D01*
X173291428Y-134639048D01*
X173443809Y-134639048D01*
X172948571Y-134981905D02*
X172948571Y-134181905D01*
X172491428Y-134981905D01*
X172491428Y-134181905D01*
X172110476Y-134981905D02*
X172110476Y-134181905D01*
X171920000Y-134181905D01*
X171805714Y-134220000D01*
X171729523Y-134296190D01*
X171691428Y-134372381D01*
X171653333Y-134524762D01*
X171653333Y-134639048D01*
X171691428Y-134791429D01*
X171729523Y-134867619D01*
X171805714Y-134943810D01*
X171920000Y-134981905D01*
X172110476Y-134981905D01*
X170332380Y-134181905D02*
X170713333Y-134181905D01*
X170751428Y-134562857D01*
X170713333Y-134524762D01*
X170637142Y-134486667D01*
X170446666Y-134486667D01*
X170370476Y-134524762D01*
X170332380Y-134562857D01*
X170294285Y-134639048D01*
X170294285Y-134829524D01*
X170332380Y-134905714D01*
X170370476Y-134943810D01*
X170446666Y-134981905D01*
X170637142Y-134981905D01*
X170713333Y-134943810D01*
X170751428Y-134905714D01*
X170065714Y-134181905D02*
X169799047Y-134981905D01*
X169532380Y-134181905D01*
X124586192Y-145611810D02*
X124471906Y-145649905D01*
X124281430Y-145649905D01*
X124205240Y-145611810D01*
X124167144Y-145573714D01*
X124129049Y-145497524D01*
X124129049Y-145421333D01*
X124167144Y-145345143D01*
X124205240Y-145307048D01*
X124281430Y-145268952D01*
X124433811Y-145230857D01*
X124510002Y-145192762D01*
X124548097Y-145154667D01*
X124586192Y-145078476D01*
X124586192Y-145002286D01*
X124548097Y-144926095D01*
X124510002Y-144888000D01*
X124433811Y-144849905D01*
X124243335Y-144849905D01*
X124129049Y-144888000D01*
X123786192Y-145116571D02*
X123786192Y-145916571D01*
X123786192Y-145154667D02*
X123710001Y-145116571D01*
X123557620Y-145116571D01*
X123481430Y-145154667D01*
X123443335Y-145192762D01*
X123405239Y-145268952D01*
X123405239Y-145497524D01*
X123443335Y-145573714D01*
X123481430Y-145611810D01*
X123557620Y-145649905D01*
X123710001Y-145649905D01*
X123786192Y-145611810D01*
X122757620Y-145611810D02*
X122833810Y-145649905D01*
X122986191Y-145649905D01*
X123062382Y-145611810D01*
X123100477Y-145535619D01*
X123100477Y-145230857D01*
X123062382Y-145154667D01*
X122986191Y-145116571D01*
X122833810Y-145116571D01*
X122757620Y-145154667D01*
X122719525Y-145230857D01*
X122719525Y-145307048D01*
X123100477Y-145383238D01*
X122033811Y-145649905D02*
X122033811Y-145230857D01*
X122071906Y-145154667D01*
X122148096Y-145116571D01*
X122300477Y-145116571D01*
X122376668Y-145154667D01*
X122033811Y-145611810D02*
X122110001Y-145649905D01*
X122300477Y-145649905D01*
X122376668Y-145611810D01*
X122414763Y-145535619D01*
X122414763Y-145459429D01*
X122376668Y-145383238D01*
X122300477Y-145345143D01*
X122110001Y-145345143D01*
X122033811Y-145307048D01*
X121652858Y-145649905D02*
X121652858Y-144849905D01*
X121576667Y-145345143D02*
X121348096Y-145649905D01*
X121348096Y-145116571D02*
X121652858Y-145421333D01*
X120700477Y-145611810D02*
X120776667Y-145649905D01*
X120929048Y-145649905D01*
X121005239Y-145611810D01*
X121043334Y-145535619D01*
X121043334Y-145230857D01*
X121005239Y-145154667D01*
X120929048Y-145116571D01*
X120776667Y-145116571D01*
X120700477Y-145154667D01*
X120662382Y-145230857D01*
X120662382Y-145307048D01*
X121043334Y-145383238D01*
X120319525Y-145649905D02*
X120319525Y-145116571D01*
X120319525Y-145268952D02*
X120281430Y-145192762D01*
X120243334Y-145154667D01*
X120167144Y-145116571D01*
X120090953Y-145116571D01*
X119100477Y-145649905D02*
X119176668Y-145611810D01*
X119214763Y-145535619D01*
X119214763Y-144849905D01*
X118490953Y-145611810D02*
X118567143Y-145649905D01*
X118719524Y-145649905D01*
X118795715Y-145611810D01*
X118833810Y-145535619D01*
X118833810Y-145230857D01*
X118795715Y-145154667D01*
X118719524Y-145116571D01*
X118567143Y-145116571D01*
X118490953Y-145154667D01*
X118452858Y-145230857D01*
X118452858Y-145307048D01*
X118833810Y-145383238D01*
X118148096Y-145611810D02*
X118071906Y-145649905D01*
X117919525Y-145649905D01*
X117843334Y-145611810D01*
X117805239Y-145535619D01*
X117805239Y-145497524D01*
X117843334Y-145421333D01*
X117919525Y-145383238D01*
X118033810Y-145383238D01*
X118110001Y-145345143D01*
X118148096Y-145268952D01*
X118148096Y-145230857D01*
X118110001Y-145154667D01*
X118033810Y-145116571D01*
X117919525Y-145116571D01*
X117843334Y-145154667D01*
X117500477Y-145611810D02*
X117424287Y-145649905D01*
X117271906Y-145649905D01*
X117195715Y-145611810D01*
X117157620Y-145535619D01*
X117157620Y-145497524D01*
X117195715Y-145421333D01*
X117271906Y-145383238D01*
X117386191Y-145383238D01*
X117462382Y-145345143D01*
X117500477Y-145268952D01*
X117500477Y-145230857D01*
X117462382Y-145154667D01*
X117386191Y-145116571D01*
X117271906Y-145116571D01*
X117195715Y-145154667D01*
X116319525Y-145116571D02*
X116014763Y-145116571D01*
X116205239Y-144849905D02*
X116205239Y-145535619D01*
X116167144Y-145611810D01*
X116090953Y-145649905D01*
X116014763Y-145649905D01*
X115748096Y-145649905D02*
X115748096Y-144849905D01*
X115405239Y-145649905D02*
X115405239Y-145230857D01*
X115443334Y-145154667D01*
X115519524Y-145116571D01*
X115633810Y-145116571D01*
X115710001Y-145154667D01*
X115748096Y-145192762D01*
X114681429Y-145649905D02*
X114681429Y-145230857D01*
X114719524Y-145154667D01*
X114795714Y-145116571D01*
X114948095Y-145116571D01*
X115024286Y-145154667D01*
X114681429Y-145611810D02*
X114757619Y-145649905D01*
X114948095Y-145649905D01*
X115024286Y-145611810D01*
X115062381Y-145535619D01*
X115062381Y-145459429D01*
X115024286Y-145383238D01*
X114948095Y-145345143D01*
X114757619Y-145345143D01*
X114681429Y-145307048D01*
X114300476Y-145116571D02*
X114300476Y-145649905D01*
X114300476Y-145192762D02*
X114262381Y-145154667D01*
X114186190Y-145116571D01*
X114071904Y-145116571D01*
X113995714Y-145154667D01*
X113957619Y-145230857D01*
X113957619Y-145649905D01*
X113043332Y-144849905D02*
X112548094Y-144849905D01*
X112814761Y-145154667D01*
X112700475Y-145154667D01*
X112624285Y-145192762D01*
X112586189Y-145230857D01*
X112548094Y-145307048D01*
X112548094Y-145497524D01*
X112586189Y-145573714D01*
X112624285Y-145611810D01*
X112700475Y-145649905D01*
X112929047Y-145649905D01*
X113005237Y-145611810D01*
X113043332Y-145573714D01*
X112281427Y-144849905D02*
X112090951Y-145649905D01*
X111938570Y-145078476D01*
X111786189Y-145649905D01*
X111595713Y-144849905D01*
D12*
X151130000Y-146050000D02*
X151130000Y-148590000D01*
X158750000Y-146050000D02*
X151130000Y-146050000D01*
X151130000Y-146050000D02*
X158750000Y-146050000D01*
D10*
X150469523Y-144888000D02*
X150545714Y-144849905D01*
X150659999Y-144849905D01*
X150774285Y-144888000D01*
X150850476Y-144964190D01*
X150888571Y-145040381D01*
X150926666Y-145192762D01*
X150926666Y-145307048D01*
X150888571Y-145459429D01*
X150850476Y-145535619D01*
X150774285Y-145611810D01*
X150659999Y-145649905D01*
X150583809Y-145649905D01*
X150469523Y-145611810D01*
X150431428Y-145573714D01*
X150431428Y-145307048D01*
X150583809Y-145307048D01*
X150088571Y-145649905D02*
X150088571Y-144849905D01*
X149631428Y-145649905D01*
X149631428Y-144849905D01*
X149250476Y-145649905D02*
X149250476Y-144849905D01*
X149060000Y-144849905D01*
X148945714Y-144888000D01*
X148869523Y-144964190D01*
X148831428Y-145040381D01*
X148793333Y-145192762D01*
X148793333Y-145307048D01*
X148831428Y-145459429D01*
X148869523Y-145535619D01*
X148945714Y-145611810D01*
X149060000Y-145649905D01*
X149250476Y-145649905D01*
X155816190Y-144849905D02*
X155549523Y-145649905D01*
X155282856Y-144849905D01*
X155016190Y-145649905D02*
X155016190Y-144849905D01*
X154635238Y-145649905D02*
X154635238Y-144849905D01*
X154178095Y-145649905D01*
X154178095Y-144849905D01*
D12*
X142533714Y-107582143D02*
X142533714Y-106682143D01*
X142148000Y-107582143D02*
X142148000Y-107110714D01*
X142190857Y-107025000D01*
X142276571Y-106982143D01*
X142405143Y-106982143D01*
X142490857Y-107025000D01*
X142533714Y-107067857D01*
X141848000Y-106982143D02*
X141505143Y-106982143D01*
X141719428Y-106682143D02*
X141719428Y-107453571D01*
X141676571Y-107539286D01*
X141590857Y-107582143D01*
X141505143Y-107582143D01*
X141333714Y-106982143D02*
X140990857Y-106982143D01*
X141205142Y-106682143D02*
X141205142Y-107453571D01*
X141162285Y-107539286D01*
X141076571Y-107582143D01*
X140990857Y-107582143D01*
X140690856Y-106982143D02*
X140690856Y-107882143D01*
X140690856Y-107025000D02*
X140605142Y-106982143D01*
X140433713Y-106982143D01*
X140347999Y-107025000D01*
X140305142Y-107067857D01*
X140262285Y-107153571D01*
X140262285Y-107410714D01*
X140305142Y-107496429D01*
X140347999Y-107539286D01*
X140433713Y-107582143D01*
X140605142Y-107582143D01*
X140690856Y-107539286D01*
X139919427Y-107539286D02*
X139833713Y-107582143D01*
X139662285Y-107582143D01*
X139576570Y-107539286D01*
X139533713Y-107453571D01*
X139533713Y-107410714D01*
X139576570Y-107325000D01*
X139662285Y-107282143D01*
X139790856Y-107282143D01*
X139876570Y-107239286D01*
X139919427Y-107153571D01*
X139919427Y-107110714D01*
X139876570Y-107025000D01*
X139790856Y-106982143D01*
X139662285Y-106982143D01*
X139576570Y-107025000D01*
X139147999Y-107496429D02*
X139105142Y-107539286D01*
X139147999Y-107582143D01*
X139190856Y-107539286D01*
X139147999Y-107496429D01*
X139147999Y-107582143D01*
X139147999Y-107025000D02*
X139105142Y-107067857D01*
X139147999Y-107110714D01*
X139190856Y-107067857D01*
X139147999Y-107025000D01*
X139147999Y-107110714D01*
X138076571Y-106639286D02*
X138848000Y-107796429D01*
X137133714Y-106639286D02*
X137905143Y-107796429D01*
X136448000Y-106982143D02*
X136448000Y-107710714D01*
X136490857Y-107796429D01*
X136533714Y-107839286D01*
X136619429Y-107882143D01*
X136748000Y-107882143D01*
X136833714Y-107839286D01*
X136448000Y-107539286D02*
X136533714Y-107582143D01*
X136705143Y-107582143D01*
X136790857Y-107539286D01*
X136833714Y-107496429D01*
X136876571Y-107410714D01*
X136876571Y-107153571D01*
X136833714Y-107067857D01*
X136790857Y-107025000D01*
X136705143Y-106982143D01*
X136533714Y-106982143D01*
X136448000Y-107025000D01*
X136019428Y-107582143D02*
X136019428Y-106982143D01*
X136019428Y-106682143D02*
X136062285Y-106725000D01*
X136019428Y-106767857D01*
X135976571Y-106725000D01*
X136019428Y-106682143D01*
X136019428Y-106767857D01*
X135719429Y-106982143D02*
X135376572Y-106982143D01*
X135590857Y-106682143D02*
X135590857Y-107453571D01*
X135548000Y-107539286D01*
X135462286Y-107582143D01*
X135376572Y-107582143D01*
X135076571Y-107582143D02*
X135076571Y-106682143D01*
X134690857Y-107582143D02*
X134690857Y-107110714D01*
X134733714Y-107025000D01*
X134819428Y-106982143D01*
X134948000Y-106982143D01*
X135033714Y-107025000D01*
X135076571Y-107067857D01*
X133876571Y-106982143D02*
X133876571Y-107582143D01*
X134262285Y-106982143D02*
X134262285Y-107453571D01*
X134219428Y-107539286D01*
X134133714Y-107582143D01*
X134005142Y-107582143D01*
X133919428Y-107539286D01*
X133876571Y-107496429D01*
X133447999Y-107582143D02*
X133447999Y-106682143D01*
X133447999Y-107025000D02*
X133362285Y-106982143D01*
X133190856Y-106982143D01*
X133105142Y-107025000D01*
X133062285Y-107067857D01*
X133019428Y-107153571D01*
X133019428Y-107410714D01*
X133062285Y-107496429D01*
X133105142Y-107539286D01*
X133190856Y-107582143D01*
X133362285Y-107582143D01*
X133447999Y-107539286D01*
X132633713Y-107496429D02*
X132590856Y-107539286D01*
X132633713Y-107582143D01*
X132676570Y-107539286D01*
X132633713Y-107496429D01*
X132633713Y-107582143D01*
X131819428Y-107539286D02*
X131905142Y-107582143D01*
X132076571Y-107582143D01*
X132162285Y-107539286D01*
X132205142Y-107496429D01*
X132247999Y-107410714D01*
X132247999Y-107153571D01*
X132205142Y-107067857D01*
X132162285Y-107025000D01*
X132076571Y-106982143D01*
X131905142Y-106982143D01*
X131819428Y-107025000D01*
X131305142Y-107582143D02*
X131390856Y-107539286D01*
X131433713Y-107496429D01*
X131476570Y-107410714D01*
X131476570Y-107153571D01*
X131433713Y-107067857D01*
X131390856Y-107025000D01*
X131305142Y-106982143D01*
X131176570Y-106982143D01*
X131090856Y-107025000D01*
X131047999Y-107067857D01*
X131005142Y-107153571D01*
X131005142Y-107410714D01*
X131047999Y-107496429D01*
X131090856Y-107539286D01*
X131176570Y-107582143D01*
X131305142Y-107582143D01*
X130619427Y-107582143D02*
X130619427Y-106982143D01*
X130619427Y-107067857D02*
X130576570Y-107025000D01*
X130490856Y-106982143D01*
X130362284Y-106982143D01*
X130276570Y-107025000D01*
X130233713Y-107110714D01*
X130233713Y-107582143D01*
X130233713Y-107110714D02*
X130190856Y-107025000D01*
X130105142Y-106982143D01*
X129976570Y-106982143D01*
X129890856Y-107025000D01*
X129847999Y-107110714D01*
X129847999Y-107582143D01*
X128776570Y-106639286D02*
X129547999Y-107796429D01*
X128605142Y-106982143D02*
X128262285Y-106982143D01*
X128476570Y-106682143D02*
X128476570Y-107453571D01*
X128433713Y-107539286D01*
X128347999Y-107582143D01*
X128262285Y-107582143D01*
X127962284Y-107582143D02*
X127962284Y-106682143D01*
X127576570Y-107582143D02*
X127576570Y-107110714D01*
X127619427Y-107025000D01*
X127705141Y-106982143D01*
X127833713Y-106982143D01*
X127919427Y-107025000D01*
X127962284Y-107067857D01*
X126805141Y-107539286D02*
X126890855Y-107582143D01*
X127062284Y-107582143D01*
X127147998Y-107539286D01*
X127190855Y-107453571D01*
X127190855Y-107110714D01*
X127147998Y-107025000D01*
X127062284Y-106982143D01*
X126890855Y-106982143D01*
X126805141Y-107025000D01*
X126762284Y-107110714D01*
X126762284Y-107196429D01*
X127190855Y-107282143D01*
X125990855Y-107582143D02*
X125990855Y-107110714D01*
X126033712Y-107025000D01*
X126119426Y-106982143D01*
X126290855Y-106982143D01*
X126376569Y-107025000D01*
X125990855Y-107539286D02*
X126076569Y-107582143D01*
X126290855Y-107582143D01*
X126376569Y-107539286D01*
X126419426Y-107453571D01*
X126419426Y-107367857D01*
X126376569Y-107282143D01*
X126290855Y-107239286D01*
X126076569Y-107239286D01*
X125990855Y-107196429D01*
X125562283Y-106982143D02*
X125562283Y-107882143D01*
X125562283Y-107025000D02*
X125476569Y-106982143D01*
X125305140Y-106982143D01*
X125219426Y-107025000D01*
X125176569Y-107067857D01*
X125133712Y-107153571D01*
X125133712Y-107410714D01*
X125176569Y-107496429D01*
X125219426Y-107539286D01*
X125305140Y-107582143D01*
X125476569Y-107582143D01*
X125562283Y-107539286D01*
X124747997Y-107582143D02*
X124747997Y-106982143D01*
X124747997Y-106682143D02*
X124790854Y-106725000D01*
X124747997Y-106767857D01*
X124705140Y-106725000D01*
X124747997Y-106682143D01*
X124747997Y-106767857D01*
X123676569Y-106639286D02*
X124447998Y-107796429D01*
X123419426Y-107539286D02*
X123333712Y-107582143D01*
X123162284Y-107582143D01*
X123076569Y-107539286D01*
X123033712Y-107453571D01*
X123033712Y-107410714D01*
X123076569Y-107325000D01*
X123162284Y-107282143D01*
X123290855Y-107282143D01*
X123376569Y-107239286D01*
X123419426Y-107153571D01*
X123419426Y-107110714D01*
X123376569Y-107025000D01*
X123290855Y-106982143D01*
X123162284Y-106982143D01*
X123076569Y-107025000D01*
X122519427Y-107582143D02*
X122605141Y-107539286D01*
X122647998Y-107496429D01*
X122690855Y-107410714D01*
X122690855Y-107153571D01*
X122647998Y-107067857D01*
X122605141Y-107025000D01*
X122519427Y-106982143D01*
X122390855Y-106982143D01*
X122305141Y-107025000D01*
X122262284Y-107067857D01*
X122219427Y-107153571D01*
X122219427Y-107410714D01*
X122262284Y-107496429D01*
X122305141Y-107539286D01*
X122390855Y-107582143D01*
X122519427Y-107582143D01*
X121447998Y-106982143D02*
X121447998Y-107582143D01*
X121833712Y-106982143D02*
X121833712Y-107453571D01*
X121790855Y-107539286D01*
X121705141Y-107582143D01*
X121576569Y-107582143D01*
X121490855Y-107539286D01*
X121447998Y-107496429D01*
X121019426Y-106982143D02*
X121019426Y-107582143D01*
X121019426Y-107067857D02*
X120976569Y-107025000D01*
X120890855Y-106982143D01*
X120762283Y-106982143D01*
X120676569Y-107025000D01*
X120633712Y-107110714D01*
X120633712Y-107582143D01*
X119819426Y-107582143D02*
X119819426Y-106682143D01*
X119819426Y-107539286D02*
X119905140Y-107582143D01*
X120076569Y-107582143D01*
X120162283Y-107539286D01*
X120205140Y-107496429D01*
X120247997Y-107410714D01*
X120247997Y-107153571D01*
X120205140Y-107067857D01*
X120162283Y-107025000D01*
X120076569Y-106982143D01*
X119905140Y-106982143D01*
X119819426Y-107025000D01*
X119605140Y-107667857D02*
X118919426Y-107667857D01*
X118705140Y-107582143D02*
X118705140Y-106982143D01*
X118705140Y-107067857D02*
X118662283Y-107025000D01*
X118576569Y-106982143D01*
X118447997Y-106982143D01*
X118362283Y-107025000D01*
X118319426Y-107110714D01*
X118319426Y-107582143D01*
X118319426Y-107110714D02*
X118276569Y-107025000D01*
X118190855Y-106982143D01*
X118062283Y-106982143D01*
X117976569Y-107025000D01*
X117933712Y-107110714D01*
X117933712Y-107582143D01*
X117119426Y-107582143D02*
X117119426Y-107110714D01*
X117162283Y-107025000D01*
X117247997Y-106982143D01*
X117419426Y-106982143D01*
X117505140Y-107025000D01*
X117119426Y-107539286D02*
X117205140Y-107582143D01*
X117419426Y-107582143D01*
X117505140Y-107539286D01*
X117547997Y-107453571D01*
X117547997Y-107367857D01*
X117505140Y-107282143D01*
X117419426Y-107239286D01*
X117205140Y-107239286D01*
X117119426Y-107196429D01*
X116305140Y-107539286D02*
X116390854Y-107582143D01*
X116562283Y-107582143D01*
X116647997Y-107539286D01*
X116690854Y-107496429D01*
X116733711Y-107410714D01*
X116733711Y-107153571D01*
X116690854Y-107067857D01*
X116647997Y-107025000D01*
X116562283Y-106982143D01*
X116390854Y-106982143D01*
X116305140Y-107025000D01*
X115919425Y-107582143D02*
X115919425Y-106682143D01*
X115533711Y-107582143D02*
X115533711Y-107110714D01*
X115576568Y-107025000D01*
X115662282Y-106982143D01*
X115790854Y-106982143D01*
X115876568Y-107025000D01*
X115919425Y-107067857D01*
X115105139Y-107582143D02*
X115105139Y-106982143D01*
X115105139Y-106682143D02*
X115147996Y-106725000D01*
X115105139Y-106767857D01*
X115062282Y-106725000D01*
X115105139Y-106682143D01*
X115105139Y-106767857D01*
X114676568Y-106982143D02*
X114676568Y-107582143D01*
X114676568Y-107067857D02*
X114633711Y-107025000D01*
X114547997Y-106982143D01*
X114419425Y-106982143D01*
X114333711Y-107025000D01*
X114290854Y-107110714D01*
X114290854Y-107582143D01*
X113519425Y-107539286D02*
X113605139Y-107582143D01*
X113776568Y-107582143D01*
X113862282Y-107539286D01*
X113905139Y-107453571D01*
X113905139Y-107110714D01*
X113862282Y-107025000D01*
X113776568Y-106982143D01*
X113605139Y-106982143D01*
X113519425Y-107025000D01*
X113476568Y-107110714D01*
X113476568Y-107196429D01*
X113905139Y-107282143D01*
X113305139Y-107667857D02*
X112619425Y-107667857D01*
X112405139Y-107582143D02*
X112405139Y-106682143D01*
X112019425Y-107582143D02*
X112019425Y-107110714D01*
X112062282Y-107025000D01*
X112147996Y-106982143D01*
X112276568Y-106982143D01*
X112362282Y-107025000D01*
X112405139Y-107067857D01*
X111205139Y-107582143D02*
X111205139Y-107110714D01*
X111247996Y-107025000D01*
X111333710Y-106982143D01*
X111505139Y-106982143D01*
X111590853Y-107025000D01*
X111205139Y-107539286D02*
X111290853Y-107582143D01*
X111505139Y-107582143D01*
X111590853Y-107539286D01*
X111633710Y-107453571D01*
X111633710Y-107367857D01*
X111590853Y-107282143D01*
X111505139Y-107239286D01*
X111290853Y-107239286D01*
X111205139Y-107196429D01*
X110776567Y-107582143D02*
X110776567Y-106982143D01*
X110776567Y-107153571D02*
X110733710Y-107067857D01*
X110690853Y-107025000D01*
X110605139Y-106982143D01*
X110519424Y-106982143D01*
X109833710Y-107582143D02*
X109833710Y-106682143D01*
X109833710Y-107539286D02*
X109919424Y-107582143D01*
X110090853Y-107582143D01*
X110176567Y-107539286D01*
X110219424Y-107496429D01*
X110262281Y-107410714D01*
X110262281Y-107153571D01*
X110219424Y-107067857D01*
X110176567Y-107025000D01*
X110090853Y-106982143D01*
X109919424Y-106982143D01*
X109833710Y-107025000D01*
X109490853Y-106982143D02*
X109319424Y-107582143D01*
X109147995Y-107153571D01*
X108976567Y-107582143D01*
X108805138Y-106982143D01*
X108076567Y-107582143D02*
X108076567Y-107110714D01*
X108119424Y-107025000D01*
X108205138Y-106982143D01*
X108376567Y-106982143D01*
X108462281Y-107025000D01*
X108076567Y-107539286D02*
X108162281Y-107582143D01*
X108376567Y-107582143D01*
X108462281Y-107539286D01*
X108505138Y-107453571D01*
X108505138Y-107367857D01*
X108462281Y-107282143D01*
X108376567Y-107239286D01*
X108162281Y-107239286D01*
X108076567Y-107196429D01*
X107647995Y-107582143D02*
X107647995Y-106982143D01*
X107647995Y-107153571D02*
X107605138Y-107067857D01*
X107562281Y-107025000D01*
X107476567Y-106982143D01*
X107390852Y-106982143D01*
X106747995Y-107539286D02*
X106833709Y-107582143D01*
X107005138Y-107582143D01*
X107090852Y-107539286D01*
X107133709Y-107453571D01*
X107133709Y-107110714D01*
X107090852Y-107025000D01*
X107005138Y-106982143D01*
X106833709Y-106982143D01*
X106747995Y-107025000D01*
X106705138Y-107110714D01*
X106705138Y-107196429D01*
X107133709Y-107282143D01*
X142533714Y-108532143D02*
X142533714Y-109432143D01*
X142533714Y-108575000D02*
X142448000Y-108532143D01*
X142276571Y-108532143D01*
X142190857Y-108575000D01*
X142148000Y-108617857D01*
X142105143Y-108703571D01*
X142105143Y-108960714D01*
X142148000Y-109046429D01*
X142190857Y-109089286D01*
X142276571Y-109132143D01*
X142448000Y-109132143D01*
X142533714Y-109089286D01*
X141719428Y-109132143D02*
X141719428Y-108532143D01*
X141719428Y-108703571D02*
X141676571Y-108617857D01*
X141633714Y-108575000D01*
X141548000Y-108532143D01*
X141462285Y-108532143D01*
X141033714Y-109132143D02*
X141119428Y-109089286D01*
X141162285Y-109046429D01*
X141205142Y-108960714D01*
X141205142Y-108703571D01*
X141162285Y-108617857D01*
X141119428Y-108575000D01*
X141033714Y-108532143D01*
X140905142Y-108532143D01*
X140819428Y-108575000D01*
X140776571Y-108617857D01*
X140733714Y-108703571D01*
X140733714Y-108960714D01*
X140776571Y-109046429D01*
X140819428Y-109089286D01*
X140905142Y-109132143D01*
X141033714Y-109132143D01*
X140476571Y-108532143D02*
X140133714Y-108532143D01*
X140347999Y-108232143D02*
X140347999Y-109003571D01*
X140305142Y-109089286D01*
X140219428Y-109132143D01*
X140133714Y-109132143D01*
X139705142Y-109132143D02*
X139790856Y-109089286D01*
X139833713Y-109046429D01*
X139876570Y-108960714D01*
X139876570Y-108703571D01*
X139833713Y-108617857D01*
X139790856Y-108575000D01*
X139705142Y-108532143D01*
X139576570Y-108532143D01*
X139490856Y-108575000D01*
X139447999Y-108617857D01*
X139405142Y-108703571D01*
X139405142Y-108960714D01*
X139447999Y-109046429D01*
X139490856Y-109089286D01*
X139576570Y-109132143D01*
X139705142Y-109132143D01*
X139147999Y-108532143D02*
X138805142Y-108532143D01*
X139019427Y-108232143D02*
X139019427Y-109003571D01*
X138976570Y-109089286D01*
X138890856Y-109132143D01*
X138805142Y-109132143D01*
X138590856Y-108532143D02*
X138376570Y-109132143D01*
X138162284Y-108532143D02*
X138376570Y-109132143D01*
X138462284Y-109346429D01*
X138505141Y-109389286D01*
X138590856Y-109432143D01*
X137819427Y-108532143D02*
X137819427Y-109432143D01*
X137819427Y-108575000D02*
X137733713Y-108532143D01*
X137562284Y-108532143D01*
X137476570Y-108575000D01*
X137433713Y-108617857D01*
X137390856Y-108703571D01*
X137390856Y-108960714D01*
X137433713Y-109046429D01*
X137476570Y-109089286D01*
X137562284Y-109132143D01*
X137733713Y-109132143D01*
X137819427Y-109089286D01*
X136662284Y-109089286D02*
X136747998Y-109132143D01*
X136919427Y-109132143D01*
X137005141Y-109089286D01*
X137047998Y-109003571D01*
X137047998Y-108660714D01*
X137005141Y-108575000D01*
X136919427Y-108532143D01*
X136747998Y-108532143D01*
X136662284Y-108575000D01*
X136619427Y-108660714D01*
X136619427Y-108746429D01*
X137047998Y-108832143D01*
X134947999Y-108532143D02*
X134733713Y-109132143D01*
X134519427Y-108532143D01*
X133705142Y-109132143D02*
X134219427Y-109132143D01*
X133962285Y-109132143D02*
X133962285Y-108232143D01*
X134047999Y-108360714D01*
X134133713Y-108446429D01*
X134219427Y-108489286D01*
X133319427Y-109046429D02*
X133276570Y-109089286D01*
X133319427Y-109132143D01*
X133362284Y-109089286D01*
X133319427Y-109046429D01*
X133319427Y-109132143D01*
X132719428Y-108232143D02*
X132633713Y-108232143D01*
X132547999Y-108275000D01*
X132505142Y-108317857D01*
X132462285Y-108403571D01*
X132419428Y-108575000D01*
X132419428Y-108789286D01*
X132462285Y-108960714D01*
X132505142Y-109046429D01*
X132547999Y-109089286D01*
X132633713Y-109132143D01*
X132719428Y-109132143D01*
X132805142Y-109089286D01*
X132847999Y-109046429D01*
X132890856Y-108960714D01*
X132933713Y-108789286D01*
X132933713Y-108575000D01*
X132890856Y-108403571D01*
X132847999Y-108317857D01*
X132805142Y-108275000D01*
X132719428Y-108232143D01*
X132033713Y-109046429D02*
X131990856Y-109089286D01*
X132033713Y-109132143D01*
X132076570Y-109089286D01*
X132033713Y-109046429D01*
X132033713Y-109132143D01*
X131433714Y-108232143D02*
X131347999Y-108232143D01*
X131262285Y-108275000D01*
X131219428Y-108317857D01*
X131176571Y-108403571D01*
X131133714Y-108575000D01*
X131133714Y-108789286D01*
X131176571Y-108960714D01*
X131219428Y-109046429D01*
X131262285Y-109089286D01*
X131347999Y-109132143D01*
X131433714Y-109132143D01*
X131519428Y-109089286D01*
X131562285Y-109046429D01*
X131605142Y-108960714D01*
X131647999Y-108789286D01*
X131647999Y-108575000D01*
X131605142Y-108403571D01*
X131562285Y-108317857D01*
X131519428Y-108275000D01*
X131433714Y-108232143D01*
D13*
X125527619Y-134149762D02*
X125390715Y-134197381D01*
X125152619Y-134197381D01*
X125051428Y-134149762D01*
X124997857Y-134102143D01*
X124938333Y-134006905D01*
X124926428Y-133911667D01*
X124962143Y-133816429D01*
X125003809Y-133768810D01*
X125093095Y-133721190D01*
X125277619Y-133673571D01*
X125366905Y-133625952D01*
X125408572Y-133578333D01*
X125444286Y-133483095D01*
X125432381Y-133387857D01*
X125372857Y-133292619D01*
X125319286Y-133245000D01*
X125218096Y-133197381D01*
X124980000Y-133197381D01*
X124843095Y-133245000D01*
X124390715Y-134197381D02*
X124480000Y-134149762D01*
X124521667Y-134102143D01*
X124557381Y-134006905D01*
X124521667Y-133721190D01*
X124462143Y-133625952D01*
X124408572Y-133578333D01*
X124307381Y-133530714D01*
X124164523Y-133530714D01*
X124075238Y-133578333D01*
X124033571Y-133625952D01*
X123997857Y-133721190D01*
X124033571Y-134006905D01*
X124093095Y-134102143D01*
X124146666Y-134149762D01*
X124247857Y-134197381D01*
X124390715Y-134197381D01*
X123116904Y-133530714D02*
X123200238Y-134197381D01*
X123545476Y-133530714D02*
X123610952Y-134054524D01*
X123575238Y-134149762D01*
X123485953Y-134197381D01*
X123343095Y-134197381D01*
X123241904Y-134149762D01*
X123188333Y-134102143D01*
X122640714Y-133530714D02*
X122724048Y-134197381D01*
X122652619Y-133625952D02*
X122599048Y-133578333D01*
X122497857Y-133530714D01*
X122354999Y-133530714D01*
X122265714Y-133578333D01*
X122229999Y-133673571D01*
X122295476Y-134197381D01*
X121390714Y-134197381D02*
X121265714Y-133197381D01*
X121384761Y-134149762D02*
X121485952Y-134197381D01*
X121676429Y-134197381D01*
X121765714Y-134149762D01*
X121807381Y-134102143D01*
X121843095Y-134006905D01*
X121807381Y-133721190D01*
X121747857Y-133625952D01*
X121694286Y-133578333D01*
X121593095Y-133530714D01*
X121402618Y-133530714D01*
X121313333Y-133578333D01*
X120152619Y-134197381D02*
X120027619Y-133197381D01*
X119783570Y-133911667D01*
X119360952Y-133197381D01*
X119485952Y-134197381D01*
X118581190Y-134197381D02*
X118515713Y-133673571D01*
X118551428Y-133578333D01*
X118640713Y-133530714D01*
X118831190Y-133530714D01*
X118932381Y-133578333D01*
X118575237Y-134149762D02*
X118676428Y-134197381D01*
X118914524Y-134197381D01*
X119003809Y-134149762D01*
X119039523Y-134054524D01*
X119027619Y-133959286D01*
X118968095Y-133864048D01*
X118866905Y-133816429D01*
X118628809Y-133816429D01*
X118527618Y-133768810D01*
X117670475Y-134149762D02*
X117771666Y-134197381D01*
X117962143Y-134197381D01*
X118051428Y-134149762D01*
X118093095Y-134102143D01*
X118128809Y-134006905D01*
X118093095Y-133721190D01*
X118033571Y-133625952D01*
X117980000Y-133578333D01*
X117878809Y-133530714D01*
X117688332Y-133530714D01*
X117599047Y-133578333D01*
X117247857Y-134197381D02*
X117122857Y-133197381D01*
X116819285Y-134197381D02*
X116753808Y-133673571D01*
X116789523Y-133578333D01*
X116878808Y-133530714D01*
X117021666Y-133530714D01*
X117122857Y-133578333D01*
X117176428Y-133625952D01*
X116343095Y-134197381D02*
X116259761Y-133530714D01*
X116218095Y-133197381D02*
X116271666Y-133245000D01*
X116229999Y-133292619D01*
X116176428Y-133245000D01*
X116218095Y-133197381D01*
X116229999Y-133292619D01*
X115783571Y-133530714D02*
X115866905Y-134197381D01*
X115795476Y-133625952D02*
X115741905Y-133578333D01*
X115640714Y-133530714D01*
X115497856Y-133530714D01*
X115408571Y-133578333D01*
X115372856Y-133673571D01*
X115438333Y-134197381D01*
X114575237Y-134149762D02*
X114676428Y-134197381D01*
X114866905Y-134197381D01*
X114956190Y-134149762D01*
X114991904Y-134054524D01*
X114944285Y-133673571D01*
X114884762Y-133578333D01*
X114783571Y-133530714D01*
X114593094Y-133530714D01*
X114503809Y-133578333D01*
X114468094Y-133673571D01*
X114479999Y-133768810D01*
X114968095Y-133864048D01*
X125485953Y-135947381D02*
X125360953Y-134947381D01*
X124980000Y-134947381D01*
X124890714Y-134995000D01*
X124849047Y-135042619D01*
X124813333Y-135137857D01*
X124831190Y-135280714D01*
X124890714Y-135375952D01*
X124944285Y-135423571D01*
X125045476Y-135471190D01*
X125426429Y-135471190D01*
X124099047Y-135899762D02*
X124200238Y-135947381D01*
X124390715Y-135947381D01*
X124480000Y-135899762D01*
X124515714Y-135804524D01*
X124468095Y-135423571D01*
X124408572Y-135328333D01*
X124307381Y-135280714D01*
X124116904Y-135280714D01*
X124027619Y-135328333D01*
X123991904Y-135423571D01*
X124003809Y-135518810D01*
X124491905Y-135614048D01*
X123688333Y-135280714D02*
X123307381Y-135280714D01*
X123503810Y-134947381D02*
X123610952Y-135804524D01*
X123575238Y-135899762D01*
X123485953Y-135947381D01*
X123390715Y-135947381D01*
X122670475Y-135899762D02*
X122771666Y-135947381D01*
X122962143Y-135947381D01*
X123051428Y-135899762D01*
X123087142Y-135804524D01*
X123039523Y-135423571D01*
X122980000Y-135328333D01*
X122878809Y-135280714D01*
X122688332Y-135280714D01*
X122599047Y-135328333D01*
X122563332Y-135423571D01*
X122575237Y-135518810D01*
X123063333Y-135614048D01*
X122200238Y-135947381D02*
X122116904Y-135280714D01*
X122140714Y-135471190D02*
X122081190Y-135375952D01*
X122027619Y-135328333D01*
X121926428Y-135280714D01*
X121831189Y-135280714D01*
X120235951Y-135852143D02*
X120289522Y-135899762D01*
X120438332Y-135947381D01*
X120533570Y-135947381D01*
X120670475Y-135899762D01*
X120753808Y-135804524D01*
X120789523Y-135709286D01*
X120813332Y-135518810D01*
X120795475Y-135375952D01*
X120724046Y-135185476D01*
X120664523Y-135090238D01*
X120557380Y-134995000D01*
X120408570Y-134947381D01*
X120313332Y-134947381D01*
X120176427Y-134995000D01*
X120134760Y-135042619D01*
X119676428Y-135947381D02*
X119765713Y-135899762D01*
X119801427Y-135804524D01*
X119694285Y-134947381D01*
X118866903Y-135947381D02*
X118801426Y-135423571D01*
X118837141Y-135328333D01*
X118926426Y-135280714D01*
X119116903Y-135280714D01*
X119218094Y-135328333D01*
X118860950Y-135899762D02*
X118962141Y-135947381D01*
X119200237Y-135947381D01*
X119289522Y-135899762D01*
X119325236Y-135804524D01*
X119313332Y-135709286D01*
X119253808Y-135614048D01*
X119152618Y-135566429D01*
X118914522Y-135566429D01*
X118813331Y-135518810D01*
X118390713Y-135947381D02*
X118307379Y-135280714D01*
X118331189Y-135471190D02*
X118271665Y-135375952D01*
X118218094Y-135328333D01*
X118116903Y-135280714D01*
X118021664Y-135280714D01*
X117771665Y-135947381D02*
X117646665Y-134947381D01*
X117628808Y-135566429D02*
X117390712Y-135947381D01*
X117307378Y-135280714D02*
X117735950Y-135661667D01*
X116575235Y-135899762D02*
X116676426Y-135947381D01*
X116866903Y-135947381D01*
X116956188Y-135899762D01*
X116991902Y-135804524D01*
X116944283Y-135423571D01*
X116884760Y-135328333D01*
X116783569Y-135280714D01*
X116593092Y-135280714D01*
X116503807Y-135328333D01*
X116468092Y-135423571D01*
X116479997Y-135518810D01*
X116968093Y-135614048D01*
X116051426Y-135899762D02*
X116057379Y-135947381D01*
X116116902Y-136042619D01*
X116170474Y-136090238D01*
X114456188Y-134947381D02*
X114545473Y-135661667D01*
X114610950Y-135804524D01*
X114718093Y-135899762D01*
X114866903Y-135947381D01*
X114962141Y-135947381D01*
X113676426Y-135947381D02*
X113610949Y-135423571D01*
X113646664Y-135328333D01*
X113735949Y-135280714D01*
X113926426Y-135280714D01*
X114027617Y-135328333D01*
X113670473Y-135899762D02*
X113771664Y-135947381D01*
X114009760Y-135947381D01*
X114099045Y-135899762D01*
X114134759Y-135804524D01*
X114122855Y-135709286D01*
X114063331Y-135614048D01*
X113962141Y-135566429D01*
X113724045Y-135566429D01*
X113622854Y-135518810D01*
X113116902Y-135280714D02*
X113200236Y-135947381D01*
X113128807Y-135375952D02*
X113075236Y-135328333D01*
X112974045Y-135280714D01*
X112831187Y-135280714D01*
X112741902Y-135328333D01*
X112706187Y-135423571D01*
X112771664Y-135947381D01*
X111783568Y-135280714D02*
X111866902Y-135947381D01*
X112212140Y-135280714D02*
X112277616Y-135804524D01*
X112241902Y-135899762D01*
X112152617Y-135947381D01*
X112009759Y-135947381D01*
X111908568Y-135899762D01*
X111854997Y-135852143D01*
X110962140Y-135947381D02*
X110896663Y-135423571D01*
X110932378Y-135328333D01*
X111021663Y-135280714D01*
X111212140Y-135280714D01*
X111313331Y-135328333D01*
X110956187Y-135899762D02*
X111057378Y-135947381D01*
X111295474Y-135947381D01*
X111384759Y-135899762D01*
X111420473Y-135804524D01*
X111408569Y-135709286D01*
X111349045Y-135614048D01*
X111247855Y-135566429D01*
X111009759Y-135566429D01*
X110908568Y-135518810D01*
X110485950Y-135947381D02*
X110402616Y-135280714D01*
X110426426Y-135471190D02*
X110366902Y-135375952D01*
X110313331Y-135328333D01*
X110212140Y-135280714D01*
X110116901Y-135280714D01*
X109878806Y-135280714D02*
X109724045Y-135947381D01*
X109402615Y-135280714D02*
X109724045Y-135947381D01*
X109849045Y-136185476D01*
X109902616Y-136233095D01*
X110003806Y-136280714D01*
X108277615Y-135042619D02*
X108224044Y-134995000D01*
X108122854Y-134947381D01*
X107884758Y-134947381D01*
X107795472Y-134995000D01*
X107753805Y-135042619D01*
X107718091Y-135137857D01*
X107729996Y-135233095D01*
X107795472Y-135375952D01*
X108438330Y-135947381D01*
X107819282Y-135947381D01*
X107075235Y-134947381D02*
X106979996Y-134947381D01*
X106890710Y-134995000D01*
X106849043Y-135042619D01*
X106813329Y-135137857D01*
X106789520Y-135328333D01*
X106819282Y-135566429D01*
X106890710Y-135756905D01*
X106950234Y-135852143D01*
X107003805Y-135899762D01*
X107104996Y-135947381D01*
X107200235Y-135947381D01*
X107289520Y-135899762D01*
X107331187Y-135852143D01*
X107366901Y-135756905D01*
X107390711Y-135566429D01*
X107360949Y-135328333D01*
X107289520Y-135137857D01*
X107229996Y-135042619D01*
X107176425Y-134995000D01*
X107075235Y-134947381D01*
X105914520Y-135947381D02*
X106485949Y-135947381D01*
X106200235Y-135947381D02*
X106075235Y-134947381D01*
X106188330Y-135090238D01*
X106295472Y-135185476D01*
X106396663Y-135233095D01*
X105271663Y-135375952D02*
X105360949Y-135328333D01*
X105402615Y-135280714D01*
X105438329Y-135185476D01*
X105432377Y-135137857D01*
X105372853Y-135042619D01*
X105319282Y-134995000D01*
X105218092Y-134947381D01*
X105027615Y-134947381D01*
X104938329Y-134995000D01*
X104896662Y-135042619D01*
X104860948Y-135137857D01*
X104866900Y-135185476D01*
X104926424Y-135280714D01*
X104979996Y-135328333D01*
X105081186Y-135375952D01*
X105271663Y-135375952D01*
X105372853Y-135423571D01*
X105426425Y-135471190D01*
X105485949Y-135566429D01*
X105509758Y-135756905D01*
X105474044Y-135852143D01*
X105432377Y-135899762D01*
X105343092Y-135947381D01*
X105152615Y-135947381D01*
X105051424Y-135899762D01*
X104997853Y-135852143D01*
X104938329Y-135756905D01*
X104914520Y-135566429D01*
X104950234Y-135471190D01*
X104991900Y-135423571D01*
X105081186Y-135375952D01*
D14*
X153125000Y-134750000D02*
X152400000Y-133525000D01*
X152400000Y-133525000D02*
X152150000Y-132525000D01*
X152150000Y-132525000D02*
X151775000Y-134050000D01*
X151775000Y-134050000D02*
X152325000Y-135125000D01*
X152325000Y-135125000D02*
X153200000Y-136275000D01*
X153200000Y-136275000D02*
X152850000Y-136100000D01*
X155350000Y-122750000D02*
X154450000Y-125075000D01*
X154450000Y-125075000D02*
X153650000Y-126300000D01*
X153650000Y-126300000D02*
X153125000Y-127825000D01*
X153125000Y-127825000D02*
X152850000Y-129525000D01*
X152850000Y-129525000D02*
X152750000Y-131375000D01*
X152750000Y-131375000D02*
X153025000Y-133425000D01*
X153025000Y-133425000D02*
X153200000Y-135825000D01*
X153200000Y-135825000D02*
X153650000Y-137325000D01*
X153650000Y-137325000D02*
X153650000Y-137700000D01*
X156725000Y-120325000D02*
X156400000Y-120850000D01*
X156400000Y-120850000D02*
X155950000Y-121050000D01*
X155950000Y-121050000D02*
X155375000Y-121275000D01*
X155375000Y-121275000D02*
X154600000Y-121400000D01*
X154600000Y-121400000D02*
X153975000Y-121175000D01*
X153975000Y-121175000D02*
X153550000Y-120775000D01*
X153550000Y-120775000D02*
X153375000Y-120100000D01*
X153375000Y-120100000D02*
X153475000Y-120100000D01*
X154150000Y-118500000D02*
X154650000Y-118550000D01*
X154650000Y-118550000D02*
X154775000Y-118875000D01*
X154775000Y-118875000D02*
X154725000Y-119325000D01*
X154725000Y-119325000D02*
X154100000Y-119375000D01*
X154100000Y-119375000D02*
X153825000Y-119100000D01*
X153825000Y-119100000D02*
X154150000Y-118775000D01*
X156400000Y-118500000D02*
X156725000Y-118725000D01*
X156725000Y-118725000D02*
X156725000Y-119375000D01*
X156725000Y-119375000D02*
X156175000Y-119375000D01*
X156175000Y-119375000D02*
X155775000Y-119225000D01*
X155775000Y-119225000D02*
X155825000Y-118825000D01*
X155825000Y-118825000D02*
X156100000Y-118775000D01*
X156100000Y-118775000D02*
X156400000Y-118600000D01*
X156400000Y-118600000D02*
X156100000Y-118600000D01*
X151650000Y-122300000D02*
X152075000Y-121800000D01*
X152075000Y-121800000D02*
X152975000Y-121400000D01*
X152975000Y-121400000D02*
X151875000Y-121400000D01*
X151875000Y-121400000D02*
X150400000Y-120950000D01*
X150400000Y-120950000D02*
X149525000Y-120400000D01*
X149525000Y-120400000D02*
X149225000Y-119600000D01*
X149225000Y-119600000D02*
X149300000Y-118950000D01*
X149300000Y-118950000D02*
X149575000Y-118500000D01*
X149575000Y-118500000D02*
X150250000Y-118050000D01*
X150250000Y-118050000D02*
X150925000Y-118000000D01*
X150925000Y-118000000D02*
X151800000Y-117925000D01*
X151800000Y-117925000D02*
X152475000Y-117925000D01*
X152475000Y-117925000D02*
X152875000Y-117925000D01*
X152875000Y-117925000D02*
X152875000Y-117875000D01*
X157850000Y-118375000D02*
X158850000Y-118550000D01*
X158850000Y-118550000D02*
X159575000Y-118725000D01*
X159575000Y-118725000D02*
X160350000Y-119150000D01*
X160350000Y-119150000D02*
X161025000Y-119725000D01*
X161025000Y-119725000D02*
X161150000Y-120900000D01*
X161150000Y-120900000D02*
X160700000Y-121800000D01*
X160700000Y-121800000D02*
X159850000Y-122175000D01*
X159850000Y-122175000D02*
X158800000Y-122075000D01*
X158800000Y-122075000D02*
X158175000Y-121675000D01*
X158175000Y-121675000D02*
X157725000Y-121400000D01*
X157725000Y-121400000D02*
X158225000Y-122125000D01*
X158225000Y-122125000D02*
X158625000Y-123350000D01*
X158625000Y-123350000D02*
X158400000Y-124250000D01*
X158400000Y-124250000D02*
X157900000Y-125025000D01*
X157900000Y-125025000D02*
X157050000Y-125150000D01*
X157050000Y-125150000D02*
X155875000Y-124925000D01*
X155875000Y-124925000D02*
X155450000Y-124300000D01*
X155450000Y-124300000D02*
X155275000Y-123575000D01*
X155275000Y-123575000D02*
X155325000Y-122750000D01*
X155325000Y-122750000D02*
X154875000Y-123475000D01*
X154875000Y-123475000D02*
X154425000Y-124025000D01*
X154425000Y-124025000D02*
X153325000Y-124650000D01*
X153325000Y-124650000D02*
X152200000Y-124575000D01*
X152200000Y-124575000D02*
X151300000Y-123800000D01*
X151300000Y-123800000D02*
X151250000Y-122950000D01*
X151250000Y-122950000D02*
X151700000Y-122225000D01*
X155275000Y-116750000D02*
X155725000Y-115975000D01*
X155725000Y-115975000D02*
X156400000Y-115425000D01*
X156400000Y-115425000D02*
X157175000Y-114925000D01*
X157175000Y-114925000D02*
X158575000Y-114800000D01*
X158575000Y-114800000D02*
X159475000Y-115250000D01*
X159475000Y-115250000D02*
X160025000Y-116100000D01*
X160025000Y-116100000D02*
X159975000Y-117100000D01*
X159975000Y-117100000D02*
X159350000Y-117925000D01*
X159350000Y-117925000D02*
X158575000Y-118100000D01*
X158575000Y-118100000D02*
X157725000Y-118275000D01*
X157725000Y-118275000D02*
X157775000Y-118500000D01*
X155225000Y-116750000D02*
X155050000Y-115700000D01*
X155050000Y-115700000D02*
X154550000Y-114800000D01*
X154550000Y-114800000D02*
X153325000Y-114125000D01*
X153325000Y-114125000D02*
X151925000Y-114250000D01*
X151925000Y-114250000D02*
X151075000Y-115025000D01*
X151075000Y-115025000D02*
X150850000Y-116150000D01*
X150850000Y-116150000D02*
X151475000Y-117100000D01*
X151475000Y-117100000D02*
X152300000Y-117700000D01*
X152300000Y-117700000D02*
X152925000Y-117925000D01*
X158139806Y-119670000D02*
G75*
G03X158139806Y-119670000I-2839806J0D01*
G01*
M02*
